Hubballi-Regular-20-22-23.ufo
<glyph name="exclam" format="1">
  <advance width="327"/>
  <unicode hex="0021"/>
  <outline>
    <contour>
      <point x="139" y="276" type="curve" smooth="yes"/>
      <point x="146" y="554" type="line" smooth="yes"/>
      <point x="146" y="566"/>
      <point x="157" y="576"/>
      <point x="170" y="576" type="curve" smooth="yes"/>
      <point x="182" y="576"/>
      <point x="192" y="565"/>
      <point x="192" y="552" type="curve" smooth="yes"/>
      <point x="185" y="274" type="line" smooth="yes"/>
      <point x="185" y="262"/>
      <point x="174" y="252"/>
      <point x="161" y="252" type="curve" smooth="yes"/>
      <point x="149" y="252"/>
      <point x="139" y="263"/>
    </contour>
    <component base="period" xOffset="49"/>
    <component base="period" xOffset="49"/>
  </outline>
</glyph>
<glyph name="quotedbl" format="1">
  <advance width="404"/>
  <unicode hex="0022"/>
  <outline>
    <contour>
      <point x="160" y="563" type="curve" smooth="yes"/>
      <point x="120" y="387" type="line" smooth="yes"/>
      <point x="118" y="375"/>
      <point x="105" y="367"/>
      <point x="93" y="370" type="curve" smooth="yes"/>
      <point x="81" y="372"/>
      <point x="73" y="385"/>
      <point x="76" y="397" type="curve" smooth="yes"/>
      <point x="116" y="573" type="line" smooth="yes"/>
      <point x="118" y="585"/>
      <point x="131" y="593"/>
      <point x="143" y="590" type="curve" smooth="yes"/>
      <point x="155" y="588"/>
      <point x="163" y="575"/>
    </contour>
    <contour>
      <point x="319" y="563" type="curve" smooth="yes"/>
      <point x="279" y="387" type="line" smooth="yes"/>
      <point x="277" y="375"/>
      <point x="264" y="367"/>
      <point x="252" y="370" type="curve" smooth="yes"/>
      <point x="240" y="372"/>
      <point x="232" y="385"/>
      <point x="235" y="397" type="curve" smooth="yes"/>
      <point x="275" y="573" type="line" smooth="yes"/>
      <point x="277" y="585"/>
      <point x="290" y="593"/>
      <point x="302" y="590" type="curve" smooth="yes"/>
      <point x="314" y="588"/>
      <point x="322" y="575"/>
    </contour>
  </outline>
</glyph>
<glyph name="numbersign" format="1">
  <advance width="596"/>
  <unicode hex="0023"/>
  <outline>
    <contour>
      <point x="503" y="509" type="curve" smooth="yes"/>
      <point x="327" y="25" type="line" smooth="yes"/>
      <point x="322" y="13"/>
      <point x="309" y="7"/>
      <point x="297" y="11" type="curve" smooth="yes"/>
      <point x="285" y="16"/>
      <point x="279" y="29"/>
      <point x="283" y="41" type="curve" smooth="yes"/>
      <point x="459" y="525" type="line" smooth="yes"/>
      <point x="464" y="537"/>
      <point x="477" y="543"/>
      <point x="489" y="539" type="curve" smooth="yes"/>
      <point x="501" y="534"/>
      <point x="507" y="521"/>
    </contour>
    <contour>
      <point x="303" y="509" type="curve" smooth="yes"/>
      <point x="127" y="25" type="line" smooth="yes"/>
      <point x="122" y="13"/>
      <point x="109" y="7"/>
      <point x="97" y="11" type="curve" smooth="yes"/>
      <point x="85" y="16"/>
      <point x="79" y="29"/>
      <point x="83" y="41" type="curve" smooth="yes"/>
      <point x="259" y="525" type="line" smooth="yes"/>
      <point x="264" y="537"/>
      <point x="277" y="543"/>
      <point x="289" y="539" type="curve" smooth="yes"/>
      <point x="301" y="534"/>
      <point x="307" y="521"/>
    </contour>
    <contour>
      <point x="532" y="365" type="curve" smooth="yes"/>
      <point x="128" y="365" type="line" smooth="yes"/>
      <point x="116" y="365"/>
      <point x="105" y="376"/>
      <point x="105" y="388" type="curve" smooth="yes"/>
      <point x="105" y="400"/>
      <point x="116" y="411"/>
      <point x="128" y="411" type="curve" smooth="yes"/>
      <point x="532" y="411" type="line" smooth="yes"/>
      <point x="544" y="411"/>
      <point x="555" y="400"/>
      <point x="555" y="388" type="curve" smooth="yes"/>
      <point x="555" y="376"/>
      <point x="544" y="365"/>
    </contour>
    <contour>
      <point x="463" y="165" type="curve" smooth="yes"/>
      <point x="59" y="165" type="line" smooth="yes"/>
      <point x="47" y="165"/>
      <point x="36" y="176"/>
      <point x="36" y="188" type="curve" smooth="yes"/>
      <point x="36" y="200"/>
      <point x="47" y="211"/>
      <point x="59" y="211" type="curve" smooth="yes"/>
      <point x="463" y="211" type="line" smooth="yes"/>
      <point x="475" y="211"/>
      <point x="486" y="200"/>
      <point x="486" y="188" type="curve" smooth="yes"/>
      <point x="486" y="176"/>
      <point x="475" y="165"/>
    </contour>
  </outline>
</glyph>
<glyph name="dollar" format="1">
  <advance width="574"/>
  <unicode hex="0024"/>
  <outline>
    <contour>
      <point x="429" y="462" type="curve" smooth="yes"/>
      <point x="378" y="480"/>
      <point x="340" y="491"/>
      <point x="265" y="491" type="curve" smooth="yes"/>
      <point x="189" y="491"/>
      <point x="132" y="455"/>
      <point x="132" y="410" type="curve" smooth="yes"/>
      <point x="132" y="366"/>
      <point x="165" y="322"/>
      <point x="293" y="301" type="curve" smooth="yes"/>
      <point x="456" y="269"/>
      <point x="499" y="207"/>
      <point x="499" y="136" type="curve" smooth="yes"/>
      <point x="499" y="64"/>
      <point x="444" y="-9"/>
      <point x="288" y="-9" type="curve" smooth="yes"/>
      <point x="215" y="-9"/>
      <point x="147" y="6"/>
      <point x="84" y="36" type="curve" smooth="yes"/>
      <point x="73" y="42"/>
      <point x="68" y="56"/>
      <point x="73" y="67" type="curve" smooth="yes"/>
      <point x="79" y="78"/>
      <point x="93" y="83"/>
      <point x="104" y="78" type="curve" smooth="yes"/>
      <point x="161" y="50"/>
      <point x="223" y="37"/>
      <point x="288" y="37" type="curve" smooth="yes"/>
      <point x="394" y="37"/>
      <point x="453" y="80"/>
      <point x="453" y="136" type="curve" smooth="yes"/>
      <point x="453" y="193"/>
      <point x="402" y="233"/>
      <point x="285" y="255" type="curve" smooth="yes"/>
      <point x="105" y="286"/>
      <point x="86" y="354"/>
      <point x="86" y="410" type="curve" smooth="yes"/>
      <point x="86" y="471"/>
      <point x="145" y="537"/>
      <point x="265" y="537" type="curve" smooth="yes"/>
      <point x="348" y="537"/>
      <point x="388" y="526"/>
      <point x="445" y="506" type="curve" smooth="yes"/>
      <point x="456" y="502"/>
      <point x="463" y="488"/>
      <point x="459" y="476" type="curve" smooth="yes"/>
      <point x="455" y="465"/>
      <point x="441" y="458"/>
    </contour>
    <contour>
      <point x="307" y="606" type="curve" smooth="yes"/>
      <point x="307" y="-84" type="line" smooth="yes"/>
      <point x="307" y="-96"/>
      <point x="296" y="-107"/>
      <point x="284" y="-107" type="curve" smooth="yes"/>
      <point x="272" y="-107"/>
      <point x="261" y="-96"/>
      <point x="261" y="-84" type="curve" smooth="yes"/>
      <point x="261" y="606" type="line" smooth="yes"/>
      <point x="261" y="618"/>
      <point x="272" y="629"/>
      <point x="284" y="629" type="curve" smooth="yes"/>
      <point x="296" y="629"/>
      <point x="307" y="618"/>
    </contour>
  </outline>
</glyph>
<glyph name="percent" format="1">
  <advance width="814"/>
  <unicode hex="0025"/>
  <outline>
    <contour>
      <point x="203" y="548" type="curve" smooth="yes"/>
      <point x="273" y="548"/>
      <point x="334" y="485"/>
      <point x="334" y="389" type="curve" smooth="yes"/>
      <point x="334" y="299"/>
      <point x="284" y="230"/>
      <point x="203" y="230" type="curve" smooth="yes"/>
      <point x="129" y="230"/>
      <point x="71" y="300"/>
      <point x="71" y="388" type="curve" smooth="yes"/>
      <point x="71" y="485"/>
      <point x="128" y="548"/>
    </contour>
    <contour>
      <point x="612" y="318" type="curve" smooth="yes"/>
      <point x="682" y="318"/>
      <point x="743" y="255"/>
      <point x="743" y="159" type="curve" smooth="yes"/>
      <point x="743" y="69"/>
      <point x="693" y="0"/>
      <point x="612" y="0" type="curve" smooth="yes"/>
      <point x="538" y="0"/>
      <point x="480" y="70"/>
      <point x="480" y="158" type="curve" smooth="yes"/>
      <point x="480" y="255"/>
      <point x="537" y="318"/>
    </contour>
    <contour>
      <point x="570" y="506" type="curve" smooth="yes"/>
      <point x="287" y="21" type="line" smooth="yes"/>
      <point x="281" y="11"/>
      <point x="266" y="7"/>
      <point x="255" y="13" type="curve" smooth="yes"/>
      <point x="245" y="19"/>
      <point x="241" y="34"/>
      <point x="247" y="45" type="curve" smooth="yes"/>
      <point x="530" y="530" type="line" smooth="yes"/>
      <point x="536" y="540"/>
      <point x="551" y="544"/>
      <point x="562" y="538" type="curve" smooth="yes"/>
      <point x="572" y="532"/>
      <point x="576" y="517"/>
    </contour>
    <contour>
      <point x="203" y="502" type="curve" smooth="yes"/>
      <point x="150" y="502"/>
      <point x="117" y="451"/>
      <point x="117" y="388" type="curve" smooth="yes"/>
      <point x="117" y="330"/>
      <point x="151" y="276"/>
      <point x="203" y="276" type="curve" smooth="yes"/>
      <point x="260" y="276"/>
      <point x="288" y="331"/>
      <point x="288" y="389" type="curve" smooth="yes"/>
      <point x="288" y="451"/>
      <point x="253" y="502"/>
    </contour>
    <contour>
      <point x="612" y="272" type="curve" smooth="yes"/>
      <point x="559" y="272"/>
      <point x="526" y="221"/>
      <point x="526" y="158" type="curve" smooth="yes"/>
      <point x="526" y="100"/>
      <point x="560" y="46"/>
      <point x="612" y="46" type="curve" smooth="yes"/>
      <point x="669" y="46"/>
      <point x="697" y="101"/>
      <point x="697" y="159" type="curve" smooth="yes"/>
      <point x="697" y="221"/>
      <point x="662" y="272"/>
    </contour>
  </outline>
</glyph>
<glyph name="ampersand" format="1">
  <advance width="634"/>
  <unicode hex="0026"/>
  <outline>
    <contour>
      <point x="539" y="274" type="curve" smooth="yes"/>
      <point x="453" y="152" type="line" smooth="yes"/>
      <point x="372" y="37"/>
      <point x="312" y="2"/>
      <point x="233" y="2" type="curve" smooth="yes"/>
      <point x="134" y="2"/>
      <point x="69" y="65"/>
      <point x="69" y="143" type="curve" smooth="yes"/>
      <point x="69" y="214"/>
      <point x="100" y="273"/>
      <point x="263" y="340" type="curve" smooth="yes"/>
      <point x="314" y="361"/>
      <point x="341" y="390"/>
      <point x="341" y="429" type="curve" smooth="yes"/>
      <point x="341" y="471"/>
      <point x="304" y="502"/>
      <point x="258" y="502" type="curve" smooth="yes"/>
      <point x="213" y="502"/>
      <point x="178" y="472"/>
      <point x="178" y="425" type="curve" smooth="yes"/>
      <point x="178" y="376"/>
      <point x="217" y="341"/>
      <point x="269" y="295" type="curve" smooth="yes"/>
      <point x="550" y="50" type="line" smooth="yes"/>
      <point x="559" y="42"/>
      <point x="560" y="27"/>
      <point x="552" y="18" type="curve" smooth="yes"/>
      <point x="544" y="9"/>
      <point x="529" y="8"/>
      <point x="520" y="16" type="curve" smooth="yes"/>
      <point x="239" y="261" type="line" smooth="yes"/>
      <point x="173" y="319"/>
      <point x="132" y="366"/>
      <point x="132" y="425" type="curve" smooth="yes"/>
      <point x="132" y="498"/>
      <point x="185" y="548"/>
      <point x="258" y="548" type="curve" smooth="yes"/>
      <point x="332" y="548"/>
      <point x="387" y="495"/>
      <point x="387" y="429" type="curve" smooth="yes"/>
      <point x="387" y="374"/>
      <point x="356" y="329"/>
      <point x="281" y="298" type="curve" smooth="yes"/>
      <point x="152" y="245"/>
      <point x="115" y="202"/>
      <point x="115" y="143" type="curve" smooth="yes"/>
      <point x="115" y="87"/>
      <point x="166" y="48"/>
      <point x="233" y="48" type="curve" smooth="yes"/>
      <point x="300" y="48"/>
      <point x="348" y="83"/>
      <point x="415" y="178" type="curve" smooth="yes"/>
      <point x="501" y="300" type="line" smooth="yes"/>
      <point x="508" y="310"/>
      <point x="523" y="313"/>
      <point x="533" y="306" type="curve" smooth="yes"/>
      <point x="543" y="299"/>
      <point x="546" y="284"/>
    </contour>
  </outline>
</glyph>
<glyph name="quotesingle" format="1">
  <advance width="245"/>
  <unicode hex="0027"/>
  <outline>
    <contour>
      <point x="160" y="573" type="curve" smooth="yes"/>
      <point x="120" y="397" type="line" smooth="yes"/>
      <point x="118" y="385"/>
      <point x="105" y="377"/>
      <point x="93" y="380" type="curve" smooth="yes"/>
      <point x="81" y="382"/>
      <point x="73" y="395"/>
      <point x="76" y="407" type="curve" smooth="yes"/>
      <point x="116" y="583" type="line" smooth="yes"/>
      <point x="118" y="595"/>
      <point x="131" y="603"/>
      <point x="143" y="600" type="curve" smooth="yes"/>
      <point x="155" y="598"/>
      <point x="163" y="585"/>
    </contour>
  </outline>
</glyph>
<glyph name="parenleft" format="1">
  <advance width="315"/>
  <unicode hex="0028"/>
  <outline>
    <contour>
      <point x="250" y="588" type="curve" smooth="yes"/>
      <point x="178" y="508"/>
      <point x="120" y="387"/>
      <point x="120" y="259" type="curve" smooth="yes"/>
      <point x="120" y="133"/>
      <point x="174" y="18"/>
      <point x="250" y="-60" type="curve" smooth="yes"/>
      <point x="258" y="-69"/>
      <point x="258" y="-84"/>
      <point x="249" y="-93" type="curve" smooth="yes"/>
      <point x="240" y="-101"/>
      <point x="225" y="-101"/>
      <point x="216" y="-92" type="curve" smooth="yes"/>
      <point x="134" y="-6"/>
      <point x="74" y="121"/>
      <point x="74" y="259" type="curve" smooth="yes"/>
      <point x="74" y="399"/>
      <point x="138" y="532"/>
      <point x="216" y="618" type="curve" smooth="yes"/>
      <point x="224" y="628"/>
      <point x="239" y="628"/>
      <point x="248" y="620" type="curve" smooth="yes"/>
      <point x="258" y="612"/>
      <point x="258" y="597"/>
    </contour>
  </outline>
</glyph>
<glyph name="asterisk" format="1">
  <advance width="431"/>
  <unicode hex="002A"/>
  <outline>
    <contour>
      <point x="235" y="538" type="curve" smooth="yes"/>
      <point x="235" y="290" type="line" smooth="yes"/>
      <point x="235" y="279"/>
      <point x="226" y="270"/>
      <point x="215" y="270" type="curve" smooth="yes"/>
      <point x="204" y="270"/>
      <point x="195" y="279"/>
      <point x="195" y="290" type="curve" smooth="yes"/>
      <point x="195" y="538" type="line" smooth="yes"/>
      <point x="195" y="549"/>
      <point x="204" y="558"/>
      <point x="215" y="558" type="curve" smooth="yes"/>
      <point x="226" y="558"/>
      <point x="235" y="549"/>
    </contour>
    <contour>
      <point x="109" y="497" type="curve" smooth="yes"/>
      <point x="342" y="361" type="line" smooth="yes"/>
      <point x="351" y="356"/>
      <point x="355" y="343"/>
      <point x="349" y="334" type="curve" smooth="yes"/>
      <point x="344" y="325"/>
      <point x="331" y="321"/>
      <point x="322" y="327" type="curve" smooth="yes"/>
      <point x="89" y="463" type="line" smooth="yes"/>
      <point x="80" y="468"/>
      <point x="76" y="481"/>
      <point x="82" y="490" type="curve" smooth="yes"/>
      <point x="87" y="499"/>
      <point x="100" y="503"/>
    </contour>
    <contour>
      <point x="89" y="361" type="curve" smooth="yes"/>
      <point x="322" y="497" type="line" smooth="yes"/>
      <point x="331" y="503"/>
      <point x="344" y="499"/>
      <point x="349" y="490" type="curve" smooth="yes"/>
      <point x="355" y="481"/>
      <point x="351" y="468"/>
      <point x="342" y="463" type="curve" smooth="yes"/>
      <point x="109" y="327" type="line" smooth="yes"/>
      <point x="100" y="321"/>
      <point x="87" y="325"/>
      <point x="82" y="334" type="curve" smooth="yes"/>
      <point x="76" y="343"/>
      <point x="80" y="356"/>
    </contour>
  </outline>
</glyph>
<glyph name="plus" format="1">
  <advance width="530"/>
  <unicode hex="002B"/>
  <outline>
    <contour>
      <point x="96" y="297" type="curve" smooth="yes"/>
      <point x="433" y="297" type="line" smooth="yes"/>
      <point x="445" y="297"/>
      <point x="456" y="286"/>
      <point x="456" y="274" type="curve" smooth="yes"/>
      <point x="456" y="262"/>
      <point x="445" y="251"/>
      <point x="433" y="251" type="curve" smooth="yes"/>
      <point x="96" y="251" type="line" smooth="yes"/>
      <point x="84" y="251"/>
      <point x="73" y="262"/>
      <point x="73" y="274" type="curve" smooth="yes"/>
      <point x="73" y="286"/>
      <point x="84" y="297"/>
    </contour>
    <contour>
      <point x="242" y="110" type="curve" smooth="yes"/>
      <point x="242" y="437" type="line" smooth="yes"/>
      <point x="242" y="449"/>
      <point x="253" y="460"/>
      <point x="265" y="460" type="curve" smooth="yes"/>
      <point x="277" y="460"/>
      <point x="288" y="449"/>
      <point x="288" y="437" type="curve" smooth="yes"/>
      <point x="288" y="110" type="line" smooth="yes"/>
      <point x="288" y="98"/>
      <point x="277" y="87"/>
      <point x="265" y="87" type="curve" smooth="yes"/>
      <point x="253" y="87"/>
      <point x="242" y="98"/>
    </contour>
  </outline>
</glyph>
<glyph name="comma" format="1">
  <advance width="230"/>
  <unicode hex="002C"/>
  <outline>
    <contour>
      <point x="132" y="84" type="curve" smooth="yes"/>
      <point x="136" y="70"/>
      <point x="139" y="50"/>
      <point x="139" y="28" type="curve" smooth="yes"/>
      <point x="139" y="-23"/>
      <point x="121" y="-74"/>
      <point x="92" y="-113" type="curve" smooth="yes"/>
      <point x="85" y="-123"/>
      <point x="70" y="-125"/>
      <point x="60" y="-117" type="curve" smooth="yes"/>
      <point x="50" y="-110"/>
      <point x="48" y="-95"/>
      <point x="56" y="-85" type="curve" smooth="yes"/>
      <point x="79" y="-54"/>
      <point x="93" y="-13"/>
      <point x="93" y="28" type="curve" smooth="yes"/>
      <point x="93" y="44"/>
      <point x="92" y="60"/>
      <point x="88" y="70" type="curve" smooth="yes"/>
      <point x="84" y="82"/>
      <point x="91" y="95"/>
      <point x="103" y="99" type="curve" smooth="yes"/>
      <point x="115" y="103"/>
      <point x="128" y="96"/>
    </contour>
  </outline>
</glyph>
<glyph name="hyphen" format="1">
  <advance width="420"/>
  <unicode hex="002D"/>
  <outline>
    <contour>
      <point x="109" y="241" type="curve" smooth="yes"/>
      <point x="311" y="241" type="line" smooth="yes"/>
      <point x="323" y="241"/>
      <point x="334" y="230"/>
      <point x="334" y="218" type="curve" smooth="yes"/>
      <point x="334" y="206"/>
      <point x="323" y="195"/>
      <point x="311" y="195" type="curve" smooth="yes"/>
      <point x="109" y="195" type="line" smooth="yes"/>
      <point x="97" y="195"/>
      <point x="86" y="206"/>
      <point x="86" y="218" type="curve" smooth="yes"/>
      <point x="86" y="230"/>
      <point x="97" y="241"/>
    </contour>
  </outline>
</glyph>
<glyph name="period" format="1">
  <advance width="225"/>
  <unicode hex="002E"/>
  <outline>
    <contour>
      <point x="113" y="99" type="curve" smooth="yes"/>
      <point x="138" y="99"/>
      <point x="157" y="76"/>
      <point x="157" y="47" type="curve" smooth="yes"/>
      <point x="157" y="10"/>
      <point x="139" y="-5"/>
      <point x="114" y="-5" type="curve" smooth="yes"/>
      <point x="92" y="-5"/>
      <point x="70" y="11"/>
      <point x="70" y="47" type="curve" smooth="yes"/>
      <point x="70" y="77"/>
      <point x="86" y="99"/>
    </contour>
    <contour>
      <point x="113" y="53" type="curve" smooth="yes"/>
      <point x="110" y="53"/>
      <point x="116" y="45"/>
      <point x="116" y="47" type="curve" smooth="yes"/>
      <point x="116" y="49"/>
      <point x="112" y="41"/>
      <point x="114" y="41" type="curve" smooth="yes"/>
      <point x="117" y="41"/>
      <point x="111" y="50"/>
      <point x="111" y="47" type="curve" smooth="yes"/>
      <point x="111" y="46"/>
      <point x="116" y="53"/>
    </contour>
  </outline>
</glyph>
<glyph name="slash" format="1">
  <advance width="395"/>
  <unicode hex="002F"/>
  <outline>
    <contour>
      <point x="341" y="595" type="curve" smooth="yes"/>
      <point x="92" y="-85" type="line" smooth="yes"/>
      <point x="87" y="-97"/>
      <point x="74" y="-103"/>
      <point x="62" y="-99" type="curve" smooth="yes"/>
      <point x="50" y="-94"/>
      <point x="44" y="-81"/>
      <point x="48" y="-69" type="curve" smooth="yes"/>
      <point x="297" y="611" type="line" smooth="yes"/>
      <point x="302" y="623"/>
      <point x="315" y="629"/>
      <point x="327" y="625" type="curve" smooth="yes"/>
      <point x="339" y="620"/>
      <point x="345" y="607"/>
    </contour>
  </outline>
</glyph>
<glyph name="zero" format="1">
  <advance width="566"/>
  <unicode hex="0030"/>
  <outline>
    <contour>
      <point x="284" y="549" type="curve" smooth="yes"/>
      <point x="403" y="549"/>
      <point x="504" y="439"/>
      <point x="504" y="277" type="curve" smooth="yes"/>
      <point x="504" y="124"/>
      <point x="422" y="2"/>
      <point x="284" y="2" type="curve" smooth="yes"/>
      <point x="157" y="2"/>
      <point x="61" y="124"/>
      <point x="61" y="275" type="curve"/>
      <point x="61" y="439"/>
      <point x="155" y="549"/>
    </contour>
    <contour>
      <point x="284" y="503" type="curve" smooth="yes"/>
      <point x="177" y="503"/>
      <point x="107" y="405"/>
      <point x="107" y="275" type="curve" smooth="yes"/>
      <point x="107" y="156"/>
      <point x="179" y="48"/>
      <point x="284" y="48" type="curve" smooth="yes"/>
      <point x="399" y="48"/>
      <point x="458" y="156"/>
      <point x="458" y="277" type="curve" smooth="yes"/>
      <point x="458" y="405"/>
      <point x="383" y="503"/>
    </contour>
  </outline>
</glyph>
<glyph name="one" format="1">
  <advance width="328"/>
  <unicode hex="0031"/>
  <outline>
    <contour>
      <point x="228" y="511" type="curve" smooth="yes"/>
      <point x="228" y="33" type="line" smooth="yes"/>
      <point x="228" y="21"/>
      <point x="217" y="10"/>
      <point x="205" y="10" type="curve" smooth="yes"/>
      <point x="193" y="10"/>
      <point x="182" y="21"/>
      <point x="182" y="33" type="curve" smooth="yes"/>
      <point x="182" y="511" type="line" smooth="yes"/>
      <point x="182" y="523"/>
      <point x="193" y="534"/>
      <point x="205" y="534" type="curve" smooth="yes"/>
      <point x="217" y="534"/>
      <point x="228" y="523"/>
    </contour>
    <contour>
      <point x="216" y="498" type="curve" smooth="yes"/>
      <point x="86" y="427" type="line" smooth="yes"/>
      <point x="75" y="421"/>
      <point x="61" y="425"/>
      <point x="55" y="436" type="curve" smooth="yes"/>
      <point x="49" y="447"/>
      <point x="53" y="461"/>
      <point x="64" y="467" type="curve" smooth="yes"/>
      <point x="194" y="538" type="line" smooth="yes"/>
      <point x="205" y="544"/>
      <point x="219" y="540"/>
      <point x="225" y="529" type="curve" smooth="yes"/>
      <point x="231" y="518"/>
      <point x="227" y="504"/>
    </contour>
  </outline>
</glyph>
<glyph name="two" format="1">
  <advance width="508"/>
  <unicode hex="0032"/>
  <outline>
    <contour>
      <point x="70" y="59" type="curve" smooth="yes"/>
      <point x="236" y="218" type="line" smooth="yes"/>
      <point x="337" y="313"/>
      <point x="372" y="355"/>
      <point x="372" y="413" type="curve" smooth="yes"/>
      <point x="372" y="461"/>
      <point x="331" y="504"/>
      <point x="258" y="504" type="curve" smooth="yes"/>
      <point x="210" y="504"/>
      <point x="162" y="490"/>
      <point x="119" y="463" type="curve" smooth="yes"/>
      <point x="109" y="457"/>
      <point x="94" y="460"/>
      <point x="87" y="471" type="curve" smooth="yes"/>
      <point x="81" y="481"/>
      <point x="84" y="496"/>
      <point x="95" y="503" type="curve" smooth="yes"/>
      <point x="146" y="534"/>
      <point x="202" y="550"/>
      <point x="258" y="550" type="curve" smooth="yes"/>
      <point x="369" y="550"/>
      <point x="418" y="481"/>
      <point x="418" y="413" type="curve" smooth="yes"/>
      <point x="418" y="347"/>
      <point x="385" y="297"/>
      <point x="268" y="184" type="curve" smooth="yes"/>
      <point x="102" y="25" type="line" smooth="yes"/>
      <point x="93" y="17"/>
      <point x="78" y="17"/>
      <point x="69" y="26" type="curve" smooth="yes"/>
      <point x="61" y="35"/>
      <point x="61" y="50"/>
    </contour>
    <contour>
      <point x="428" y="10" type="curve" smooth="yes"/>
      <point x="76" y="10" type="line" smooth="yes"/>
      <point x="64" y="10"/>
      <point x="53" y="21"/>
      <point x="53" y="33" type="curve" smooth="yes"/>
      <point x="53" y="45"/>
      <point x="64" y="56"/>
      <point x="76" y="56" type="curve" smooth="yes"/>
      <point x="428" y="56" type="line" smooth="yes"/>
      <point x="440" y="56"/>
      <point x="451" y="45"/>
      <point x="451" y="33" type="curve" smooth="yes"/>
      <point x="451" y="21"/>
      <point x="440" y="10"/>
    </contour>
  </outline>
</glyph>
<glyph name="three" format="1">
  <advance width="512"/>
  <unicode hex="0033"/>
  <outline>
    <contour>
      <point x="115" y="541" type="curve" smooth="yes"/>
      <point x="412" y="541" type="line" smooth="yes"/>
      <point x="424" y="541"/>
      <point x="435" y="530"/>
      <point x="435" y="518" type="curve" smooth="yes"/>
      <point x="435" y="506"/>
      <point x="424" y="495"/>
      <point x="412" y="495" type="curve" smooth="yes"/>
      <point x="115" y="495" type="line" smooth="yes"/>
      <point x="103" y="495"/>
      <point x="92" y="506"/>
      <point x="92" y="518" type="curve" smooth="yes"/>
      <point x="92" y="530"/>
      <point x="103" y="541"/>
    </contour>
    <contour>
      <point x="107" y="81" type="curve" smooth="yes"/>
      <point x="147" y="64"/>
      <point x="197" y="52"/>
      <point x="255" y="52" type="curve" smooth="yes"/>
      <point x="351" y="52"/>
      <point x="404" y="97"/>
      <point x="404" y="165" type="curve" smooth="yes"/>
      <point x="404" y="231"/>
      <point x="349" y="272"/>
      <point x="266" y="272" type="curve" smooth="yes"/>
      <point x="222" y="272"/>
      <point x="187" y="265"/>
      <point x="166" y="258" type="curve" smooth="yes"/>
      <point x="154" y="254"/>
      <point x="141" y="261"/>
      <point x="137" y="273" type="curve" smooth="yes"/>
      <point x="133" y="285"/>
      <point x="140" y="298"/>
      <point x="152" y="302" type="curve" smooth="yes"/>
      <point x="175" y="309"/>
      <point x="216" y="318"/>
      <point x="266" y="318" type="curve" smooth="yes"/>
      <point x="385" y="318"/>
      <point x="450" y="253"/>
      <point x="450" y="165" type="curve" smooth="yes"/>
      <point x="450" y="77"/>
      <point x="391" y="6"/>
      <point x="255" y="6" type="curve" smooth="yes"/>
      <point x="189" y="6"/>
      <point x="133" y="20"/>
      <point x="89" y="39" type="curve" smooth="yes"/>
      <point x="78" y="44"/>
      <point x="72" y="58"/>
      <point x="77" y="69" type="curve" smooth="yes"/>
      <point x="82" y="80"/>
      <point x="96" y="86"/>
    </contour>
    <contour>
      <point x="419" y="493" type="curve" smooth="yes"/>
      <point x="180" y="267" type="line" smooth="yes"/>
      <point x="171" y="259"/>
      <point x="156" y="259"/>
      <point x="147" y="268" type="curve" smooth="yes"/>
      <point x="139" y="277"/>
      <point x="139" y="292"/>
      <point x="148" y="301" type="curve" smooth="yes"/>
      <point x="387" y="527" type="line" smooth="yes"/>
      <point x="396" y="535"/>
      <point x="411" y="535"/>
      <point x="420" y="526" type="curve" smooth="yes"/>
      <point x="428" y="517"/>
      <point x="428" y="502"/>
    </contour>
  </outline>
</glyph>
<glyph name="four" format="1">
  <advance width="531"/>
  <unicode hex="0034"/>
  <outline>
    <contour>
      <point x="390" y="518" type="curve" smooth="yes"/>
      <point x="390" y="23" type="line" smooth="yes"/>
      <point x="390" y="11"/>
      <point x="379" y="0"/>
      <point x="367" y="0" type="curve" smooth="yes"/>
      <point x="355" y="0"/>
      <point x="344" y="11"/>
      <point x="344" y="23" type="curve" smooth="yes"/>
      <point x="344" y="518" type="line" smooth="yes"/>
      <point x="344" y="530"/>
      <point x="355" y="541"/>
      <point x="367" y="541" type="curve" smooth="yes"/>
      <point x="379" y="541"/>
      <point x="390" y="530"/>
    </contour>
    <contour>
      <point x="378" y="494" type="curve" smooth="yes"/>
      <point x="79" y="132" type="line" smooth="yes"/>
      <point x="71" y="123"/>
      <point x="56" y="121"/>
      <point x="46" y="129" type="curve" smooth="yes"/>
      <point x="37" y="137"/>
      <point x="35" y="152"/>
      <point x="43" y="162" type="curve" smooth="yes"/>
      <point x="342" y="524" type="line" smooth="yes"/>
      <point x="350" y="533"/>
      <point x="365" y="535"/>
      <point x="375" y="527" type="curve" smooth="yes"/>
      <point x="384" y="519"/>
      <point x="386" y="504"/>
    </contour>
    <contour>
      <point x="71" y="170" type="curve" smooth="yes"/>
      <point x="475" y="170" type="line" smooth="yes"/>
      <point x="487" y="170"/>
      <point x="498" y="159"/>
      <point x="498" y="147" type="curve" smooth="yes"/>
      <point x="498" y="135"/>
      <point x="487" y="124"/>
      <point x="475" y="124" type="curve" smooth="yes"/>
      <point x="71" y="124" type="line" smooth="yes"/>
      <point x="59" y="124"/>
      <point x="48" y="135"/>
      <point x="48" y="147" type="curve" smooth="yes"/>
      <point x="48" y="159"/>
      <point x="59" y="170"/>
    </contour>
  </outline>
</glyph>
<glyph name="five" format="1">
  <advance width="521"/>
  <unicode hex="0035"/>
  <outline>
    <contour>
      <point x="144" y="541" type="curve" smooth="yes"/>
      <point x="401" y="541" type="line" smooth="yes"/>
      <point x="413" y="541"/>
      <point x="424" y="530"/>
      <point x="424" y="518" type="curve" smooth="yes"/>
      <point x="424" y="506"/>
      <point x="413" y="495"/>
      <point x="401" y="495" type="curve" smooth="yes"/>
      <point x="144" y="495" type="line" smooth="yes"/>
      <point x="132" y="495"/>
      <point x="121" y="506"/>
      <point x="121" y="518" type="curve" smooth="yes"/>
      <point x="121" y="530"/>
      <point x="132" y="541"/>
    </contour>
    <contour>
      <point x="106" y="85" type="curve" smooth="yes"/>
      <point x="146" y="66"/>
      <point x="204" y="52"/>
      <point x="266" y="52" type="curve" smooth="yes"/>
      <point x="362" y="52"/>
      <point x="409" y="106"/>
      <point x="409" y="177" type="curve" smooth="yes"/>
      <point x="409" y="244"/>
      <point x="354" y="290"/>
      <point x="270" y="290" type="curve" smooth="yes"/>
      <point x="208" y="290"/>
      <point x="164" y="274"/>
      <point x="134" y="260" type="curve" smooth="yes"/>
      <point x="123" y="255"/>
      <point x="108" y="260"/>
      <point x="103" y="271" type="curve" smooth="yes"/>
      <point x="98" y="282"/>
      <point x="103" y="297"/>
      <point x="114" y="302" type="curve" smooth="yes"/>
      <point x="148" y="318"/>
      <point x="200" y="336"/>
      <point x="270" y="336" type="curve" smooth="yes"/>
      <point x="388" y="336"/>
      <point x="455" y="266"/>
      <point x="455" y="177" type="curve" smooth="yes"/>
      <point x="455" y="83"/>
      <point x="398" y="6"/>
      <point x="266" y="6" type="curve" smooth="yes"/>
      <point x="196" y="6"/>
      <point x="132" y="22"/>
      <point x="86" y="43" type="curve" smooth="yes"/>
      <point x="75" y="48"/>
      <point x="70" y="62"/>
      <point x="75" y="74" type="curve" smooth="yes"/>
      <point x="80" y="85"/>
      <point x="94" y="90"/>
    </contour>
    <contour>
      <point x="166" y="509" type="curve" smooth="yes"/>
      <point x="147" y="284" type="line" smooth="yes"/>
      <point x="146" y="272"/>
      <point x="134" y="262"/>
      <point x="122" y="263" type="curve" smooth="yes"/>
      <point x="110" y="264"/>
      <point x="100" y="276"/>
      <point x="101" y="288" type="curve" smooth="yes"/>
      <point x="120" y="513" type="line" smooth="yes"/>
      <point x="121" y="525"/>
      <point x="133" y="535"/>
      <point x="145" y="534" type="curve" smooth="yes"/>
      <point x="157" y="533"/>
      <point x="167" y="521"/>
    </contour>
  </outline>
</glyph>
<glyph name="six" format="1">
  <advance width="539"/>
  <unicode hex="0036"/>
  <outline>
    <contour>
      <point x="381" y="491" type="curve" smooth="yes"/>
      <point x="356" y="499"/>
      <point x="336" y="504"/>
      <point x="306" y="504" type="curve" smooth="yes"/>
      <point x="186" y="504"/>
      <point x="118" y="407"/>
      <point x="118" y="259" type="curve" smooth="yes"/>
      <point x="118" y="125"/>
      <point x="184" y="52"/>
      <point x="285" y="52" type="curve" smooth="yes"/>
      <point x="386" y="52"/>
      <point x="429" y="117"/>
      <point x="429" y="181" type="curve" smooth="yes"/>
      <point x="429" y="250"/>
      <point x="378" y="296"/>
      <point x="305" y="296" type="curve" smooth="yes"/>
      <point x="224" y="296"/>
      <point x="160" y="240"/>
      <point x="133" y="144" type="curve" smooth="yes"/>
      <point x="130" y="132"/>
      <point x="117" y="125"/>
      <point x="105" y="128" type="curve" smooth="yes"/>
      <point x="93" y="131"/>
      <point x="86" y="144"/>
      <point x="89" y="156" type="curve" smooth="yes"/>
      <point x="122" y="276"/>
      <point x="206" y="342"/>
      <point x="305" y="342" type="curve" smooth="yes"/>
      <point x="407" y="342"/>
      <point x="475" y="276"/>
      <point x="475" y="181" type="curve" smooth="yes"/>
      <point x="475" y="97"/>
      <point x="422" y="6"/>
      <point x="285" y="6" type="curve" smooth="yes"/>
      <point x="162" y="6"/>
      <point x="72" y="87"/>
      <point x="72" y="259" type="curve" smooth="yes"/>
      <point x="72" y="443"/>
      <point x="164" y="550"/>
      <point x="306" y="550" type="curve" smooth="yes"/>
      <point x="342" y="550"/>
      <point x="366" y="545"/>
      <point x="395" y="535" type="curve" smooth="yes"/>
      <point x="407" y="531"/>
      <point x="414" y="518"/>
      <point x="410" y="506" type="curve" smooth="yes"/>
      <point x="406" y="494"/>
      <point x="393" y="487"/>
    </contour>
  </outline>
</glyph>
<glyph name="seven" format="1">
  <advance width="466"/>
  <unicode hex="0037"/>
  <outline>
    <contour>
      <point x="431" y="506" type="curve" smooth="yes"/>
      <point x="393" y="435"/>
      <point x="290" y="296"/>
      <point x="261" y="245" type="curve" smooth="yes"/>
      <point x="236" y="199"/>
      <point x="215" y="143"/>
      <point x="215" y="88" type="curve" smooth="yes"/>
      <point x="215" y="33" type="line" smooth="yes"/>
      <point x="215" y="21"/>
      <point x="204" y="10"/>
      <point x="192" y="10" type="curve" smooth="yes"/>
      <point x="180" y="10"/>
      <point x="169" y="21"/>
      <point x="169" y="33" type="curve" smooth="yes"/>
      <point x="169" y="88" type="line" smooth="yes"/>
      <point x="169" y="151"/>
      <point x="192" y="215"/>
      <point x="221" y="267" type="curve" smooth="yes"/>
      <point x="250" y="318"/>
      <point x="353" y="457"/>
      <point x="391" y="528" type="curve" smooth="yes"/>
      <point x="397" y="539"/>
      <point x="411" y="543"/>
      <point x="422" y="537" type="curve" smooth="yes"/>
      <point x="433" y="531"/>
      <point x="437" y="517"/>
    </contour>
    <contour>
      <point x="404" y="495" type="curve" smooth="yes"/>
      <point x="61" y="495" type="line" smooth="yes"/>
      <point x="49" y="495"/>
      <point x="38" y="506"/>
      <point x="38" y="518" type="curve" smooth="yes"/>
      <point x="38" y="530"/>
      <point x="49" y="541"/>
      <point x="61" y="541" type="curve" smooth="yes"/>
      <point x="404" y="541" type="line" smooth="yes"/>
      <point x="416" y="541"/>
      <point x="427" y="530"/>
      <point x="427" y="518" type="curve" smooth="yes"/>
      <point x="427" y="506"/>
      <point x="416" y="495"/>
    </contour>
  </outline>
</glyph>
<glyph name="eight" format="1">
  <advance width="558"/>
  <unicode hex="0038"/>
  <outline>
    <contour>
      <point x="280" y="318" type="curve" smooth="yes"/>
      <point x="410" y="318"/>
      <point x="486" y="251"/>
      <point x="486" y="160" type="curve" smooth="yes"/>
      <point x="486" y="77"/>
      <point x="434" y="2"/>
      <point x="280" y="2" type="curve" smooth="yes"/>
      <point x="135" y="2"/>
      <point x="72" y="77"/>
      <point x="72" y="159" type="curve" smooth="yes"/>
      <point x="72" y="251"/>
      <point x="142" y="318"/>
    </contour>
    <contour>
      <point x="280" y="548" type="curve" smooth="yes"/>
      <point x="396" y="548"/>
      <point x="460" y="491"/>
      <point x="460" y="412" type="curve" smooth="yes"/>
      <point x="460" y="337"/>
      <point x="406" y="272"/>
      <point x="280" y="272" type="curve" smooth="yes"/>
      <point x="148" y="272"/>
      <point x="98" y="338"/>
      <point x="98" y="412" type="curve" smooth="yes"/>
      <point x="98" y="491"/>
      <point x="158" y="548"/>
    </contour>
    <contour>
      <point x="280" y="272" type="curve" smooth="yes"/>
      <point x="182" y="272"/>
      <point x="118" y="231"/>
      <point x="118" y="159" type="curve" smooth="yes"/>
      <point x="118" y="95"/>
      <point x="177" y="48"/>
      <point x="280" y="48" type="curve" smooth="yes"/>
      <point x="390" y="48"/>
      <point x="440" y="95"/>
      <point x="440" y="160" type="curve" smooth="yes"/>
      <point x="440" y="231"/>
      <point x="372" y="272"/>
    </contour>
    <contour>
      <point x="280" y="502" type="curve" smooth="yes"/>
      <point x="200" y="502"/>
      <point x="144" y="471"/>
      <point x="144" y="412" type="curve" smooth="yes"/>
      <point x="144" y="356"/>
      <point x="192" y="318"/>
      <point x="280" y="318" type="curve" smooth="yes"/>
      <point x="364" y="318"/>
      <point x="414" y="357"/>
      <point x="414" y="412" type="curve" smooth="yes"/>
      <point x="414" y="471"/>
      <point x="356" y="502"/>
    </contour>
  </outline>
</glyph>
<glyph name="nine" format="1">
  <advance width="536"/>
  <unicode hex="0039"/>
  <outline>
    <contour>
      <point x="157" y="65" type="curve" smooth="yes"/>
      <point x="181" y="59"/>
      <point x="202" y="53"/>
      <point x="233" y="53" type="curve" smooth="yes"/>
      <point x="359" y="53"/>
      <point x="418" y="137"/>
      <point x="418" y="278" type="curve" smooth="yes"/>
      <point x="418" y="417"/>
      <point x="354" y="504"/>
      <point x="251" y="504" type="curve" smooth="yes"/>
      <point x="157" y="504"/>
      <point x="110" y="441"/>
      <point x="110" y="377" type="curve" smooth="yes"/>
      <point x="110" y="298"/>
      <point x="159" y="254"/>
      <point x="242" y="254" type="curve" smooth="yes"/>
      <point x="325" y="254"/>
      <point x="375" y="299"/>
      <point x="414" y="364" type="curve" smooth="yes"/>
      <point x="421" y="375"/>
      <point x="435" y="378"/>
      <point x="446" y="372" type="curve" smooth="yes"/>
      <point x="457" y="365"/>
      <point x="460" y="351"/>
      <point x="454" y="340" type="curve" smooth="yes"/>
      <point x="405" y="261"/>
      <point x="343" y="208"/>
      <point x="242" y="208" type="curve" smooth="yes"/>
      <point x="127" y="208"/>
      <point x="64" y="270"/>
      <point x="64" y="377" type="curve"/>
      <point x="64" y="461"/>
      <point x="123" y="550"/>
      <point x="251" y="550" type="curve" smooth="yes"/>
      <point x="376" y="550"/>
      <point x="464" y="455"/>
      <point x="464" y="278" type="curve" smooth="yes"/>
      <point x="464" y="103"/>
      <point x="385" y="7"/>
      <point x="233" y="7" type="curve" smooth="yes"/>
      <point x="198" y="7"/>
      <point x="173" y="13"/>
      <point x="145" y="21" type="curve" smooth="yes"/>
      <point x="133" y="24"/>
      <point x="126" y="37"/>
      <point x="129" y="49" type="curve" smooth="yes"/>
      <point x="132" y="61"/>
      <point x="145" y="68"/>
    </contour>
  </outline>
</glyph>
<glyph name="less" format="1">
  <advance width="530"/>
  <unicode hex="003C"/>
  <outline>
    <contour>
      <point x="95" y="288" type="curve" smooth="yes"/>
      <point x="405" y="428" type="line" smooth="yes"/>
      <point x="416" y="433"/>
      <point x="430" y="428"/>
      <point x="435" y="416" type="curve" smooth="yes"/>
      <point x="440" y="405"/>
      <point x="435" y="391"/>
      <point x="423" y="386" type="curve" smooth="yes"/>
      <point x="113" y="246" type="line" smooth="yes"/>
      <point x="102" y="241"/>
      <point x="88" y="246"/>
      <point x="83" y="258" type="curve" smooth="yes"/>
      <point x="78" y="269"/>
      <point x="83" y="283"/>
    </contour>
    <contour>
      <point x="411" y="96" type="curve" smooth="yes"/>
      <point x="89" y="242" type="line" smooth="yes"/>
      <point x="77" y="247"/>
      <point x="72" y="261"/>
      <point x="77" y="272" type="curve" smooth="yes"/>
      <point x="82" y="284"/>
      <point x="96" y="289"/>
      <point x="107" y="284" type="curve" smooth="yes"/>
      <point x="429" y="138" type="line" smooth="yes"/>
      <point x="441" y="133"/>
      <point x="446" y="119"/>
      <point x="441" y="108" type="curve" smooth="yes"/>
      <point x="436" y="96"/>
      <point x="422" y="91"/>
    </contour>
  </outline>
</glyph>
<glyph name="equal" format="1">
  <advance width="530"/>
  <unicode hex="003D"/>
  <outline>
    <contour>
      <point x="96" y="390" type="curve" smooth="yes"/>
      <point x="433" y="390" type="line" smooth="yes"/>
      <point x="445" y="390"/>
      <point x="456" y="379"/>
      <point x="456" y="367" type="curve" smooth="yes"/>
      <point x="456" y="355"/>
      <point x="445" y="344"/>
      <point x="433" y="344" type="curve" smooth="yes"/>
      <point x="96" y="344" type="line" smooth="yes"/>
      <point x="84" y="344"/>
      <point x="73" y="355"/>
      <point x="73" y="367" type="curve" smooth="yes"/>
      <point x="73" y="379"/>
      <point x="84" y="390"/>
    </contour>
    <contour>
      <point x="96" y="192" type="curve" smooth="yes"/>
      <point x="433" y="192" type="line" smooth="yes"/>
      <point x="445" y="192"/>
      <point x="456" y="181"/>
      <point x="456" y="169" type="curve" smooth="yes"/>
      <point x="456" y="157"/>
      <point x="445" y="146"/>
      <point x="433" y="146" type="curve" smooth="yes"/>
      <point x="96" y="146" type="line" smooth="yes"/>
      <point x="84" y="146"/>
      <point x="73" y="157"/>
      <point x="73" y="169" type="curve" smooth="yes"/>
      <point x="73" y="181"/>
      <point x="84" y="192"/>
    </contour>
  </outline>
</glyph>
<glyph name="question" format="1">
  <advance width="371"/>
  <unicode hex="003F"/>
  <outline>
    <contour>
      <point x="57" y="501" type="curve" smooth="yes"/>
      <point x="95" y="526"/>
      <point x="132" y="540"/>
      <point x="194" y="540" type="curve" smooth="yes"/>
      <point x="292" y="540"/>
      <point x="340" y="479"/>
      <point x="340" y="415" type="curve" smooth="yes"/>
      <point x="340" y="357"/>
      <point x="298" y="313"/>
      <point x="240" y="284" type="curve" smooth="yes"/>
      <point x="197" y="261"/>
      <point x="183" y="245"/>
      <point x="181" y="204" type="curve" smooth="yes"/>
      <point x="180" y="191"/>
      <point x="169" y="181"/>
      <point x="157" y="182" type="curve" smooth="yes"/>
      <point x="144" y="183"/>
      <point x="134" y="194"/>
      <point x="135" y="206" type="curve" smooth="yes"/>
      <point x="139" y="267"/>
      <point x="155" y="291"/>
      <point x="220" y="324" type="curve" smooth="yes"/>
      <point x="260" y="345"/>
      <point x="294" y="373"/>
      <point x="294" y="415" type="curve" smooth="yes"/>
      <point x="294" y="459"/>
      <point x="256" y="494"/>
      <point x="194" y="494" type="curve" smooth="yes"/>
      <point x="144" y="494"/>
      <point x="113" y="482"/>
      <point x="81" y="463" type="curve" smooth="yes"/>
      <point x="71" y="456"/>
      <point x="56" y="459"/>
      <point x="50" y="470" type="curve" smooth="yes"/>
      <point x="43" y="480"/>
      <point x="46" y="495"/>
    </contour>
    <component base="period" xOffset="50"/>
    <component base="period" xOffset="50"/>
  </outline>
</glyph>
<glyph name="at" format="1">
  <advance width="665"/>
  <unicode hex="0040"/>
  <outline>
    <contour>
      <point x="445" y="390" type="curve" smooth="yes"/>
      <point x="445" y="260" type="line" smooth="yes"/>
      <point x="445" y="216"/>
      <point x="470" y="186"/>
      <point x="504" y="186" type="curve" smooth="yes"/>
      <point x="545" y="186"/>
      <point x="568" y="228"/>
      <point x="568" y="285" type="curve" smooth="yes"/>
      <point x="568" y="400"/>
      <point x="482" y="505"/>
      <point x="336" y="505" type="curve" smooth="yes"/>
      <point x="199" y="505"/>
      <point x="99" y="399"/>
      <point x="99" y="271" type="curve" smooth="yes"/>
      <point x="99" y="143"/>
      <point x="197" y="46"/>
      <point x="339" y="46" type="curve" smooth="yes"/>
      <point x="397" y="46"/>
      <point x="446" y="59"/>
      <point x="483" y="75" type="curve" smooth="yes"/>
      <point x="494" y="80"/>
      <point x="508" y="75"/>
      <point x="513" y="63" type="curve" smooth="yes"/>
      <point x="518" y="52"/>
      <point x="513" y="38"/>
      <point x="501" y="33" type="curve" smooth="yes"/>
      <point x="460" y="15"/>
      <point x="405" y="0"/>
      <point x="339" y="0" type="curve" smooth="yes"/>
      <point x="169" y="0"/>
      <point x="53" y="119"/>
      <point x="53" y="271" type="curve"/>
      <point x="53" y="423"/>
      <point x="173" y="551"/>
      <point x="336" y="551" type="curve" smooth="yes"/>
      <point x="512" y="551"/>
      <point x="614" y="422"/>
      <point x="614" y="285" type="curve" smooth="yes"/>
      <point x="614" y="186"/>
      <point x="563" y="140"/>
      <point x="504" y="140" type="curve" smooth="yes"/>
      <point x="448" y="140"/>
      <point x="399" y="182"/>
      <point x="399" y="260" type="curve" smooth="yes"/>
      <point x="399" y="390" type="line" smooth="yes"/>
      <point x="399" y="402"/>
      <point x="410" y="413"/>
      <point x="422" y="413" type="curve" smooth="yes"/>
      <point x="434" y="413"/>
      <point x="445" y="402"/>
    </contour>
    <contour>
      <point x="409" y="344" type="curve" smooth="yes"/>
      <point x="387" y="358"/>
      <point x="363" y="367"/>
      <point x="331" y="367" type="curve" smooth="yes"/>
      <point x="282" y="367"/>
      <point x="243" y="328"/>
      <point x="243" y="267" type="curve" smooth="yes"/>
      <point x="243" y="218"/>
      <point x="276" y="187"/>
      <point x="313" y="187" type="curve" smooth="yes"/>
      <point x="346" y="187"/>
      <point x="378" y="207"/>
      <point x="401" y="247" type="curve" smooth="yes"/>
      <point x="407" y="257"/>
      <point x="422" y="261"/>
      <point x="433" y="255" type="curve" smooth="yes"/>
      <point x="443" y="249"/>
      <point x="447" y="234"/>
      <point x="441" y="223" type="curve" smooth="yes"/>
      <point x="408" y="167"/>
      <point x="360" y="141"/>
      <point x="313" y="141" type="curve" smooth="yes"/>
      <point x="254" y="141"/>
      <point x="197" y="186"/>
      <point x="197" y="267" type="curve" smooth="yes"/>
      <point x="197" y="360"/>
      <point x="260" y="413"/>
      <point x="331" y="413" type="curve" smooth="yes"/>
      <point x="373" y="413"/>
      <point x="405" y="402"/>
      <point x="435" y="382" type="curve" smooth="yes"/>
      <point x="445" y="375"/>
      <point x="448" y="361"/>
      <point x="441" y="350" type="curve" smooth="yes"/>
      <point x="434" y="340"/>
      <point x="420" y="337"/>
    </contour>
  </outline>
</glyph>
<glyph name="A" format="1">
  <advance width="564"/>
  <unicode hex="0041"/>
  <outline>
    <contour>
      <point x="294" y="518" type="curve" smooth="yes"/>
      <point x="226" y="365"/>
      <point x="132" y="151"/>
      <point x="87" y="25" type="curve" smooth="yes"/>
      <point x="82" y="14"/>
      <point x="69" y="7"/>
      <point x="57" y="11" type="curve" smooth="yes"/>
      <point x="46" y="16"/>
      <point x="39" y="29"/>
      <point x="43" y="41" type="curve" smooth="yes"/>
      <point x="88" y="167"/>
      <point x="184" y="383"/>
      <point x="252" y="536" type="curve" smooth="yes"/>
      <point x="257" y="548"/>
      <point x="271" y="553"/>
      <point x="282" y="548" type="curve" smooth="yes"/>
      <point x="294" y="543"/>
      <point x="299" y="529"/>
    </contour>
    <contour>
      <point x="300" y="537" type="curve" smooth="yes"/>
      <point x="372" y="382"/>
      <point x="470" y="165"/>
      <point x="518" y="41" type="curve" smooth="yes"/>
      <point x="523" y="30"/>
      <point x="517" y="16"/>
      <point x="505" y="12" type="curve" smooth="yes"/>
      <point x="494" y="7"/>
      <point x="480" y="13"/>
      <point x="476" y="25" type="curve" smooth="yes"/>
      <point x="428" y="147"/>
      <point x="330" y="364"/>
      <point x="258" y="517" type="curve" smooth="yes"/>
      <point x="253" y="529"/>
      <point x="258" y="543"/>
      <point x="269" y="548" type="curve" smooth="yes"/>
      <point x="281" y="553"/>
      <point x="295" y="548"/>
    </contour>
    <contour>
      <point x="134" y="201" type="curve" smooth="yes"/>
      <point x="425" y="201" type="line" smooth="yes"/>
      <point x="437" y="201"/>
      <point x="448" y="190"/>
      <point x="448" y="178" type="curve" smooth="yes"/>
      <point x="448" y="166"/>
      <point x="437" y="155"/>
      <point x="425" y="155" type="curve" smooth="yes"/>
      <point x="134" y="155" type="line" smooth="yes"/>
      <point x="122" y="155"/>
      <point x="111" y="166"/>
      <point x="111" y="178" type="curve" smooth="yes"/>
      <point x="111" y="190"/>
      <point x="122" y="201"/>
    </contour>
  </outline>
</glyph>
<glyph name="B" format="1">
  <advance width="524"/>
  <unicode hex="0042"/>
  <outline>
    <contour>
      <point x="132" y="306" type="curve" smooth="yes"/>
      <point x="281" y="306" type="line" smooth="yes"/>
      <point x="340" y="306"/>
      <point x="393" y="285"/>
      <point x="424" y="253" type="curve" smooth="yes"/>
      <point x="454" y="224"/>
      <point x="468" y="189"/>
      <point x="468" y="150" type="curve" smooth="yes"/>
      <point x="468" y="114"/>
      <point x="455" y="78"/>
      <point x="427" y="51" type="curve" smooth="yes"/>
      <point x="398" y="22"/>
      <point x="354" y="0"/>
      <point x="278" y="0" type="curve" smooth="yes"/>
      <point x="123" y="0" type="line" smooth="yes"/>
      <point x="110" y="0"/>
      <point x="100" y="10"/>
      <point x="100" y="23" type="curve" smooth="yes"/>
      <point x="100" y="508" type="line" smooth="yes"/>
      <point x="100" y="521"/>
      <point x="110" y="531"/>
      <point x="123" y="531" type="curve" smooth="yes"/>
      <point x="262" y="531" type="line" smooth="yes"/>
      <point x="320" y="531"/>
      <point x="359" y="512"/>
      <point x="383" y="487" type="curve" smooth="yes"/>
      <point x="405" y="465"/>
      <point x="420" y="429"/>
      <point x="420" y="397" type="curve" smooth="yes"/>
      <point x="420" y="362"/>
      <point x="405" y="328"/>
      <point x="383" y="306" type="curve" smooth="yes"/>
      <point x="362" y="285"/>
      <point x="322" y="264"/>
      <point x="275" y="260" type="curve" smooth="yes"/>
      <point x="262" y="259"/>
      <point x="251" y="269"/>
      <point x="250" y="281" type="curve" smooth="yes"/>
      <point x="249" y="294"/>
      <point x="259" y="305"/>
      <point x="271" y="306" type="curve" smooth="yes"/>
      <point x="306" y="308"/>
      <point x="336" y="323"/>
      <point x="351" y="338" type="curve" smooth="yes"/>
      <point x="365" y="352"/>
      <point x="374" y="374"/>
      <point x="374" y="397" type="curve" smooth="yes"/>
      <point x="374" y="417"/>
      <point x="365" y="441"/>
      <point x="351" y="455" type="curve" smooth="yes"/>
      <point x="333" y="472"/>
      <point x="304" y="485"/>
      <point x="262" y="485" type="curve" smooth="yes"/>
      <point x="123" y="485" type="line"/>
      <point x="146" y="508" type="line"/>
      <point x="146" y="23" type="line"/>
      <point x="123" y="46" type="line"/>
      <point x="278" y="46" type="line" smooth="yes"/>
      <point x="336" y="46"/>
      <point x="372" y="60"/>
      <point x="395" y="83" type="curve" smooth="yes"/>
      <point x="413" y="102"/>
      <point x="422" y="126"/>
      <point x="422" y="150" type="curve" smooth="yes"/>
      <point x="422" y="177"/>
      <point x="412" y="200"/>
      <point x="392" y="221" type="curve" smooth="yes"/>
      <point x="367" y="245"/>
      <point x="326" y="260"/>
      <point x="281" y="260" type="curve" smooth="yes"/>
      <point x="132" y="260" type="line" smooth="yes"/>
      <point x="120" y="260"/>
      <point x="109" y="271"/>
      <point x="109" y="283" type="curve" smooth="yes"/>
      <point x="109" y="295"/>
      <point x="120" y="306"/>
    </contour>
  </outline>
</glyph>
<glyph name="C" format="1">
  <advance width="566"/>
  <unicode hex="0043"/>
  <outline>
    <contour>
      <point x="459" y="468" type="curve" smooth="yes"/>
      <point x="429" y="484"/>
      <point x="383" y="494"/>
      <point x="334" y="494" type="curve" smooth="yes"/>
      <point x="213" y="494"/>
      <point x="109" y="401"/>
      <point x="109" y="262" type="curve" smooth="yes"/>
      <point x="109" y="135"/>
      <point x="194" y="37"/>
      <point x="340" y="37" type="curve" smooth="yes"/>
      <point x="388" y="37"/>
      <point x="430" y="47"/>
      <point x="464" y="64" type="curve" smooth="yes"/>
      <point x="476" y="70"/>
      <point x="490" y="66"/>
      <point x="495" y="55" type="curve" smooth="yes"/>
      <point x="501" y="43"/>
      <point x="497" y="29"/>
      <point x="486" y="24" type="curve" smooth="yes"/>
      <point x="446" y="3"/>
      <point x="396" y="-9"/>
      <point x="340" y="-9" type="curve" smooth="yes"/>
      <point x="164" y="-9"/>
      <point x="63" y="109"/>
      <point x="63" y="262" type="curve"/>
      <point x="63" y="429"/>
      <point x="189" y="540"/>
      <point x="334" y="540" type="curve" smooth="yes"/>
      <point x="391" y="540"/>
      <point x="445" y="528"/>
      <point x="481" y="508" type="curve" smooth="yes"/>
      <point x="492" y="502"/>
      <point x="496" y="488"/>
      <point x="490" y="477" type="curve" smooth="yes"/>
      <point x="484" y="466"/>
      <point x="470" y="462"/>
    </contour>
  </outline>
</glyph>
<glyph name="D" format="1">
  <advance width="607"/>
  <unicode hex="0044"/>
  <outline>
    <contour>
      <point x="299" y="0" type="curve" smooth="yes"/>
      <point x="123" y="0" type="line" smooth="yes"/>
      <point x="110" y="0"/>
      <point x="100" y="10"/>
      <point x="100" y="23" type="curve" smooth="yes"/>
      <point x="100" y="508" type="line" smooth="yes"/>
      <point x="100" y="521"/>
      <point x="110" y="531"/>
      <point x="123" y="531" type="curve" smooth="yes"/>
      <point x="299" y="531" type="line" smooth="yes"/>
      <point x="430" y="531"/>
      <point x="549" y="422"/>
      <point x="549" y="266" type="curve" smooth="yes"/>
      <point x="549" y="117"/>
      <point x="450" y="0"/>
    </contour>
    <contour>
      <point x="299" y="46" type="line" smooth="yes"/>
      <point x="424" y="46"/>
      <point x="503" y="145"/>
      <point x="503" y="266" type="curve" smooth="yes"/>
      <point x="503" y="394"/>
      <point x="408" y="485"/>
      <point x="299" y="485" type="curve" smooth="yes"/>
      <point x="123" y="485" type="line"/>
      <point x="146" y="508" type="line"/>
      <point x="146" y="23" type="line"/>
      <point x="123" y="46" type="line"/>
    </contour>
  </outline>
</glyph>
<glyph name="E" format="1">
  <advance width="485"/>
  <unicode hex="0045"/>
  <outline>
    <contour>
      <point x="146" y="518" type="curve" smooth="yes"/>
      <point x="146" y="33" type="line" smooth="yes"/>
      <point x="146" y="21"/>
      <point x="135" y="10"/>
      <point x="123" y="10" type="curve" smooth="yes"/>
      <point x="111" y="10"/>
      <point x="100" y="21"/>
      <point x="100" y="33" type="curve" smooth="yes"/>
      <point x="100" y="518" type="line" smooth="yes"/>
      <point x="100" y="530"/>
      <point x="111" y="541"/>
      <point x="123" y="541" type="curve" smooth="yes"/>
      <point x="135" y="541"/>
      <point x="146" y="530"/>
    </contour>
    <contour>
      <point x="131" y="56" type="curve" smooth="yes"/>
      <point x="402" y="56" type="line" smooth="yes"/>
      <point x="414" y="56"/>
      <point x="425" y="45"/>
      <point x="425" y="33" type="curve" smooth="yes"/>
      <point x="425" y="21"/>
      <point x="414" y="10"/>
      <point x="402" y="10" type="curve" smooth="yes"/>
      <point x="131" y="10" type="line" smooth="yes"/>
      <point x="119" y="10"/>
      <point x="108" y="21"/>
      <point x="108" y="33" type="curve" smooth="yes"/>
      <point x="108" y="45"/>
      <point x="119" y="56"/>
    </contour>
    <contour>
      <point x="131" y="541" type="curve" smooth="yes"/>
      <point x="400" y="541" type="line" smooth="yes"/>
      <point x="412" y="541"/>
      <point x="423" y="530"/>
      <point x="423" y="518" type="curve" smooth="yes"/>
      <point x="423" y="506"/>
      <point x="412" y="495"/>
      <point x="400" y="495" type="curve" smooth="yes"/>
      <point x="131" y="495" type="line" smooth="yes"/>
      <point x="119" y="495"/>
      <point x="108" y="506"/>
      <point x="108" y="518" type="curve" smooth="yes"/>
      <point x="108" y="530"/>
      <point x="119" y="541"/>
    </contour>
    <contour>
      <point x="131" y="317" type="curve" smooth="yes"/>
      <point x="357" y="317" type="line" smooth="yes"/>
      <point x="369" y="317"/>
      <point x="380" y="306"/>
      <point x="380" y="294" type="curve" smooth="yes"/>
      <point x="380" y="282"/>
      <point x="369" y="271"/>
      <point x="357" y="271" type="curve" smooth="yes"/>
      <point x="131" y="271" type="line" smooth="yes"/>
      <point x="119" y="271"/>
      <point x="108" y="282"/>
      <point x="108" y="294" type="curve" smooth="yes"/>
      <point x="108" y="306"/>
      <point x="119" y="317"/>
    </contour>
  </outline>
</glyph>
<glyph name="F" format="1">
  <advance width="475"/>
  <unicode hex="0046"/>
  <outline>
    <contour>
      <point x="146" y="508" type="curve" smooth="yes"/>
      <point x="146" y="23" type="line" smooth="yes"/>
      <point x="146" y="11"/>
      <point x="135" y="0"/>
      <point x="123" y="0" type="curve" smooth="yes"/>
      <point x="111" y="0"/>
      <point x="100" y="11"/>
      <point x="100" y="23" type="curve" smooth="yes"/>
      <point x="100" y="508" type="line" smooth="yes"/>
      <point x="100" y="520"/>
      <point x="111" y="531"/>
      <point x="123" y="531" type="curve" smooth="yes"/>
      <point x="135" y="531"/>
      <point x="146" y="520"/>
    </contour>
    <contour>
      <point x="131" y="531" type="curve" smooth="yes"/>
      <point x="408" y="531" type="line" smooth="yes"/>
      <point x="420" y="531"/>
      <point x="431" y="520"/>
      <point x="431" y="508" type="curve" smooth="yes"/>
      <point x="431" y="496"/>
      <point x="420" y="485"/>
      <point x="408" y="485" type="curve" smooth="yes"/>
      <point x="131" y="485" type="line" smooth="yes"/>
      <point x="119" y="485"/>
      <point x="108" y="496"/>
      <point x="108" y="508" type="curve" smooth="yes"/>
      <point x="108" y="520"/>
      <point x="119" y="531"/>
    </contour>
    <contour>
      <point x="131" y="288" type="curve" smooth="yes"/>
      <point x="357" y="288" type="line" smooth="yes"/>
      <point x="369" y="288"/>
      <point x="380" y="277"/>
      <point x="380" y="265" type="curve" smooth="yes"/>
      <point x="380" y="253"/>
      <point x="369" y="242"/>
      <point x="357" y="242" type="curve" smooth="yes"/>
      <point x="131" y="242" type="line" smooth="yes"/>
      <point x="119" y="242"/>
      <point x="108" y="253"/>
      <point x="108" y="265" type="curve" smooth="yes"/>
      <point x="108" y="277"/>
      <point x="119" y="288"/>
    </contour>
  </outline>
</glyph>
<glyph name="G" format="1">
  <advance width="608"/>
  <unicode hex="0047"/>
  <outline>
    <contour>
      <point x="468" y="469" type="curve" smooth="yes"/>
      <point x="428" y="484"/>
      <point x="383" y="494"/>
      <point x="330" y="494" type="curve" smooth="yes"/>
      <point x="199" y="494"/>
      <point x="104" y="401"/>
      <point x="104" y="262" type="curve" smooth="yes"/>
      <point x="104" y="137"/>
      <point x="185" y="37"/>
      <point x="327" y="37" type="curve" smooth="yes"/>
      <point x="399" y="37"/>
      <point x="451" y="55"/>
      <point x="494" y="82" type="curve" smooth="yes"/>
      <point x="504" y="89"/>
      <point x="519" y="86"/>
      <point x="525" y="75" type="curve" smooth="yes"/>
      <point x="532" y="65"/>
      <point x="529" y="50"/>
      <point x="518" y="44" type="curve" smooth="yes"/>
      <point x="469" y="13"/>
      <point x="409" y="-9"/>
      <point x="327" y="-9" type="curve" smooth="yes"/>
      <point x="157" y="-9"/>
      <point x="58" y="111"/>
      <point x="58" y="262" type="curve"/>
      <point x="58" y="429"/>
      <point x="173" y="540"/>
      <point x="330" y="540" type="curve" smooth="yes"/>
      <point x="389" y="540"/>
      <point x="440" y="528"/>
      <point x="484" y="511" type="curve" smooth="yes"/>
      <point x="496" y="507"/>
      <point x="502" y="493"/>
      <point x="497" y="482" type="curve" smooth="yes"/>
      <point x="493" y="470"/>
      <point x="479" y="464"/>
    </contour>
    <contour>
      <point x="484" y="73" type="curve" smooth="yes"/>
      <point x="484" y="247" type="line" smooth="yes"/>
      <point x="484" y="259"/>
      <point x="495" y="270"/>
      <point x="507" y="270" type="curve" smooth="yes"/>
      <point x="519" y="270"/>
      <point x="530" y="259"/>
      <point x="530" y="247" type="curve" smooth="yes"/>
      <point x="530" y="73" type="line" smooth="yes"/>
      <point x="530" y="61"/>
      <point x="519" y="50"/>
      <point x="507" y="50" type="curve" smooth="yes"/>
      <point x="495" y="50"/>
      <point x="484" y="61"/>
    </contour>
    <contour>
      <point x="496" y="224" type="curve" smooth="yes"/>
      <point x="343" y="224" type="line" smooth="yes"/>
      <point x="331" y="224"/>
      <point x="320" y="235"/>
      <point x="320" y="247" type="curve" smooth="yes"/>
      <point x="320" y="259"/>
      <point x="331" y="270"/>
      <point x="343" y="270" type="curve" smooth="yes"/>
      <point x="496" y="270" type="line" smooth="yes"/>
      <point x="508" y="270"/>
      <point x="519" y="259"/>
      <point x="519" y="247" type="curve" smooth="yes"/>
      <point x="519" y="235"/>
      <point x="508" y="224"/>
    </contour>
  </outline>
</glyph>
<glyph name="H" format="1">
  <advance width="631"/>
  <unicode hex="0048"/>
  <outline>
    <contour>
      <point x="146" y="508" type="curve" smooth="yes"/>
      <point x="146" y="23" type="line" smooth="yes"/>
      <point x="146" y="11"/>
      <point x="135" y="0"/>
      <point x="123" y="0" type="curve" smooth="yes"/>
      <point x="111" y="0"/>
      <point x="100" y="11"/>
      <point x="100" y="23" type="curve" smooth="yes"/>
      <point x="100" y="508" type="line" smooth="yes"/>
      <point x="100" y="520"/>
      <point x="111" y="531"/>
      <point x="123" y="531" type="curve" smooth="yes"/>
      <point x="135" y="531"/>
      <point x="146" y="520"/>
    </contour>
    <contour>
      <point x="531" y="508" type="curve" smooth="yes"/>
      <point x="531" y="23" type="line" smooth="yes"/>
      <point x="531" y="11"/>
      <point x="520" y="0"/>
      <point x="508" y="0" type="curve" smooth="yes"/>
      <point x="496" y="0"/>
      <point x="485" y="11"/>
      <point x="485" y="23" type="curve" smooth="yes"/>
      <point x="485" y="508" type="line" smooth="yes"/>
      <point x="485" y="520"/>
      <point x="496" y="531"/>
      <point x="508" y="531" type="curve" smooth="yes"/>
      <point x="520" y="531"/>
      <point x="531" y="520"/>
    </contour>
    <contour>
      <point x="127" y="306" type="curve" smooth="yes"/>
      <point x="507" y="306" type="line" smooth="yes"/>
      <point x="519" y="306"/>
      <point x="530" y="295"/>
      <point x="530" y="283" type="curve" smooth="yes"/>
      <point x="530" y="271"/>
      <point x="519" y="260"/>
      <point x="507" y="260" type="curve" smooth="yes"/>
      <point x="127" y="260" type="line" smooth="yes"/>
      <point x="115" y="260"/>
      <point x="104" y="271"/>
      <point x="104" y="283" type="curve" smooth="yes"/>
      <point x="104" y="295"/>
      <point x="115" y="306"/>
    </contour>
  </outline>
</glyph>
<glyph name="I" format="1">
  <advance width="256"/>
  <unicode hex="0049"/>
  <outline>
    <contour>
      <point x="151" y="508" type="curve" smooth="yes"/>
      <point x="151" y="23" type="line" smooth="yes"/>
      <point x="151" y="11"/>
      <point x="140" y="0"/>
      <point x="128" y="0" type="curve" smooth="yes"/>
      <point x="116" y="0"/>
      <point x="105" y="11"/>
      <point x="105" y="23" type="curve" smooth="yes"/>
      <point x="105" y="508" type="line" smooth="yes"/>
      <point x="105" y="520"/>
      <point x="116" y="531"/>
      <point x="128" y="531" type="curve" smooth="yes"/>
      <point x="140" y="531"/>
      <point x="151" y="520"/>
    </contour>
  </outline>
</glyph>
<glyph name="J" format="1">
  <advance width="389"/>
  <unicode hex="004A"/>
  <outline>
    <contour>
      <point x="80" y="64" type="curve" smooth="yes"/>
      <point x="106" y="52"/>
      <point x="133" y="47"/>
      <point x="160" y="47" type="curve" smooth="yes"/>
      <point x="226" y="47"/>
      <point x="255" y="94"/>
      <point x="255" y="175" type="curve" smooth="yes"/>
      <point x="255" y="518" type="line" smooth="yes"/>
      <point x="255" y="530"/>
      <point x="266" y="541"/>
      <point x="278" y="541" type="curve" smooth="yes"/>
      <point x="290" y="541"/>
      <point x="301" y="530"/>
      <point x="301" y="518" type="curve" smooth="yes"/>
      <point x="301" y="175" type="line" smooth="yes"/>
      <point x="301" y="56"/>
      <point x="250" y="1"/>
      <point x="160" y="1" type="curve" smooth="yes"/>
      <point x="127" y="1"/>
      <point x="94" y="8"/>
      <point x="62" y="22" type="curve" smooth="yes"/>
      <point x="50" y="27"/>
      <point x="45" y="41"/>
      <point x="50" y="52" type="curve" smooth="yes"/>
      <point x="55" y="64"/>
      <point x="69" y="69"/>
    </contour>
  </outline>
</glyph>
<glyph name="K" format="1">
  <advance width="548"/>
  <unicode hex="004B"/>
  <outline>
    <contour>
      <point x="146" y="518" type="curve" smooth="yes"/>
      <point x="146" y="33" type="line" smooth="yes"/>
      <point x="146" y="21"/>
      <point x="135" y="10"/>
      <point x="123" y="10" type="curve" smooth="yes"/>
      <point x="111" y="10"/>
      <point x="100" y="21"/>
      <point x="100" y="33" type="curve" smooth="yes"/>
      <point x="100" y="518" type="line" smooth="yes"/>
      <point x="100" y="530"/>
      <point x="111" y="541"/>
      <point x="123" y="541" type="curve" smooth="yes"/>
      <point x="135" y="541"/>
      <point x="146" y="530"/>
    </contour>
    <contour>
      <point x="265" y="326" type="curve" smooth="yes"/>
      <point x="322" y="257"/>
      <point x="441" y="111"/>
      <point x="496" y="48" type="curve" smooth="yes"/>
      <point x="504" y="39"/>
      <point x="503" y="24"/>
      <point x="494" y="16" type="curve" smooth="yes"/>
      <point x="485" y="8"/>
      <point x="470" y="9"/>
      <point x="462" y="18" type="curve" smooth="yes"/>
      <point x="407" y="81"/>
      <point x="286" y="227"/>
      <point x="229" y="296" type="curve" smooth="yes"/>
      <point x="221" y="306"/>
      <point x="223" y="321"/>
      <point x="232" y="329" type="curve" smooth="yes"/>
      <point x="242" y="337"/>
      <point x="257" y="335"/>
    </contour>
    <contour>
      <point x="107" y="218" type="curve" smooth="yes"/>
      <point x="155" y="262"/>
      <point x="343" y="429"/>
      <point x="442" y="534" type="curve" smooth="yes"/>
      <point x="451" y="543"/>
      <point x="466" y="543"/>
      <point x="475" y="535" type="curve" smooth="yes"/>
      <point x="484" y="526"/>
      <point x="484" y="511"/>
      <point x="476" y="502" type="curve" smooth="yes"/>
      <point x="375" y="397"/>
      <point x="187" y="228"/>
      <point x="139" y="184" type="curve" smooth="yes"/>
      <point x="129" y="176"/>
      <point x="114" y="176"/>
      <point x="106" y="185" type="curve" smooth="yes"/>
      <point x="98" y="195"/>
      <point x="98" y="210"/>
    </contour>
  </outline>
</glyph>
<glyph name="L" format="1">
  <advance width="469"/>
  <unicode hex="004C"/>
  <outline>
    <contour>
      <point x="146" y="518" type="curve" smooth="yes"/>
      <point x="146" y="33" type="line" smooth="yes"/>
      <point x="146" y="21"/>
      <point x="135" y="10"/>
      <point x="123" y="10" type="curve" smooth="yes"/>
      <point x="111" y="10"/>
      <point x="100" y="21"/>
      <point x="100" y="33" type="curve" smooth="yes"/>
      <point x="100" y="518" type="line" smooth="yes"/>
      <point x="100" y="530"/>
      <point x="111" y="541"/>
      <point x="123" y="541" type="curve" smooth="yes"/>
      <point x="135" y="541"/>
      <point x="146" y="530"/>
    </contour>
    <contour>
      <point x="131" y="56" type="curve" smooth="yes"/>
      <point x="404" y="56" type="line" smooth="yes"/>
      <point x="416" y="56"/>
      <point x="427" y="45"/>
      <point x="427" y="33" type="curve" smooth="yes"/>
      <point x="427" y="21"/>
      <point x="416" y="10"/>
      <point x="404" y="10" type="curve" smooth="yes"/>
      <point x="131" y="10" type="line" smooth="yes"/>
      <point x="119" y="10"/>
      <point x="108" y="21"/>
      <point x="108" y="33" type="curve" smooth="yes"/>
      <point x="108" y="45"/>
      <point x="119" y="56"/>
    </contour>
  </outline>
</glyph>
<glyph name="M" format="1">
  <advance width="820"/>
  <unicode hex="004D"/>
  <outline>
    <contour>
      <point x="196" y="513" type="curve" smooth="yes"/>
      <point x="172" y="371"/>
      <point x="140" y="134"/>
      <point x="128" y="19" type="curve" smooth="yes"/>
      <point x="127" y="6"/>
      <point x="115" y="-3"/>
      <point x="103" y="-2" type="curve" smooth="yes"/>
      <point x="90" y="-1"/>
      <point x="81" y="11"/>
      <point x="82" y="23" type="curve" smooth="yes"/>
      <point x="94" y="140"/>
      <point x="126" y="377"/>
      <point x="150" y="521" type="curve" smooth="yes"/>
      <point x="152" y="533"/>
      <point x="165" y="542"/>
      <point x="177" y="540" type="curve" smooth="yes"/>
      <point x="189" y="538"/>
      <point x="198" y="525"/>
    </contour>
    <contour>
      <point x="655" y="522" type="curve" smooth="yes"/>
      <point x="686" y="366"/>
      <point x="719" y="158"/>
      <point x="737" y="24" type="curve" smooth="yes"/>
      <point x="738" y="12"/>
      <point x="729" y="0"/>
      <point x="717" y="-2" type="curve" smooth="yes"/>
      <point x="705" y="-3"/>
      <point x="693" y="6"/>
      <point x="691" y="18" type="curve" smooth="yes"/>
      <point x="673" y="152"/>
      <point x="640" y="358"/>
      <point x="609" y="514" type="curve" smooth="yes"/>
      <point x="607" y="526"/>
      <point x="615" y="538"/>
      <point x="628" y="541" type="curve" smooth="yes"/>
      <point x="640" y="543"/>
      <point x="652" y="535"/>
    </contour>
    <contour>
      <point x="206" y="514" type="curve" smooth="yes"/>
      <point x="268" y="387"/>
      <point x="362" y="190"/>
      <point x="429" y="50" type="curve" smooth="yes"/>
      <point x="434" y="39"/>
      <point x="429" y="25"/>
      <point x="418" y="19" type="curve" smooth="yes"/>
      <point x="407" y="14"/>
      <point x="393" y="19"/>
      <point x="387" y="30" type="curve" smooth="yes"/>
      <point x="320" y="170"/>
      <point x="226" y="367"/>
      <point x="164" y="494" type="curve" smooth="yes"/>
      <point x="159" y="505"/>
      <point x="164" y="519"/>
      <point x="175" y="525" type="curve" smooth="yes"/>
      <point x="186" y="530"/>
      <point x="200" y="525"/>
    </contour>
    <contour>
      <point x="390" y="61" type="curve" smooth="yes"/>
      <point x="450" y="198"/>
      <point x="530" y="374"/>
      <point x="604" y="520" type="curve" smooth="yes"/>
      <point x="610" y="531"/>
      <point x="624" y="536"/>
      <point x="635" y="531" type="curve" smooth="yes"/>
      <point x="646" y="525"/>
      <point x="651" y="511"/>
      <point x="646" y="500" type="curve" smooth="yes"/>
      <point x="572" y="354"/>
      <point x="492" y="178"/>
      <point x="432" y="43" type="curve" smooth="yes"/>
      <point x="427" y="31"/>
      <point x="413" y="26"/>
      <point x="402" y="31" type="curve" smooth="yes"/>
      <point x="390" y="36"/>
      <point x="385" y="50"/>
    </contour>
  </outline>
</glyph>
<glyph name="N" format="1">
  <advance width="635"/>
  <unicode hex="004E"/>
  <outline>
    <contour>
      <point x="146" y="518" type="curve" smooth="yes"/>
      <point x="146" y="33" type="line" smooth="yes"/>
      <point x="146" y="21"/>
      <point x="135" y="10"/>
      <point x="123" y="10" type="curve" smooth="yes"/>
      <point x="111" y="10"/>
      <point x="100" y="21"/>
      <point x="100" y="33" type="curve" smooth="yes"/>
      <point x="100" y="518" type="line" smooth="yes"/>
      <point x="100" y="530"/>
      <point x="111" y="541"/>
      <point x="123" y="541" type="curve" smooth="yes"/>
      <point x="135" y="541"/>
      <point x="146" y="530"/>
    </contour>
    <contour>
      <point x="535" y="518" type="curve" smooth="yes"/>
      <point x="535" y="33" type="line" smooth="yes"/>
      <point x="535" y="21"/>
      <point x="524" y="10"/>
      <point x="512" y="10" type="curve" smooth="yes"/>
      <point x="500" y="10"/>
      <point x="489" y="21"/>
      <point x="489" y="33" type="curve" smooth="yes"/>
      <point x="489" y="518" type="line" smooth="yes"/>
      <point x="489" y="530"/>
      <point x="500" y="541"/>
      <point x="512" y="541" type="curve" smooth="yes"/>
      <point x="524" y="541"/>
      <point x="535" y="530"/>
    </contour>
    <contour>
      <point x="147" y="532" type="curve" smooth="yes"/>
      <point x="222" y="432"/>
      <point x="417" y="190"/>
      <point x="524" y="47" type="curve" smooth="yes"/>
      <point x="532" y="37"/>
      <point x="530" y="22"/>
      <point x="520" y="15" type="curve" smooth="yes"/>
      <point x="510" y="7"/>
      <point x="495" y="9"/>
      <point x="488" y="19" type="curve" smooth="yes"/>
      <point x="381" y="162"/>
      <point x="186" y="404"/>
      <point x="111" y="504" type="curve" smooth="yes"/>
      <point x="103" y="514"/>
      <point x="105" y="529"/>
      <point x="115" y="536" type="curve" smooth="yes"/>
      <point x="125" y="544"/>
      <point x="140" y="542"/>
    </contour>
  </outline>
</glyph>
<glyph name="O" format="1">
  <advance width="630"/>
  <unicode hex="004F"/>
  <outline>
    <contour>
      <point x="317" y="550" type="curve" smooth="yes"/>
      <point x="458" y="550"/>
      <point x="572" y="438"/>
      <point x="572" y="275" type="curve" smooth="yes"/>
      <point x="572" y="120"/>
      <point x="477" y="1"/>
      <point x="317" y="1" type="curve" smooth="yes"/>
      <point x="165" y="1"/>
      <point x="58" y="121"/>
      <point x="58" y="272" type="curve"/>
      <point x="58" y="438"/>
      <point x="163" y="550"/>
    </contour>
    <contour>
      <point x="317" y="504" type="curve" smooth="yes"/>
      <point x="189" y="504"/>
      <point x="104" y="408"/>
      <point x="104" y="272" type="curve" smooth="yes"/>
      <point x="104" y="147"/>
      <point x="191" y="47"/>
      <point x="317" y="47" type="curve" smooth="yes"/>
      <point x="451" y="47"/>
      <point x="526" y="148"/>
      <point x="526" y="275" type="curve" smooth="yes"/>
      <point x="526" y="408"/>
      <point x="434" y="504"/>
    </contour>
  </outline>
</glyph>
<glyph name="P" format="1">
  <advance width="510"/>
  <unicode hex="0050"/>
  <outline>
    <contour>
      <point x="149" y="232" type="curve" smooth="yes"/>
      <point x="266" y="232" type="line" smooth="yes"/>
      <point x="362" y="232"/>
      <point x="414" y="290"/>
      <point x="414" y="364" type="curve" smooth="yes"/>
      <point x="414" y="442"/>
      <point x="352" y="495"/>
      <point x="266" y="495" type="curve" smooth="yes"/>
      <point x="123" y="495" type="line"/>
      <point x="146" y="518" type="line"/>
      <point x="146" y="33" type="line" smooth="yes"/>
      <point x="146" y="21"/>
      <point x="135" y="10"/>
      <point x="123" y="10" type="curve" smooth="yes"/>
      <point x="111" y="10"/>
      <point x="100" y="21"/>
      <point x="100" y="33" type="curve" smooth="yes"/>
      <point x="100" y="518" type="line" smooth="yes"/>
      <point x="100" y="531"/>
      <point x="110" y="541"/>
      <point x="123" y="541" type="curve" smooth="yes"/>
      <point x="266" y="541" type="line" smooth="yes"/>
      <point x="382" y="541"/>
      <point x="460" y="466"/>
      <point x="460" y="364" type="curve" smooth="yes"/>
      <point x="460" y="268"/>
      <point x="396" y="186"/>
      <point x="266" y="186" type="curve" smooth="yes"/>
      <point x="149" y="186" type="line" smooth="yes"/>
      <point x="137" y="186"/>
      <point x="126" y="197"/>
      <point x="126" y="209" type="curve" smooth="yes"/>
      <point x="126" y="221"/>
      <point x="137" y="232"/>
    </contour>
  </outline>
</glyph>
<glyph name="Q" format="1">
  <advance width="630"/>
  <unicode hex="0051"/>
  <outline>
    <contour>
      <point x="340" y="27" type="curve" smooth="yes"/>
      <point x="357" y="-38"/>
      <point x="419" y="-87"/>
      <point x="512" y="-87" type="curve" smooth="yes"/>
      <point x="524" y="-87"/>
      <point x="535" y="-98"/>
      <point x="535" y="-110" type="curve" smooth="yes"/>
      <point x="535" y="-122"/>
      <point x="524" y="-133"/>
      <point x="512" y="-133" type="curve" smooth="yes"/>
      <point x="393" y="-133"/>
      <point x="317" y="-66"/>
      <point x="296" y="15" type="curve" smooth="yes"/>
      <point x="293" y="27"/>
      <point x="300" y="40"/>
      <point x="312" y="43" type="curve" smooth="yes"/>
      <point x="324" y="46"/>
      <point x="337" y="39"/>
    </contour>
    <component base="O"/>
    <component base="O"/>
  </outline>
</glyph>
<glyph name="R" format="1">
  <advance width="532"/>
  <unicode hex="0052"/>
  <outline>
    <contour>
      <point x="139" y="255" type="curve" smooth="yes"/>
      <point x="270" y="255" type="line" smooth="yes"/>
      <point x="363" y="255"/>
      <point x="413" y="308"/>
      <point x="413" y="375" type="curve" smooth="yes"/>
      <point x="413" y="447"/>
      <point x="354" y="495"/>
      <point x="270" y="495" type="curve" smooth="yes"/>
      <point x="123" y="495" type="line"/>
      <point x="146" y="518" type="line"/>
      <point x="146" y="33" type="line" smooth="yes"/>
      <point x="146" y="21"/>
      <point x="135" y="10"/>
      <point x="123" y="10" type="curve" smooth="yes"/>
      <point x="111" y="10"/>
      <point x="100" y="21"/>
      <point x="100" y="33" type="curve" smooth="yes"/>
      <point x="100" y="518" type="line" smooth="yes"/>
      <point x="100" y="531"/>
      <point x="110" y="541"/>
      <point x="123" y="541" type="curve" smooth="yes"/>
      <point x="270" y="541" type="line" smooth="yes"/>
      <point x="386" y="541"/>
      <point x="459" y="471"/>
      <point x="459" y="375" type="curve" smooth="yes"/>
      <point x="459" y="286"/>
      <point x="399" y="209"/>
      <point x="270" y="209" type="curve" smooth="yes"/>
      <point x="139" y="209" type="line" smooth="yes"/>
      <point x="127" y="209"/>
      <point x="116" y="220"/>
      <point x="116" y="232" type="curve" smooth="yes"/>
      <point x="116" y="244"/>
      <point x="127" y="255"/>
    </contour>
    <contour>
      <point x="316" y="241" type="curve" smooth="yes"/>
      <point x="481" y="48" type="line" smooth="yes"/>
      <point x="490" y="39"/>
      <point x="488" y="24"/>
      <point x="479" y="16" type="curve" smooth="yes"/>
      <point x="470" y="7"/>
      <point x="455" y="9"/>
      <point x="447" y="18" type="curve" smooth="yes"/>
      <point x="282" y="211" type="line" smooth="yes"/>
      <point x="273" y="220"/>
      <point x="275" y="235"/>
      <point x="284" y="243" type="curve" smooth="yes"/>
      <point x="293" y="252"/>
      <point x="308" y="250"/>
    </contour>
  </outline>
</glyph>
<glyph name="S" format="1">
  <advance width="525"/>
  <unicode hex="0053"/>
  <outline>
    <contour>
      <point x="384" y="473" type="curve" smooth="yes"/>
      <point x="340" y="491"/>
      <point x="308" y="501"/>
      <point x="243" y="501" type="curve" smooth="yes"/>
      <point x="177" y="501"/>
      <point x="130" y="464"/>
      <point x="130" y="420" type="curve" smooth="yes"/>
      <point x="130" y="376"/>
      <point x="157" y="332"/>
      <point x="268" y="311" type="curve" smooth="yes"/>
      <point x="410" y="279"/>
      <point x="450" y="218"/>
      <point x="450" y="146" type="curve" smooth="yes"/>
      <point x="450" y="73"/>
      <point x="398" y="1"/>
      <point x="263" y="1" type="curve" smooth="yes"/>
      <point x="199" y="1"/>
      <point x="138" y="16"/>
      <point x="83" y="47" type="curve" smooth="yes"/>
      <point x="72" y="53"/>
      <point x="68" y="67"/>
      <point x="74" y="78" type="curve" smooth="yes"/>
      <point x="80" y="89"/>
      <point x="94" y="93"/>
      <point x="105" y="87" type="curve" smooth="yes"/>
      <point x="154" y="60"/>
      <point x="207" y="47"/>
      <point x="263" y="47" type="curve" smooth="yes"/>
      <point x="356" y="47"/>
      <point x="404" y="91"/>
      <point x="404" y="146" type="curve" smooth="yes"/>
      <point x="404" y="202"/>
      <point x="362" y="243"/>
      <point x="260" y="265" type="curve" smooth="yes"/>
      <point x="103" y="296"/>
      <point x="84" y="364"/>
      <point x="84" y="420" type="curve" smooth="yes"/>
      <point x="84" y="482"/>
      <point x="139" y="547"/>
      <point x="243" y="547" type="curve" smooth="yes"/>
      <point x="316" y="547"/>
      <point x="352" y="535"/>
      <point x="402" y="515" type="curve" smooth="yes"/>
      <point x="413" y="511"/>
      <point x="419" y="497"/>
      <point x="414" y="485" type="curve" smooth="yes"/>
      <point x="410" y="474"/>
      <point x="396" y="468"/>
    </contour>
  </outline>
</glyph>
<glyph name="T" format="1">
  <advance width="558"/>
  <unicode hex="0054"/>
  <outline>
    <contour>
      <point x="300" y="518" type="curve" smooth="yes"/>
      <point x="300" y="33" type="line" smooth="yes"/>
      <point x="300" y="21"/>
      <point x="289" y="10"/>
      <point x="277" y="10" type="curve" smooth="yes"/>
      <point x="265" y="10"/>
      <point x="254" y="21"/>
      <point x="254" y="33" type="curve" smooth="yes"/>
      <point x="254" y="518" type="line" smooth="yes"/>
      <point x="254" y="530"/>
      <point x="265" y="541"/>
      <point x="277" y="541" type="curve" smooth="yes"/>
      <point x="289" y="541"/>
      <point x="300" y="530"/>
    </contour>
    <contour>
      <point x="65" y="541" type="curve" smooth="yes"/>
      <point x="493" y="541" type="line" smooth="yes"/>
      <point x="505" y="541"/>
      <point x="516" y="530"/>
      <point x="516" y="518" type="curve" smooth="yes"/>
      <point x="516" y="506"/>
      <point x="505" y="495"/>
      <point x="493" y="495" type="curve" smooth="yes"/>
      <point x="65" y="495" type="line" smooth="yes"/>
      <point x="53" y="495"/>
      <point x="42" y="506"/>
      <point x="42" y="518" type="curve" smooth="yes"/>
      <point x="42" y="530"/>
      <point x="53" y="541"/>
    </contour>
  </outline>
</glyph>
<glyph name="U" format="1">
  <advance width="616"/>
  <unicode hex="0055"/>
  <outline>
    <contour>
      <point x="134" y="508" type="curve" smooth="yes"/>
      <point x="134" y="212" type="line" smooth="yes"/>
      <point x="134" y="100"/>
      <point x="204" y="37"/>
      <point x="306" y="37" type="curve" smooth="yes"/>
      <point x="418" y="37"/>
      <point x="482" y="100"/>
      <point x="482" y="215" type="curve" smooth="yes"/>
      <point x="482" y="508" type="line" smooth="yes"/>
      <point x="482" y="520"/>
      <point x="493" y="531"/>
      <point x="505" y="531" type="curve" smooth="yes"/>
      <point x="517" y="531"/>
      <point x="528" y="520"/>
      <point x="528" y="508" type="curve" smooth="yes"/>
      <point x="528" y="215" type="line" smooth="yes"/>
      <point x="528" y="70"/>
      <point x="448" y="-9"/>
      <point x="306" y="-9" type="curve" smooth="yes"/>
      <point x="178" y="-9"/>
      <point x="88" y="70"/>
      <point x="88" y="212" type="curve" smooth="yes"/>
      <point x="88" y="508" type="line" smooth="yes"/>
      <point x="88" y="520"/>
      <point x="99" y="531"/>
      <point x="111" y="531" type="curve" smooth="yes"/>
      <point x="123" y="531"/>
      <point x="134" y="520"/>
    </contour>
  </outline>
</glyph>
<glyph name="V" format="1">
  <advance width="585"/>
  <unicode hex="0056"/>
  <outline>
    <contour>
      <point x="97" y="516" type="curve" smooth="yes"/>
      <point x="137" y="393"/>
      <point x="271" y="103"/>
      <point x="310" y="30" type="curve" smooth="yes"/>
      <point x="316" y="19"/>
      <point x="312" y="5"/>
      <point x="301" y="-1" type="curve" smooth="yes"/>
      <point x="290" y="-7"/>
      <point x="276" y="-3"/>
      <point x="270" y="8" type="curve" smooth="yes"/>
      <point x="229" y="83"/>
      <point x="93" y="377"/>
      <point x="53" y="502" type="curve" smooth="yes"/>
      <point x="49" y="514"/>
      <point x="56" y="527"/>
      <point x="68" y="531" type="curve" smooth="yes"/>
      <point x="80" y="535"/>
      <point x="93" y="528"/>
    </contour>
    <contour>
      <point x="273" y="24" type="curve" smooth="yes"/>
      <point x="316" y="107"/>
      <point x="440" y="373"/>
      <point x="488" y="515" type="curve" smooth="yes"/>
      <point x="492" y="527"/>
      <point x="506" y="534"/>
      <point x="517" y="530" type="curve" smooth="yes"/>
      <point x="529" y="526"/>
      <point x="536" y="512"/>
      <point x="532" y="501" type="curve" smooth="yes"/>
      <point x="482" y="357"/>
      <point x="358" y="87"/>
      <point x="313" y="2" type="curve" smooth="yes"/>
      <point x="308" y="-9"/>
      <point x="293" y="-13"/>
      <point x="282" y="-7" type="curve" smooth="yes"/>
      <point x="271" y="-2"/>
      <point x="267" y="13"/>
    </contour>
  </outline>
</glyph>
<glyph name="W" format="1">
  <advance width="891"/>
  <unicode hex="0057"/>
  <outline>
    <contour>
      <point x="110" y="523" type="curve" smooth="yes"/>
      <point x="144" y="400"/>
      <point x="243" y="113"/>
      <point x="278" y="40" type="curve" smooth="yes"/>
      <point x="283" y="29"/>
      <point x="278" y="15"/>
      <point x="267" y="9" type="curve" smooth="yes"/>
      <point x="256" y="4"/>
      <point x="242" y="9"/>
      <point x="236" y="20" type="curve" smooth="yes"/>
      <point x="201" y="95"/>
      <point x="100" y="386"/>
      <point x="66" y="511" type="curve" smooth="yes"/>
      <point x="63" y="523"/>
      <point x="70" y="536"/>
      <point x="82" y="539" type="curve" smooth="yes"/>
      <point x="94" y="542"/>
      <point x="107" y="535"/>
    </contour>
    <contour>
      <point x="240" y="33" type="curve" smooth="yes"/>
      <point x="277" y="117"/>
      <point x="381" y="380"/>
      <point x="424" y="521" type="curve" smooth="yes"/>
      <point x="428" y="533"/>
      <point x="441" y="540"/>
      <point x="453" y="536" type="curve" smooth="yes"/>
      <point x="465" y="532"/>
      <point x="472" y="519"/>
      <point x="468" y="507" type="curve" smooth="yes"/>
      <point x="425" y="366"/>
      <point x="319" y="99"/>
      <point x="282" y="15" type="curve" smooth="yes"/>
      <point x="277" y="3"/>
      <point x="263" y="-2"/>
      <point x="252" y="3" type="curve" smooth="yes"/>
      <point x="240" y="8"/>
      <point x="235" y="22"/>
    </contour>
    <contour>
      <point x="472" y="509" type="curve" smooth="yes"/>
      <point x="510" y="388"/>
      <point x="612" y="113"/>
      <point x="648" y="39" type="curve" smooth="yes"/>
      <point x="653" y="28"/>
      <point x="648" y="14"/>
      <point x="637" y="8" type="curve" smooth="yes"/>
      <point x="626" y="3"/>
      <point x="612" y="8"/>
      <point x="606" y="19" type="curve" smooth="yes"/>
      <point x="570" y="93"/>
      <point x="466" y="372"/>
      <point x="428" y="495" type="curve" smooth="yes"/>
      <point x="424" y="507"/>
      <point x="431" y="520"/>
      <point x="443" y="524" type="curve" smooth="yes"/>
      <point x="455" y="528"/>
      <point x="468" y="521"/>
    </contour>
    <contour>
      <point x="610" y="32" type="curve" smooth="yes"/>
      <point x="647" y="116"/>
      <point x="741" y="381"/>
      <point x="782" y="523" type="curve" smooth="yes"/>
      <point x="785" y="535"/>
      <point x="798" y="543"/>
      <point x="810" y="539" type="curve" smooth="yes"/>
      <point x="822" y="536"/>
      <point x="830" y="523"/>
      <point x="826" y="511" type="curve" smooth="yes"/>
      <point x="785" y="367"/>
      <point x="689" y="98"/>
      <point x="652" y="14" type="curve" smooth="yes"/>
      <point x="647" y="2"/>
      <point x="633" y="-3"/>
      <point x="622" y="2" type="curve" smooth="yes"/>
      <point x="610" y="7"/>
      <point x="605" y="21"/>
    </contour>
  </outline>
</glyph>
<glyph name="X" format="1">
  <advance width="563"/>
  <unicode hex="0058"/>
  <outline>
    <contour>
      <point x="117" y="531" type="curve" smooth="yes"/>
      <point x="213" y="391"/>
      <point x="439" y="130"/>
      <point x="498" y="46" type="curve" smooth="yes"/>
      <point x="505" y="36"/>
      <point x="502" y="21"/>
      <point x="492" y="14" type="curve" smooth="yes"/>
      <point x="482" y="7"/>
      <point x="467" y="10"/>
      <point x="460" y="20" type="curve" smooth="yes"/>
      <point x="401" y="104"/>
      <point x="175" y="365"/>
      <point x="79" y="505" type="curve" smooth="yes"/>
      <point x="72" y="515"/>
      <point x="75" y="530"/>
      <point x="85" y="537" type="curve" smooth="yes"/>
      <point x="95" y="544"/>
      <point x="110" y="541"/>
    </contour>
    <contour>
      <point x="66" y="47" type="curve" smooth="yes"/>
      <point x="145" y="153"/>
      <point x="354" y="398"/>
      <point x="440" y="530" type="curve" smooth="yes"/>
      <point x="446" y="541"/>
      <point x="461" y="544"/>
      <point x="471" y="537" type="curve" smooth="yes"/>
      <point x="482" y="531"/>
      <point x="485" y="516"/>
      <point x="478" y="506" type="curve" smooth="yes"/>
      <point x="392" y="372"/>
      <point x="183" y="127"/>
      <point x="104" y="19" type="curve" smooth="yes"/>
      <point x="96" y="9"/>
      <point x="81" y="7"/>
      <point x="71" y="14" type="curve" smooth="yes"/>
      <point x="61" y="22"/>
      <point x="59" y="37"/>
    </contour>
  </outline>
</glyph>
<glyph name="Y" format="1">
  <advance width="560"/>
  <unicode hex="0059"/>
  <outline>
    <contour>
      <point x="305" y="201" type="curve" smooth="yes"/>
      <point x="305" y="33" type="line" smooth="yes"/>
      <point x="305" y="21"/>
      <point x="294" y="10"/>
      <point x="282" y="10" type="curve" smooth="yes"/>
      <point x="270" y="10"/>
      <point x="259" y="21"/>
      <point x="259" y="33" type="curve" smooth="yes"/>
      <point x="259" y="201" type="line" smooth="yes"/>
      <point x="259" y="213"/>
      <point x="270" y="224"/>
      <point x="282" y="224" type="curve" smooth="yes"/>
      <point x="294" y="224"/>
      <point x="305" y="213"/>
    </contour>
    <contour>
      <point x="94" y="530" type="curve" smooth="yes"/>
      <point x="135" y="460"/>
      <point x="255" y="283"/>
      <point x="297" y="227" type="curve" smooth="yes"/>
      <point x="305" y="217"/>
      <point x="303" y="202"/>
      <point x="293" y="195" type="curve" smooth="yes"/>
      <point x="283" y="187"/>
      <point x="268" y="189"/>
      <point x="261" y="199" type="curve" smooth="yes"/>
      <point x="217" y="257"/>
      <point x="97" y="436"/>
      <point x="54" y="506" type="curve" smooth="yes"/>
      <point x="48" y="517"/>
      <point x="52" y="531"/>
      <point x="62" y="538" type="curve" smooth="yes"/>
      <point x="73" y="544"/>
      <point x="87" y="540"/>
    </contour>
    <contour>
      <point x="264" y="221" type="curve" smooth="yes"/>
      <point x="312" y="286"/>
      <point x="425" y="461"/>
      <point x="466" y="530" type="curve" smooth="yes"/>
      <point x="473" y="540"/>
      <point x="487" y="544"/>
      <point x="498" y="538" type="curve" smooth="yes"/>
      <point x="508" y="531"/>
      <point x="512" y="517"/>
      <point x="506" y="506" type="curve" smooth="yes"/>
      <point x="465" y="437"/>
      <point x="350" y="260"/>
      <point x="300" y="193" type="curve" smooth="yes"/>
      <point x="293" y="183"/>
      <point x="278" y="181"/>
      <point x="268" y="189" type="curve" smooth="yes"/>
      <point x="258" y="196"/>
      <point x="256" y="211"/>
    </contour>
  </outline>
</glyph>
<glyph name="Z" format="1">
  <advance width="563"/>
  <unicode hex="005A"/>
  <outline>
    <contour>
      <point x="481" y="495" type="curve" smooth="yes"/>
      <point x="418" y="400"/>
      <point x="165" y="100"/>
      <point x="112" y="19" type="curve" smooth="yes"/>
      <point x="106" y="8"/>
      <point x="91" y="5"/>
      <point x="81" y="12" type="curve" smooth="yes"/>
      <point x="70" y="18"/>
      <point x="67" y="33"/>
      <point x="74" y="43" type="curve" smooth="yes"/>
      <point x="127" y="126"/>
      <point x="380" y="426"/>
      <point x="443" y="521" type="curve" smooth="yes"/>
      <point x="450" y="531"/>
      <point x="464" y="534"/>
      <point x="475" y="527" type="curve" smooth="yes"/>
      <point x="485" y="520"/>
      <point x="488" y="506"/>
    </contour>
    <contour>
      <point x="102" y="531" type="curve" smooth="yes"/>
      <point x="451" y="531" type="line" smooth="yes"/>
      <point x="463" y="531"/>
      <point x="474" y="520"/>
      <point x="474" y="508" type="curve" smooth="yes"/>
      <point x="474" y="496"/>
      <point x="463" y="485"/>
      <point x="451" y="485" type="curve" smooth="yes"/>
      <point x="102" y="485" type="line" smooth="yes"/>
      <point x="90" y="485"/>
      <point x="79" y="496"/>
      <point x="79" y="508" type="curve" smooth="yes"/>
      <point x="79" y="520"/>
      <point x="90" y="531"/>
    </contour>
    <contour>
      <point x="89" y="46" type="curve" smooth="yes"/>
      <point x="474" y="46" type="line" smooth="yes"/>
      <point x="486" y="46"/>
      <point x="497" y="35"/>
      <point x="497" y="23" type="curve" smooth="yes"/>
      <point x="497" y="11"/>
      <point x="486" y="0"/>
      <point x="474" y="0" type="curve" smooth="yes"/>
      <point x="89" y="0" type="line" smooth="yes"/>
      <point x="77" y="0"/>
      <point x="66" y="11"/>
      <point x="66" y="23" type="curve" smooth="yes"/>
      <point x="66" y="35"/>
      <point x="77" y="46"/>
    </contour>
  </outline>
</glyph>
<glyph name="bracketleft" format="1">
  <advance width="315"/>
  <unicode hex="005B"/>
  <outline>
    <contour>
      <point x="233" y="580" type="curve" smooth="yes"/>
      <point x="98" y="580" type="line"/>
      <point x="121" y="603" type="line"/>
      <point x="121" y="-76" type="line"/>
      <point x="98" y="-53" type="line"/>
      <point x="233" y="-53" type="line" smooth="yes"/>
      <point x="245" y="-53"/>
      <point x="256" y="-64"/>
      <point x="256" y="-76" type="curve" smooth="yes"/>
      <point x="256" y="-88"/>
      <point x="245" y="-99"/>
      <point x="233" y="-99" type="curve" smooth="yes"/>
      <point x="98" y="-99" type="line" smooth="yes"/>
      <point x="85" y="-99"/>
      <point x="75" y="-89"/>
      <point x="75" y="-76" type="curve" smooth="yes"/>
      <point x="75" y="603" type="line" smooth="yes"/>
      <point x="75" y="616"/>
      <point x="85" y="626"/>
      <point x="98" y="626" type="curve" smooth="yes"/>
      <point x="233" y="626" type="line" smooth="yes"/>
      <point x="245" y="626"/>
      <point x="256" y="615"/>
      <point x="256" y="603" type="curve" smooth="yes"/>
      <point x="256" y="591"/>
      <point x="245" y="580"/>
    </contour>
  </outline>
</glyph>
<glyph name="asciicircum" format="1">
  <advance width="490"/>
  <unicode hex="005E"/>
  <outline>
    <contour>
      <point x="261" y="505" type="curve" smooth="yes"/>
      <point x="213" y="413"/>
      <point x="162" y="318"/>
      <point x="121" y="239" type="curve" smooth="yes"/>
      <point x="116" y="227"/>
      <point x="102" y="223"/>
      <point x="91" y="229" type="curve" smooth="yes"/>
      <point x="79" y="234"/>
      <point x="75" y="248"/>
      <point x="81" y="259" type="curve" smooth="yes"/>
      <point x="122" y="340"/>
      <point x="173" y="435"/>
      <point x="221" y="527" type="curve" smooth="yes"/>
      <point x="226" y="538"/>
      <point x="241" y="542"/>
      <point x="252" y="536" type="curve" smooth="yes"/>
      <point x="263" y="531"/>
      <point x="267" y="516"/>
    </contour>
    <contour>
      <point x="370" y="239" type="curve" smooth="yes"/>
      <point x="329" y="318"/>
      <point x="280" y="413"/>
      <point x="230" y="505" type="curve" smooth="yes"/>
      <point x="224" y="516"/>
      <point x="228" y="530"/>
      <point x="239" y="536" type="curve" smooth="yes"/>
      <point x="250" y="542"/>
      <point x="264" y="538"/>
      <point x="270" y="527" type="curve" smooth="yes"/>
      <point x="320" y="435"/>
      <point x="369" y="340"/>
      <point x="410" y="259" type="curve" smooth="yes"/>
      <point x="416" y="248"/>
      <point x="412" y="234"/>
      <point x="400" y="229" type="curve" smooth="yes"/>
      <point x="389" y="223"/>
      <point x="375" y="227"/>
    </contour>
  </outline>
</glyph>
<glyph name="underscore" format="1">
  <advance width="495"/>
  <unicode hex="005F"/>
  <outline>
    <contour>
      <point x="40" y="-78" type="curve" smooth="yes"/>
      <point x="455" y="-78" type="line" smooth="yes"/>
      <point x="467" y="-78"/>
      <point x="478" y="-89"/>
      <point x="478" y="-101" type="curve" smooth="yes"/>
      <point x="478" y="-113"/>
      <point x="467" y="-124"/>
      <point x="455" y="-124" type="curve" smooth="yes"/>
      <point x="40" y="-124" type="line" smooth="yes"/>
      <point x="28" y="-124"/>
      <point x="17" y="-113"/>
      <point x="17" y="-101" type="curve" smooth="yes"/>
      <point x="17" y="-89"/>
      <point x="28" y="-78"/>
    </contour>
  </outline>
</glyph>
<glyph name="grave" format="1">
  <advance width="490"/>
  <unicode hex="0060"/>
  <outline>
    <contour>
      <point x="230" y="610" type="curve" smooth="yes"/>
      <point x="258" y="574"/>
      <point x="275" y="553"/>
      <point x="300" y="513" type="curve" smooth="yes"/>
      <point x="307" y="503"/>
      <point x="304" y="488"/>
      <point x="293" y="482" type="curve" smooth="yes"/>
      <point x="283" y="475"/>
      <point x="268" y="478"/>
      <point x="262" y="489" type="curve" smooth="yes"/>
      <point x="237" y="527"/>
      <point x="220" y="548"/>
      <point x="194" y="582" type="curve" smooth="yes"/>
      <point x="186" y="592"/>
      <point x="188" y="607"/>
      <point x="198" y="614" type="curve" smooth="yes"/>
      <point x="208" y="622"/>
      <point x="223" y="620"/>
    </contour>
  </outline>
</glyph>
<glyph name="a" format="1">
  <advance width="450"/>
  <unicode hex="0061"/>
  <outline>
    <contour>
      <point x="115" y="371" type="curve" smooth="yes"/>
      <point x="137" y="378"/>
      <point x="179" y="388"/>
      <point x="215" y="388" type="curve" smooth="yes"/>
      <point x="322" y="388"/>
      <point x="372" y="323"/>
      <point x="372" y="228" type="curve" smooth="yes"/>
      <point x="372" y="137" type="line" smooth="yes"/>
      <point x="372" y="90"/>
      <point x="382" y="62"/>
      <point x="403" y="40" type="curve" smooth="yes"/>
      <point x="411" y="30"/>
      <point x="411" y="16"/>
      <point x="402" y="7" type="curve" smooth="yes"/>
      <point x="392" y="-1"/>
      <point x="378" y="-1"/>
      <point x="369" y="8" type="curve" smooth="yes"/>
      <point x="342" y="38"/>
      <point x="326" y="74"/>
      <point x="326" y="137" type="curve" smooth="yes"/>
      <point x="326" y="228" type="line" smooth="yes"/>
      <point x="326" y="295"/>
      <point x="292" y="342"/>
      <point x="215" y="342" type="curve" smooth="yes"/>
      <point x="185" y="342"/>
      <point x="149" y="334"/>
      <point x="129" y="327" type="curve" smooth="yes"/>
      <point x="117" y="323"/>
      <point x="104" y="330"/>
      <point x="100" y="342" type="curve" smooth="yes"/>
      <point x="96" y="354"/>
      <point x="103" y="367"/>
    </contour>
    <contour>
      <point x="347" y="194" type="curve" smooth="yes"/>
      <point x="314" y="195"/>
      <point x="284" y="197"/>
      <point x="255" y="197" type="curve" smooth="yes"/>
      <point x="190" y="197"/>
      <point x="146" y="183"/>
      <point x="119" y="156" type="curve" smooth="yes"/>
      <point x="103" y="140"/>
      <point x="98" y="123"/>
      <point x="98" y="104" type="curve" smooth="yes"/>
      <point x="98" y="77"/>
      <point x="121" y="46"/>
      <point x="172" y="46" type="curve" smooth="yes"/>
      <point x="238" y="46"/>
      <point x="288" y="73"/>
      <point x="330" y="132" type="curve" smooth="yes"/>
      <point x="338" y="142"/>
      <point x="353" y="144"/>
      <point x="363" y="137" type="curve" smooth="yes"/>
      <point x="373" y="129"/>
      <point x="375" y="114"/>
      <point x="368" y="104" type="curve" smooth="yes"/>
      <point x="314" y="33"/>
      <point x="254" y="0"/>
      <point x="172" y="0" type="curve" smooth="yes"/>
      <point x="81" y="0"/>
      <point x="52" y="59"/>
      <point x="52" y="104" type="curve"/>
      <point x="52" y="135"/>
      <point x="61" y="164"/>
      <point x="87" y="188" type="curve" smooth="yes"/>
      <point x="120" y="221"/>
      <point x="174" y="243"/>
      <point x="255" y="243" type="curve" smooth="yes"/>
      <point x="284" y="243"/>
      <point x="314" y="241"/>
      <point x="349" y="240" type="curve" smooth="yes"/>
      <point x="361" y="240"/>
      <point x="371" y="229"/>
      <point x="371" y="216" type="curve" smooth="yes"/>
      <point x="371" y="204"/>
      <point x="360" y="194"/>
    </contour>
  </outline>
</glyph>
<glyph name="b" format="1">
  <advance width="505"/>
  <unicode hex="0062"/>
  <outline>
    <contour>
      <point x="87" y="34" type="curve" smooth="yes"/>
      <point x="87" y="544" type="line" smooth="yes"/>
      <point x="87" y="556"/>
      <point x="98" y="567"/>
      <point x="110" y="567" type="curve" smooth="yes"/>
      <point x="122" y="567"/>
      <point x="133" y="556"/>
      <point x="133" y="544" type="curve" smooth="yes"/>
      <point x="133" y="34" type="line" smooth="yes"/>
      <point x="133" y="22"/>
      <point x="122" y="11"/>
      <point x="110" y="11" type="curve" smooth="yes"/>
      <point x="98" y="11"/>
      <point x="87" y="22"/>
    </contour>
    <contour>
      <point x="121" y="92" type="curve" smooth="yes"/>
      <point x="166" y="68"/>
      <point x="213" y="56"/>
      <point x="268" y="56" type="curve" smooth="yes"/>
      <point x="351" y="56"/>
      <point x="409" y="114"/>
      <point x="409" y="203" type="curve" smooth="yes"/>
      <point x="409" y="290"/>
      <point x="354" y="352"/>
      <point x="281" y="352" type="curve" smooth="yes"/>
      <point x="225" y="352"/>
      <point x="170" y="311"/>
      <point x="131" y="247" type="curve" smooth="yes"/>
      <point x="124" y="236"/>
      <point x="109" y="233"/>
      <point x="99" y="239" type="curve" smooth="yes"/>
      <point x="88" y="246"/>
      <point x="85" y="261"/>
      <point x="91" y="271" type="curve" smooth="yes"/>
      <point x="142" y="351"/>
      <point x="213" y="398"/>
      <point x="281" y="398" type="curve" smooth="yes"/>
      <point x="376" y="398"/>
      <point x="455" y="322"/>
      <point x="455" y="203" type="curve" smooth="yes"/>
      <point x="455" y="84"/>
      <point x="377" y="10"/>
      <point x="268" y="10" type="curve" smooth="yes"/>
      <point x="205" y="10"/>
      <point x="150" y="24"/>
      <point x="99" y="52" type="curve" smooth="yes"/>
      <point x="88" y="58"/>
      <point x="84" y="72"/>
      <point x="90" y="83" type="curve" smooth="yes"/>
      <point x="96" y="94"/>
      <point x="110" y="98"/>
    </contour>
  </outline>
</glyph>
<glyph name="c" format="1">
  <advance width="436"/>
  <unicode hex="0063"/>
  <outline>
    <contour>
      <point x="342" y="338" type="curve" smooth="yes"/>
      <point x="317" y="346"/>
      <point x="287" y="352"/>
      <point x="260" y="352" type="curve" smooth="yes"/>
      <point x="157" y="352"/>
      <point x="97" y="286"/>
      <point x="97" y="195" type="curve" smooth="yes"/>
      <point x="97" y="115"/>
      <point x="157" y="56"/>
      <point x="259" y="56" type="curve" smooth="yes"/>
      <point x="297" y="56"/>
      <point x="327" y="63"/>
      <point x="353" y="73" type="curve" smooth="yes"/>
      <point x="364" y="78"/>
      <point x="378" y="72"/>
      <point x="382" y="60" type="curve" smooth="yes"/>
      <point x="387" y="49"/>
      <point x="381" y="35"/>
      <point x="369" y="31" type="curve" smooth="yes"/>
      <point x="339" y="19"/>
      <point x="303" y="10"/>
      <point x="259" y="10" type="curve" smooth="yes"/>
      <point x="123" y="10"/>
      <point x="51" y="93"/>
      <point x="51" y="195" type="curve"/>
      <point x="51" y="312"/>
      <point x="127" y="398"/>
      <point x="260" y="398" type="curve" smooth="yes"/>
      <point x="291" y="398"/>
      <point x="327" y="392"/>
      <point x="356" y="382" type="curve" smooth="yes"/>
      <point x="368" y="378"/>
      <point x="375" y="365"/>
      <point x="371" y="353" type="curve" smooth="yes"/>
      <point x="367" y="341"/>
      <point x="354" y="334"/>
    </contour>
  </outline>
</glyph>
<glyph name="d" format="1">
  <advance width="505"/>
  <unicode hex="0064"/>
  <outline>
    <contour>
      <point x="380" y="298" type="curve" smooth="yes"/>
      <point x="340" y="332"/>
      <point x="299" y="352"/>
      <point x="245" y="352" type="curve" smooth="yes"/>
      <point x="160" y="352"/>
      <point x="97" y="286"/>
      <point x="97" y="196" type="curve" smooth="yes"/>
      <point x="97" y="112"/>
      <point x="151" y="56"/>
      <point x="224" y="56" type="curve" smooth="yes"/>
      <point x="292" y="56"/>
      <point x="340" y="103"/>
      <point x="374" y="162" type="curve" smooth="yes"/>
      <point x="381" y="172"/>
      <point x="395" y="176"/>
      <point x="406" y="170" type="curve" smooth="yes"/>
      <point x="416" y="163"/>
      <point x="420" y="149"/>
      <point x="414" y="138" type="curve" smooth="yes"/>
      <point x="370" y="65"/>
      <point x="308" y="10"/>
      <point x="224" y="10" type="curve" smooth="yes"/>
      <point x="127" y="10"/>
      <point x="51" y="82"/>
      <point x="51" y="196" type="curve"/>
      <point x="51" y="314"/>
      <point x="134" y="398"/>
      <point x="245" y="398" type="curve" smooth="yes"/>
      <point x="311" y="398"/>
      <point x="360" y="374"/>
      <point x="410" y="334" type="curve" smooth="yes"/>
      <point x="419" y="326"/>
      <point x="421" y="311"/>
      <point x="413" y="301" type="curve" smooth="yes"/>
      <point x="405" y="292"/>
      <point x="390" y="290"/>
    </contour>
    <contour>
      <point x="418" y="544" type="curve" smooth="yes"/>
      <point x="418" y="33" type="line" smooth="yes"/>
      <point x="418" y="21"/>
      <point x="407" y="10"/>
      <point x="395" y="10" type="curve" smooth="yes"/>
      <point x="383" y="10"/>
      <point x="372" y="21"/>
      <point x="372" y="33" type="curve" smooth="yes"/>
      <point x="372" y="544" type="line" smooth="yes"/>
      <point x="372" y="556"/>
      <point x="383" y="567"/>
      <point x="395" y="567" type="curve" smooth="yes"/>
      <point x="407" y="567"/>
      <point x="418" y="556"/>
    </contour>
  </outline>
</glyph>
<glyph name="e" format="1">
  <advance width="460"/>
  <unicode hex="0065"/>
  <outline>
    <contour>
      <point x="87" y="226" type="curve" smooth="yes"/>
      <point x="296" y="226" type="line" smooth="yes"/>
      <point x="334" y="226"/>
      <point x="355" y="238"/>
      <point x="355" y="265" type="curve" smooth="yes"/>
      <point x="355" y="305"/>
      <point x="308" y="352"/>
      <point x="242" y="352" type="curve" smooth="yes"/>
      <point x="161" y="352"/>
      <point x="97" y="290"/>
      <point x="97" y="199" type="curve" smooth="yes"/>
      <point x="97" y="104"/>
      <point x="166" y="56"/>
      <point x="262" y="56" type="curve" smooth="yes"/>
      <point x="295" y="56"/>
      <point x="327" y="63"/>
      <point x="351" y="72" type="curve" smooth="yes"/>
      <point x="362" y="77"/>
      <point x="376" y="71"/>
      <point x="380" y="59" type="curve" smooth="yes"/>
      <point x="385" y="48"/>
      <point x="379" y="34"/>
      <point x="367" y="30" type="curve" smooth="yes"/>
      <point x="339" y="19"/>
      <point x="301" y="10"/>
      <point x="262" y="10" type="curve" smooth="yes"/>
      <point x="136" y="10"/>
      <point x="51" y="78"/>
      <point x="51" y="199" type="curve"/>
      <point x="51" y="318"/>
      <point x="137" y="398"/>
      <point x="242" y="398" type="curve" smooth="yes"/>
      <point x="342" y="398"/>
      <point x="401" y="321"/>
      <point x="401" y="265" type="curve" smooth="yes"/>
      <point x="401" y="216"/>
      <point x="378" y="180"/>
      <point x="296" y="180" type="curve" smooth="yes"/>
      <point x="87" y="180" type="line" smooth="yes"/>
      <point x="75" y="180"/>
      <point x="64" y="191"/>
      <point x="64" y="203" type="curve" smooth="yes"/>
      <point x="64" y="215"/>
      <point x="75" y="226"/>
    </contour>
  </outline>
</glyph>
<glyph name="f" format="1">
  <advance width="318"/>
  <unicode hex="0066"/>
  <outline>
    <contour>
      <point x="271" y="547" type="curve" smooth="yes"/>
      <point x="187" y="542"/>
      <point x="157" y="507"/>
      <point x="157" y="448" type="curve" smooth="yes"/>
      <point x="157" y="33" type="line" smooth="yes"/>
      <point x="157" y="21"/>
      <point x="146" y="10"/>
      <point x="134" y="10" type="curve" smooth="yes"/>
      <point x="122" y="10"/>
      <point x="111" y="21"/>
      <point x="111" y="33" type="curve" smooth="yes"/>
      <point x="111" y="448" type="line" smooth="yes"/>
      <point x="111" y="529"/>
      <point x="145" y="586"/>
      <point x="269" y="593" type="curve" smooth="yes"/>
      <point x="281" y="594"/>
      <point x="292" y="584"/>
      <point x="293" y="571" type="curve" smooth="yes"/>
      <point x="294" y="559"/>
      <point x="284" y="548"/>
    </contour>
    <contour>
      <point x="46" y="398" type="curve" smooth="yes"/>
      <point x="272" y="398" type="line" smooth="yes"/>
      <point x="284" y="398"/>
      <point x="295" y="387"/>
      <point x="295" y="375" type="curve" smooth="yes"/>
      <point x="295" y="363"/>
      <point x="284" y="352"/>
      <point x="272" y="352" type="curve" smooth="yes"/>
      <point x="46" y="352" type="line" smooth="yes"/>
      <point x="34" y="352"/>
      <point x="23" y="363"/>
      <point x="23" y="375" type="curve" smooth="yes"/>
      <point x="23" y="387"/>
      <point x="34" y="398"/>
    </contour>
  </outline>
</glyph>
<glyph name="g" format="1">
  <advance width="503"/>
  <unicode hex="0067"/>
  <outline>
    <contour>
      <point x="383" y="307" type="curve" smooth="yes"/>
      <point x="335" y="331"/>
      <point x="302" y="342"/>
      <point x="250" y="342" type="curve" smooth="yes"/>
      <point x="172" y="342"/>
      <point x="97" y="281"/>
      <point x="97" y="185" type="curve" smooth="yes"/>
      <point x="97" y="97"/>
      <point x="156" y="58"/>
      <point x="216" y="58" type="curve" smooth="yes"/>
      <point x="275" y="58"/>
      <point x="333" y="92"/>
      <point x="373" y="154" type="curve" smooth="yes"/>
      <point x="379" y="165"/>
      <point x="394" y="168"/>
      <point x="404" y="161" type="curve" smooth="yes"/>
      <point x="415" y="155"/>
      <point x="418" y="140"/>
      <point x="411" y="130" type="curve" smooth="yes"/>
      <point x="363" y="52"/>
      <point x="289" y="12"/>
      <point x="216" y="12" type="curve" smooth="yes"/>
      <point x="134" y="12"/>
      <point x="51" y="63"/>
      <point x="51" y="185" type="curve"/>
      <point x="51" y="309"/>
      <point x="150" y="388"/>
      <point x="250" y="388" type="curve" smooth="yes"/>
      <point x="310" y="388"/>
      <point x="347" y="375"/>
      <point x="403" y="349" type="curve" smooth="yes"/>
      <point x="414" y="343"/>
      <point x="419" y="329"/>
      <point x="414" y="318" type="curve" smooth="yes"/>
      <point x="408" y="307"/>
      <point x="394" y="302"/>
    </contour>
    <contour>
      <point x="162" y="-135" type="curve" smooth="yes"/>
      <point x="306" y="-135"/>
      <point x="370" y="-54"/>
      <point x="370" y="69" type="curve" smooth="yes"/>
      <point x="370" y="365" type="line" smooth="yes"/>
      <point x="370" y="377"/>
      <point x="381" y="388"/>
      <point x="393" y="388" type="curve" smooth="yes"/>
      <point x="405" y="388"/>
      <point x="416" y="377"/>
      <point x="416" y="365" type="curve" smooth="yes"/>
      <point x="416" y="69" type="line" smooth="yes"/>
      <point x="416" y="-82"/>
      <point x="338" y="-181"/>
      <point x="162" y="-181" type="curve" smooth="yes"/>
      <point x="150" y="-181"/>
      <point x="139" y="-170"/>
      <point x="139" y="-158" type="curve" smooth="yes"/>
      <point x="139" y="-146"/>
      <point x="150" y="-135"/>
    </contour>
  </outline>
</glyph>
<glyph name="i" format="1">
  <advance width="232"/>
  <unicode hex="0069"/>
  <outline>
    <contour>
      <point x="116" y="596" type="curve" smooth="yes"/>
      <point x="139" y="596"/>
      <point x="157" y="577"/>
      <point x="157" y="547" type="curve" smooth="yes"/>
      <point x="157" y="516"/>
      <point x="139" y="500"/>
      <point x="117" y="500" type="curve" smooth="yes"/>
      <point x="94" y="500"/>
      <point x="75" y="518"/>
      <point x="75" y="547" type="curve" smooth="yes"/>
      <point x="75" y="577"/>
      <point x="93" y="596"/>
    </contour>
    <contour>
      <point x="93" y="23" type="curve" smooth="yes"/>
      <point x="93" y="365" type="line" smooth="yes"/>
      <point x="93" y="377"/>
      <point x="104" y="388"/>
      <point x="116" y="388" type="curve" smooth="yes"/>
      <point x="128" y="388"/>
      <point x="139" y="377"/>
      <point x="139" y="365" type="curve" smooth="yes"/>
      <point x="139" y="23" type="line" smooth="yes"/>
      <point x="139" y="11"/>
      <point x="128" y="0"/>
      <point x="116" y="0" type="curve" smooth="yes"/>
      <point x="104" y="0"/>
      <point x="93" y="11"/>
    </contour>
    <contour>
      <point x="116" y="550" type="curve" smooth="yes"/>
      <point x="115" y="550"/>
      <point x="121" y="543"/>
      <point x="121" y="547" type="curve" smooth="yes"/>
      <point x="121" y="550"/>
      <point x="117" y="546"/>
      <point x="117" y="546" type="curve" smooth="yes"/>
      <point x="117" y="546"/>
      <point x="111" y="552"/>
      <point x="111" y="547" type="curve" smooth="yes"/>
      <point x="111" y="543"/>
      <point x="117" y="550"/>
    </contour>
  </outline>
</glyph>
<glyph name="j" format="1">
  <advance width="232"/>
  <unicode hex="006A"/>
  <outline>
    <contour>
      <point x="116" y="606" type="curve" smooth="yes"/>
      <point x="139" y="606"/>
      <point x="157" y="587"/>
      <point x="157" y="557" type="curve" smooth="yes"/>
      <point x="157" y="526"/>
      <point x="139" y="510"/>
      <point x="117" y="510" type="curve" smooth="yes"/>
      <point x="94" y="510"/>
      <point x="75" y="528"/>
      <point x="75" y="557" type="curve" smooth="yes"/>
      <point x="75" y="587"/>
      <point x="93" y="606"/>
    </contour>
    <contour>
      <point x="-2" y="-104" type="curve" smooth="yes"/>
      <point x="59" y="-80"/>
      <point x="93" y="-34"/>
      <point x="93" y="52" type="curve" smooth="yes"/>
      <point x="93" y="375" type="line" smooth="yes"/>
      <point x="93" y="387"/>
      <point x="104" y="398"/>
      <point x="116" y="398" type="curve" smooth="yes"/>
      <point x="128" y="398"/>
      <point x="139" y="387"/>
      <point x="139" y="375" type="curve" smooth="yes"/>
      <point x="139" y="52" type="line" smooth="yes"/>
      <point x="139" y="-60"/>
      <point x="93" y="-116"/>
      <point x="14" y="-146" type="curve" smooth="yes"/>
      <point x="3" y="-151"/>
      <point x="-11" y="-145"/>
      <point x="-15" y="-133" type="curve" smooth="yes"/>
      <point x="-20" y="-122"/>
      <point x="-14" y="-108"/>
    </contour>
    <contour>
      <point x="116" y="560" type="curve" smooth="yes"/>
      <point x="115" y="560"/>
      <point x="121" y="553"/>
      <point x="121" y="557" type="curve" smooth="yes"/>
      <point x="121" y="560"/>
      <point x="117" y="556"/>
      <point x="117" y="556" type="curve" smooth="yes"/>
      <point x="117" y="556"/>
      <point x="111" y="562"/>
      <point x="111" y="557" type="curve" smooth="yes"/>
      <point x="111" y="553"/>
      <point x="117" y="560"/>
    </contour>
  </outline>
</glyph>
<glyph name="k" format="1">
  <advance width="469"/>
  <unicode hex="006B"/>
  <outline>
    <contour>
      <point x="87" y="23" type="curve" smooth="yes"/>
      <point x="87" y="534" type="line" smooth="yes"/>
      <point x="87" y="546"/>
      <point x="98" y="557"/>
      <point x="110" y="557" type="curve" smooth="yes"/>
      <point x="122" y="557"/>
      <point x="133" y="546"/>
      <point x="133" y="534" type="curve" smooth="yes"/>
      <point x="133" y="23" type="line" smooth="yes"/>
      <point x="133" y="11"/>
      <point x="122" y="0"/>
      <point x="110" y="0" type="curve" smooth="yes"/>
      <point x="98" y="0"/>
      <point x="87" y="11"/>
    </contour>
    <contour>
      <point x="253" y="262" type="curve" smooth="yes"/>
      <point x="414" y="36" type="line" smooth="yes"/>
      <point x="421" y="26"/>
      <point x="418" y="11"/>
      <point x="408" y="4" type="curve" smooth="yes"/>
      <point x="398" y="-3"/>
      <point x="383" y="0"/>
      <point x="376" y="10" type="curve" smooth="yes"/>
      <point x="215" y="236" type="line" smooth="yes"/>
      <point x="208" y="246"/>
      <point x="211" y="261"/>
      <point x="221" y="268" type="curve" smooth="yes"/>
      <point x="231" y="275"/>
      <point x="246" y="272"/>
    </contour>
    <contour>
      <point x="396" y="347" type="curve" smooth="yes"/>
      <point x="126" y="135" type="line" smooth="yes"/>
      <point x="116" y="127"/>
      <point x="102" y="129"/>
      <point x="94" y="139" type="curve" smooth="yes"/>
      <point x="86" y="149"/>
      <point x="88" y="163"/>
      <point x="98" y="171" type="curve" smooth="yes"/>
      <point x="368" y="383" type="line" smooth="yes"/>
      <point x="378" y="391"/>
      <point x="392" y="389"/>
      <point x="400" y="379" type="curve" smooth="yes"/>
      <point x="408" y="369"/>
      <point x="406" y="355"/>
    </contour>
  </outline>
</glyph>
<glyph name="m" format="1">
  <advance width="752"/>
  <unicode hex="006D"/>
  <outline>
    <contour>
      <point x="87" y="33" type="curve" smooth="yes"/>
      <point x="87" y="375" type="line" smooth="yes"/>
      <point x="87" y="387"/>
      <point x="98" y="398"/>
      <point x="110" y="398" type="curve" smooth="yes"/>
      <point x="122" y="398"/>
      <point x="133" y="387"/>
      <point x="133" y="375" type="curve" smooth="yes"/>
      <point x="133" y="33" type="line" smooth="yes"/>
      <point x="133" y="21"/>
      <point x="122" y="10"/>
      <point x="110" y="10" type="curve" smooth="yes"/>
      <point x="98" y="10"/>
      <point x="87" y="21"/>
    </contour>
    <contour>
      <point x="359" y="33" type="curve" smooth="yes"/>
      <point x="359" y="243" type="line" smooth="yes"/>
      <point x="359" y="324"/>
      <point x="323" y="352"/>
      <point x="273" y="352" type="curve" smooth="yes"/>
      <point x="222" y="352"/>
      <point x="168" y="314"/>
      <point x="129" y="271" type="curve" smooth="yes"/>
      <point x="121" y="261"/>
      <point x="106" y="261"/>
      <point x="97" y="269" type="curve" smooth="yes"/>
      <point x="87" y="277"/>
      <point x="87" y="292"/>
      <point x="95" y="301" type="curve" smooth="yes"/>
      <point x="144" y="356"/>
      <point x="210" y="398"/>
      <point x="273" y="398" type="curve" smooth="yes"/>
      <point x="345" y="398"/>
      <point x="405" y="368"/>
      <point x="405" y="243" type="curve" smooth="yes"/>
      <point x="405" y="33" type="line" smooth="yes"/>
      <point x="405" y="21"/>
      <point x="394" y="10"/>
      <point x="382" y="10" type="curve" smooth="yes"/>
      <point x="370" y="10"/>
      <point x="359" y="21"/>
    </contour>
    <contour>
      <point x="629" y="33" type="curve" smooth="yes"/>
      <point x="629" y="243" type="line" smooth="yes"/>
      <point x="629" y="324"/>
      <point x="593" y="352"/>
      <point x="543" y="352" type="curve" smooth="yes"/>
      <point x="492" y="352"/>
      <point x="439" y="314"/>
      <point x="399" y="270" type="curve" smooth="yes"/>
      <point x="391" y="261"/>
      <point x="376" y="261"/>
      <point x="366" y="269" type="curve" smooth="yes"/>
      <point x="357" y="277"/>
      <point x="357" y="292"/>
      <point x="365" y="302" type="curve" smooth="yes"/>
      <point x="415" y="356"/>
      <point x="480" y="398"/>
      <point x="543" y="398" type="curve" smooth="yes"/>
      <point x="615" y="398"/>
      <point x="675" y="368"/>
      <point x="675" y="243" type="curve" smooth="yes"/>
      <point x="675" y="33" type="line" smooth="yes"/>
      <point x="675" y="21"/>
      <point x="664" y="10"/>
      <point x="652" y="10" type="curve" smooth="yes"/>
      <point x="640" y="10"/>
      <point x="629" y="21"/>
    </contour>
  </outline>
</glyph>
<glyph name="n" format="1">
  <advance width="497"/>
  <unicode hex="006E"/>
  <outline>
    <contour>
      <point x="87" y="33" type="curve" smooth="yes"/>
      <point x="87" y="375" type="line" smooth="yes"/>
      <point x="87" y="387"/>
      <point x="98" y="398"/>
      <point x="110" y="398" type="curve" smooth="yes"/>
      <point x="122" y="398"/>
      <point x="133" y="387"/>
      <point x="133" y="375" type="curve" smooth="yes"/>
      <point x="133" y="33" type="line" smooth="yes"/>
      <point x="133" y="21"/>
      <point x="122" y="10"/>
      <point x="110" y="10" type="curve" smooth="yes"/>
      <point x="98" y="10"/>
      <point x="87" y="21"/>
    </contour>
    <contour>
      <point x="374" y="33" type="curve" smooth="yes"/>
      <point x="374" y="233" type="line" smooth="yes"/>
      <point x="374" y="316"/>
      <point x="339" y="352"/>
      <point x="285" y="352" type="curve" smooth="yes"/>
      <point x="228" y="352"/>
      <point x="174" y="315"/>
      <point x="130" y="272" type="curve" smooth="yes"/>
      <point x="121" y="263"/>
      <point x="107" y="263"/>
      <point x="98" y="272" type="curve" smooth="yes"/>
      <point x="89" y="281"/>
      <point x="89" y="295"/>
      <point x="98" y="304" type="curve" smooth="yes"/>
      <point x="150" y="357"/>
      <point x="216" y="398"/>
      <point x="285" y="398" type="curve" smooth="yes"/>
      <point x="359" y="398"/>
      <point x="420" y="360"/>
      <point x="420" y="233" type="curve" smooth="yes"/>
      <point x="420" y="33" type="line" smooth="yes"/>
      <point x="420" y="21"/>
      <point x="409" y="10"/>
      <point x="397" y="10" type="curve" smooth="yes"/>
      <point x="385" y="10"/>
      <point x="374" y="21"/>
    </contour>
  </outline>
</glyph>
<glyph name="o" format="1">
  <advance width="495"/>
  <unicode hex="006F"/>
  <outline>
    <contour>
      <point x="247" y="392" type="curve" smooth="yes"/>
      <point x="368" y="392"/>
      <point x="444" y="301"/>
      <point x="444" y="189" type="curve" smooth="yes"/>
      <point x="444" y="80"/>
      <point x="367" y="-4"/>
      <point x="247" y="-4" type="curve" smooth="yes"/>
      <point x="127" y="-4"/>
      <point x="50" y="81"/>
      <point x="50" y="191" type="curve"/>
      <point x="50" y="301"/>
      <point x="125" y="392"/>
    </contour>
    <contour>
      <point x="247" y="346" type="curve" smooth="yes"/>
      <point x="153" y="346"/>
      <point x="96" y="275"/>
      <point x="96" y="191" type="curve" smooth="yes"/>
      <point x="96" y="107"/>
      <point x="155" y="42"/>
      <point x="247" y="42" type="curve" smooth="yes"/>
      <point x="339" y="42"/>
      <point x="398" y="106"/>
      <point x="398" y="189" type="curve" smooth="yes"/>
      <point x="398" y="275"/>
      <point x="340" y="346"/>
    </contour>
  </outline>
</glyph>
<glyph name="p" format="1">
  <advance width="503"/>
  <unicode hex="0070"/>
  <outline>
    <contour>
      <point x="87" y="-158" type="curve" smooth="yes"/>
      <point x="87" y="375" type="line" smooth="yes"/>
      <point x="87" y="387"/>
      <point x="98" y="398"/>
      <point x="110" y="398" type="curve" smooth="yes"/>
      <point x="122" y="398"/>
      <point x="133" y="387"/>
      <point x="133" y="375" type="curve" smooth="yes"/>
      <point x="133" y="-158" type="line" smooth="yes"/>
      <point x="133" y="-170"/>
      <point x="122" y="-181"/>
      <point x="110" y="-181" type="curve" smooth="yes"/>
      <point x="98" y="-181"/>
      <point x="87" y="-170"/>
    </contour>
    <contour>
      <point x="125" y="115" type="curve" smooth="yes"/>
      <point x="166" y="80"/>
      <point x="216" y="56"/>
      <point x="265" y="56" type="curve" smooth="yes"/>
      <point x="350" y="56"/>
      <point x="407" y="121"/>
      <point x="407" y="204" type="curve" smooth="yes"/>
      <point x="407" y="298"/>
      <point x="347" y="352"/>
      <point x="277" y="352" type="curve" smooth="yes"/>
      <point x="219" y="352"/>
      <point x="170" y="312"/>
      <point x="130" y="255" type="curve" smooth="yes"/>
      <point x="123" y="245"/>
      <point x="108" y="242"/>
      <point x="98" y="249" type="curve" smooth="yes"/>
      <point x="88" y="256"/>
      <point x="85" y="271"/>
      <point x="92" y="281" type="curve" smooth="yes"/>
      <point x="142" y="352"/>
      <point x="205" y="398"/>
      <point x="277" y="398" type="curve" smooth="yes"/>
      <point x="369" y="398"/>
      <point x="453" y="332"/>
      <point x="453" y="204" type="curve" smooth="yes"/>
      <point x="453" y="93"/>
      <point x="376" y="10"/>
      <point x="265" y="10" type="curve" smooth="yes"/>
      <point x="206" y="10"/>
      <point x="146" y="38"/>
      <point x="95" y="79" type="curve" smooth="yes"/>
      <point x="86" y="87"/>
      <point x="84" y="102"/>
      <point x="92" y="112" type="curve" smooth="yes"/>
      <point x="100" y="121"/>
      <point x="115" y="123"/>
    </contour>
  </outline>
</glyph>
<glyph name="q" format="1">
  <advance width="505"/>
  <unicode hex="0071"/>
  <outline>
    <contour>
      <point x="418" y="375" type="curve" smooth="yes"/>
      <point x="418" y="-158" type="line" smooth="yes"/>
      <point x="418" y="-170"/>
      <point x="407" y="-181"/>
      <point x="395" y="-181" type="curve" smooth="yes"/>
      <point x="383" y="-181"/>
      <point x="372" y="-170"/>
      <point x="372" y="-158" type="curve" smooth="yes"/>
      <point x="372" y="375" type="line" smooth="yes"/>
      <point x="372" y="387"/>
      <point x="383" y="398"/>
      <point x="395" y="398" type="curve" smooth="yes"/>
      <point x="407" y="398"/>
      <point x="418" y="387"/>
    </contour>
    <contour>
      <point x="383" y="315" type="curve" smooth="yes"/>
      <point x="345" y="338"/>
      <point x="304" y="352"/>
      <point x="251" y="352" type="curve" smooth="yes"/>
      <point x="168" y="352"/>
      <point x="97" y="290"/>
      <point x="97" y="189" type="curve" smooth="yes"/>
      <point x="97" y="106"/>
      <point x="157" y="56"/>
      <point x="222" y="56" type="curve" smooth="yes"/>
      <point x="279" y="56"/>
      <point x="335" y="88"/>
      <point x="374" y="153" type="curve" smooth="yes"/>
      <point x="381" y="164"/>
      <point x="395" y="167"/>
      <point x="406" y="161" type="curve" smooth="yes"/>
      <point x="417" y="154"/>
      <point x="420" y="140"/>
      <point x="414" y="129" type="curve" smooth="yes"/>
      <point x="363" y="48"/>
      <point x="293" y="10"/>
      <point x="222" y="10" type="curve" smooth="yes"/>
      <point x="135" y="10"/>
      <point x="51" y="76"/>
      <point x="51" y="189" type="curve"/>
      <point x="51" y="320"/>
      <point x="144" y="398"/>
      <point x="251" y="398" type="curve" smooth="yes"/>
      <point x="314" y="398"/>
      <point x="363" y="382"/>
      <point x="407" y="353" type="curve" smooth="yes"/>
      <point x="418" y="347"/>
      <point x="421" y="332"/>
      <point x="414" y="322" type="curve" smooth="yes"/>
      <point x="408" y="311"/>
      <point x="393" y="308"/>
    </contour>
  </outline>
</glyph>
<glyph name="r" format="1">
  <advance width="346"/>
  <unicode hex="0072"/>
  <outline>
    <contour>
      <point x="87" y="23" type="curve" smooth="yes"/>
      <point x="87" y="365" type="line" smooth="yes"/>
      <point x="87" y="377"/>
      <point x="98" y="388"/>
      <point x="110" y="388" type="curve" smooth="yes"/>
      <point x="122" y="388"/>
      <point x="133" y="377"/>
      <point x="133" y="365" type="curve" smooth="yes"/>
      <point x="133" y="23" type="line" smooth="yes"/>
      <point x="133" y="11"/>
      <point x="122" y="0"/>
      <point x="110" y="0" type="curve" smooth="yes"/>
      <point x="98" y="0"/>
      <point x="87" y="11"/>
    </contour>
    <contour>
      <point x="92" y="246" type="curve" smooth="yes"/>
      <point x="143" y="326"/>
      <point x="204" y="376"/>
      <point x="299" y="388" type="curve" smooth="yes"/>
      <point x="311" y="389"/>
      <point x="323" y="380"/>
      <point x="325" y="368" type="curve" smooth="yes"/>
      <point x="326" y="356"/>
      <point x="317" y="344"/>
      <point x="305" y="342" type="curve" smooth="yes"/>
      <point x="224" y="332"/>
      <point x="173" y="288"/>
      <point x="130" y="222" type="curve" smooth="yes"/>
      <point x="124" y="211"/>
      <point x="109" y="208"/>
      <point x="99" y="215" type="curve" smooth="yes"/>
      <point x="88" y="221"/>
      <point x="85" y="236"/>
    </contour>
  </outline>
</glyph>
<glyph name="s" format="1">
  <advance width="450"/>
  <unicode hex="0073"/>
  <outline>
    <contour>
      <point x="330" y="341" type="curve" smooth="yes"/>
      <point x="303" y="348"/>
      <point x="267" y="355"/>
      <point x="227" y="355" type="curve" smooth="yes"/>
      <point x="159" y="355"/>
      <point x="122" y="328"/>
      <point x="122" y="294" type="curve" smooth="yes"/>
      <point x="122" y="264"/>
      <point x="157" y="244"/>
      <point x="221" y="238" type="curve" smooth="yes"/>
      <point x="261" y="234" type="line" smooth="yes"/>
      <point x="359" y="224"/>
      <point x="392" y="171"/>
      <point x="392" y="119" type="curve" smooth="yes"/>
      <point x="392" y="65"/>
      <point x="357" y="6"/>
      <point x="233" y="6" type="curve" smooth="yes"/>
      <point x="183" y="6"/>
      <point x="131" y="16"/>
      <point x="84" y="36" type="curve" smooth="yes"/>
      <point x="72" y="41"/>
      <point x="67" y="55"/>
      <point x="72" y="66" type="curve" smooth="yes"/>
      <point x="77" y="78"/>
      <point x="91" y="83"/>
      <point x="102" y="78" type="curve" smooth="yes"/>
      <point x="143" y="60"/>
      <point x="189" y="52"/>
      <point x="233" y="52" type="curve" smooth="yes"/>
      <point x="307" y="52"/>
      <point x="346" y="81"/>
      <point x="346" y="119" type="curve" smooth="yes"/>
      <point x="346" y="155"/>
      <point x="315" y="182"/>
      <point x="257" y="188" type="curve" smooth="yes"/>
      <point x="217" y="192" type="line" smooth="yes"/>
      <point x="101" y="204"/>
      <point x="76" y="250"/>
      <point x="76" y="294" type="curve" smooth="yes"/>
      <point x="76" y="342"/>
      <point x="109" y="401"/>
      <point x="227" y="401" type="curve" smooth="yes"/>
      <point x="271" y="401"/>
      <point x="311" y="394"/>
      <point x="342" y="385" type="curve" smooth="yes"/>
      <point x="354" y="382"/>
      <point x="361" y="369"/>
      <point x="358" y="357" type="curve" smooth="yes"/>
      <point x="355" y="345"/>
      <point x="342" y="338"/>
    </contour>
  </outline>
</glyph>
<glyph name="t" format="1">
  <advance width="354"/>
  <unicode hex="0074"/>
  <outline>
    <contour>
      <point x="157" y="501" type="curve" smooth="yes"/>
      <point x="157" y="150" type="line" smooth="yes"/>
      <point x="157" y="88"/>
      <point x="198" y="58"/>
      <point x="279" y="56" type="curve" smooth="yes"/>
      <point x="292" y="56"/>
      <point x="302" y="45"/>
      <point x="302" y="33" type="curve" smooth="yes"/>
      <point x="302" y="20"/>
      <point x="291" y="10"/>
      <point x="279" y="10" type="curve" smooth="yes"/>
      <point x="158" y="12"/>
      <point x="111" y="64"/>
      <point x="111" y="150" type="curve" smooth="yes"/>
      <point x="111" y="501" type="line" smooth="yes"/>
      <point x="111" y="513"/>
      <point x="122" y="524"/>
      <point x="134" y="524" type="curve" smooth="yes"/>
      <point x="146" y="524"/>
      <point x="157" y="513"/>
    </contour>
    <contour>
      <point x="46" y="398" type="curve" smooth="yes"/>
      <point x="292" y="398" type="line" smooth="yes"/>
      <point x="304" y="398"/>
      <point x="315" y="387"/>
      <point x="315" y="375" type="curve" smooth="yes"/>
      <point x="315" y="363"/>
      <point x="304" y="352"/>
      <point x="292" y="352" type="curve" smooth="yes"/>
      <point x="46" y="352" type="line" smooth="yes"/>
      <point x="34" y="352"/>
      <point x="23" y="363"/>
      <point x="23" y="375" type="curve" smooth="yes"/>
      <point x="23" y="387"/>
      <point x="34" y="398"/>
    </contour>
  </outline>
</glyph>
<glyph name="u" format="1">
  <advance width="497"/>
  <unicode hex="0075"/>
  <outline>
    <contour>
      <point x="410" y="365" type="curve" smooth="yes"/>
      <point x="410" y="23" type="line" smooth="yes"/>
      <point x="410" y="11"/>
      <point x="399" y="0"/>
      <point x="387" y="0" type="curve" smooth="yes"/>
      <point x="375" y="0"/>
      <point x="364" y="11"/>
      <point x="364" y="23" type="curve" smooth="yes"/>
      <point x="364" y="365" type="line" smooth="yes"/>
      <point x="364" y="377"/>
      <point x="375" y="388"/>
      <point x="387" y="388" type="curve" smooth="yes"/>
      <point x="399" y="388"/>
      <point x="410" y="377"/>
    </contour>
    <contour>
      <point x="123" y="365" type="curve" smooth="yes"/>
      <point x="123" y="165" type="line" smooth="yes"/>
      <point x="123" y="82"/>
      <point x="158" y="46"/>
      <point x="212" y="46" type="curve" smooth="yes"/>
      <point x="269" y="46"/>
      <point x="327" y="92"/>
      <point x="364" y="143" type="curve" smooth="yes"/>
      <point x="372" y="154"/>
      <point x="386" y="156"/>
      <point x="396" y="149" type="curve" smooth="yes"/>
      <point x="407" y="141"/>
      <point x="409" y="127"/>
      <point x="402" y="117" type="curve" smooth="yes"/>
      <point x="355" y="52"/>
      <point x="281" y="0"/>
      <point x="212" y="0" type="curve" smooth="yes"/>
      <point x="138" y="0"/>
      <point x="77" y="38"/>
      <point x="77" y="165" type="curve" smooth="yes"/>
      <point x="77" y="365" type="line" smooth="yes"/>
      <point x="77" y="377"/>
      <point x="88" y="388"/>
      <point x="100" y="388" type="curve" smooth="yes"/>
      <point x="112" y="388"/>
      <point x="123" y="377"/>
    </contour>
  </outline>
</glyph>
<glyph name="v" format="1">
  <advance width="451"/>
  <unicode hex="0076"/>
  <outline>
    <contour>
      <point x="84" y="373" type="curve" smooth="yes"/>
      <point x="143" y="222"/>
      <point x="196" y="116"/>
      <point x="249" y="31" type="curve"/>
      <point x="229" y="42" type="line"/>
      <point x="232" y="42" type="line"/>
      <point x="212" y="31" type="line"/>
      <point x="264" y="116"/>
      <point x="328" y="264"/>
      <point x="367" y="373" type="curve" smooth="yes"/>
      <point x="372" y="385"/>
      <point x="385" y="391"/>
      <point x="397" y="387" type="curve" smooth="yes"/>
      <point x="409" y="382"/>
      <point x="415" y="369"/>
      <point x="411" y="357" type="curve" smooth="yes"/>
      <point x="370" y="246"/>
      <point x="304" y="94"/>
      <point x="252" y="7" type="curve" smooth="yes"/>
      <point x="248" y="1"/>
      <point x="239" y="-4"/>
      <point x="232" y="-4" type="curve" smooth="yes"/>
      <point x="229" y="-4" type="line" smooth="yes"/>
      <point x="222" y="-4"/>
      <point x="213" y="1"/>
      <point x="209" y="7" type="curve" smooth="yes"/>
      <point x="156" y="94"/>
      <point x="101" y="202"/>
      <point x="42" y="357" type="curve" smooth="yes"/>
      <point x="37" y="368"/>
      <point x="43" y="382"/>
      <point x="55" y="386" type="curve" smooth="yes"/>
      <point x="66" y="391"/>
      <point x="80" y="385"/>
    </contour>
  </outline>
</glyph>
<glyph name="w" format="1">
  <advance width="699"/>
  <unicode hex="0077"/>
  <outline>
    <contour>
      <point x="95" y="380" type="curve" smooth="yes"/>
      <point x="132" y="249"/>
      <point x="179" y="125"/>
      <point x="220" y="40" type="curve"/>
      <point x="199" y="53" type="line"/>
      <point x="201" y="53" type="line"/>
      <point x="180" y="40" type="line"/>
      <point x="223" y="125"/>
      <point x="290" y="263"/>
      <point x="324" y="371" type="curve" smooth="yes"/>
      <point x="328" y="383"/>
      <point x="341" y="390"/>
      <point x="353" y="386" type="curve" smooth="yes"/>
      <point x="365" y="382"/>
      <point x="372" y="369"/>
      <point x="368" y="357" type="curve" smooth="yes"/>
      <point x="334" y="247"/>
      <point x="265" y="107"/>
      <point x="222" y="20" type="curve" smooth="yes"/>
      <point x="218" y="13"/>
      <point x="209" y="7"/>
      <point x="201" y="7" type="curve" smooth="yes"/>
      <point x="199" y="7" type="line" smooth="yes"/>
      <point x="191" y="7"/>
      <point x="182" y="13"/>
      <point x="178" y="20" type="curve" smooth="yes"/>
      <point x="137" y="107"/>
      <point x="88" y="233"/>
      <point x="51" y="368" type="curve" smooth="yes"/>
      <point x="48" y="380"/>
      <point x="55" y="393"/>
      <point x="67" y="396" type="curve" smooth="yes"/>
      <point x="79" y="399"/>
      <point x="92" y="392"/>
    </contour>
    <contour>
      <point x="375" y="372" type="curve" smooth="yes"/>
      <point x="421" y="240"/>
      <point x="474" y="125"/>
      <point x="519" y="40" type="curve"/>
      <point x="499" y="52" type="line"/>
      <point x="501" y="52" type="line"/>
      <point x="480" y="38" type="line"/>
      <point x="519" y="124"/>
      <point x="572" y="260"/>
      <point x="605" y="379" type="curve" smooth="yes"/>
      <point x="608" y="391"/>
      <point x="621" y="398"/>
      <point x="633" y="395" type="curve" smooth="yes"/>
      <point x="645" y="392"/>
      <point x="652" y="379"/>
      <point x="649" y="367" type="curve" smooth="yes"/>
      <point x="616" y="246"/>
      <point x="561" y="106"/>
      <point x="522" y="20" type="curve" smooth="yes"/>
      <point x="519" y="12"/>
      <point x="509" y="6"/>
      <point x="501" y="6" type="curve" smooth="yes"/>
      <point x="499" y="6" type="line" smooth="yes"/>
      <point x="491" y="6"/>
      <point x="482" y="11"/>
      <point x="479" y="18" type="curve" smooth="yes"/>
      <point x="432" y="105"/>
      <point x="379" y="222"/>
      <point x="331" y="356" type="curve" smooth="yes"/>
      <point x="327" y="368"/>
      <point x="334" y="382"/>
      <point x="345" y="386" type="curve" smooth="yes"/>
      <point x="357" y="390"/>
      <point x="371" y="383"/>
    </contour>
  </outline>
</glyph>
<glyph name="x" format="1">
  <advance width="447"/>
  <unicode hex="0078"/>
  <outline>
    <contour>
      <point x="46" y="48" type="curve" smooth="yes"/>
      <point x="111" y="122"/>
      <point x="268" y="292"/>
      <point x="346" y="389" type="curve" smooth="yes"/>
      <point x="354" y="399"/>
      <point x="369" y="401"/>
      <point x="378" y="393" type="curve" smooth="yes"/>
      <point x="388" y="385"/>
      <point x="390" y="370"/>
      <point x="382" y="361" type="curve" smooth="yes"/>
      <point x="304" y="262"/>
      <point x="145" y="92"/>
      <point x="80" y="18" type="curve" smooth="yes"/>
      <point x="72" y="8"/>
      <point x="57" y="8"/>
      <point x="48" y="16" type="curve" smooth="yes"/>
      <point x="38" y="24"/>
      <point x="38" y="39"/>
    </contour>
    <contour>
      <point x="94" y="390" type="curve" smooth="yes"/>
      <point x="171" y="298"/>
      <point x="311" y="151"/>
      <point x="401" y="48" type="curve" smooth="yes"/>
      <point x="409" y="39"/>
      <point x="408" y="24"/>
      <point x="399" y="16" type="curve" smooth="yes"/>
      <point x="390" y="8"/>
      <point x="375" y="9"/>
      <point x="367" y="18" type="curve" smooth="yes"/>
      <point x="277" y="121"/>
      <point x="137" y="268"/>
      <point x="58" y="360" type="curve" smooth="yes"/>
      <point x="50" y="370"/>
      <point x="52" y="385"/>
      <point x="61" y="393" type="curve" smooth="yes"/>
      <point x="71" y="401"/>
      <point x="86" y="399"/>
    </contour>
  </outline>
</glyph>
<glyph name="y" format="1">
  <advance width="450"/>
  <unicode hex="0079"/>
  <outline>
    <contour>
      <point x="52" y="-121" type="curve" smooth="yes"/>
      <point x="112" y="-87"/>
      <point x="166" y="-45"/>
      <point x="219" y="46" type="curve" smooth="yes"/>
      <point x="271" y="134"/>
      <point x="330" y="270"/>
      <point x="364" y="382" type="curve" smooth="yes"/>
      <point x="368" y="394"/>
      <point x="381" y="401"/>
      <point x="393" y="397" type="curve" smooth="yes"/>
      <point x="405" y="393"/>
      <point x="412" y="380"/>
      <point x="408" y="368" type="curve" smooth="yes"/>
      <point x="374" y="254"/>
      <point x="313" y="114"/>
      <point x="259" y="22" type="curve" smooth="yes"/>
      <point x="200" y="-77"/>
      <point x="140" y="-123"/>
      <point x="74" y="-161" type="curve" smooth="yes"/>
      <point x="64" y="-167"/>
      <point x="49" y="-163"/>
      <point x="43" y="-152" type="curve" smooth="yes"/>
      <point x="37" y="-142"/>
      <point x="41" y="-127"/>
    </contour>
    <contour>
      <point x="87" y="384" type="curve" smooth="yes"/>
      <point x="140" y="233"/>
      <point x="205" y="124"/>
      <point x="255" y="46" type="curve" smooth="yes"/>
      <point x="262" y="36"/>
      <point x="259" y="21"/>
      <point x="248" y="15" type="curve" smooth="yes"/>
      <point x="238" y="8"/>
      <point x="223" y="11"/>
      <point x="217" y="22" type="curve" smooth="yes"/>
      <point x="165" y="102"/>
      <point x="98" y="213"/>
      <point x="43" y="368" type="curve" smooth="yes"/>
      <point x="39" y="380"/>
      <point x="46" y="394"/>
      <point x="57" y="398" type="curve" smooth="yes"/>
      <point x="69" y="402"/>
      <point x="83" y="395"/>
    </contour>
  </outline>
</glyph>
<glyph name="z" format="1">
  <advance width="444"/>
  <unicode hex="007A"/>
  <outline>
    <contour>
      <point x="355" y="352" type="curve" smooth="yes"/>
      <point x="86" y="352" type="line" smooth="yes"/>
      <point x="74" y="352"/>
      <point x="63" y="363"/>
      <point x="63" y="375" type="curve" smooth="yes"/>
      <point x="63" y="387"/>
      <point x="74" y="398"/>
      <point x="86" y="398" type="curve" smooth="yes"/>
      <point x="355" y="398" type="line" smooth="yes"/>
      <point x="367" y="398"/>
      <point x="378" y="387"/>
      <point x="378" y="375" type="curve" smooth="yes"/>
      <point x="378" y="363"/>
      <point x="367" y="352"/>
    </contour>
    <contour>
      <point x="71" y="56" type="curve" smooth="yes"/>
      <point x="372" y="56" type="line" smooth="yes"/>
      <point x="384" y="56"/>
      <point x="395" y="45"/>
      <point x="395" y="33" type="curve" smooth="yes"/>
      <point x="395" y="21"/>
      <point x="384" y="10"/>
      <point x="372" y="10" type="curve" smooth="yes"/>
      <point x="71" y="10" type="line" smooth="yes"/>
      <point x="59" y="10"/>
      <point x="48" y="21"/>
      <point x="48" y="33" type="curve" smooth="yes"/>
      <point x="48" y="45"/>
      <point x="59" y="56"/>
    </contour>
    <contour>
      <point x="379" y="360" type="curve" smooth="yes"/>
      <point x="95" y="26" type="line" smooth="yes"/>
      <point x="86" y="17"/>
      <point x="72" y="15"/>
      <point x="62" y="23" type="curve" smooth="yes"/>
      <point x="53" y="32"/>
      <point x="51" y="46"/>
      <point x="59" y="56" type="curve" smooth="yes"/>
      <point x="343" y="390" type="line" smooth="yes"/>
      <point x="352" y="399"/>
      <point x="366" y="401"/>
      <point x="376" y="393" type="curve" smooth="yes"/>
      <point x="385" y="384"/>
      <point x="387" y="370"/>
    </contour>
  </outline>
</glyph>
<glyph name="braceleft" format="1">
  <advance width="315"/>
  <unicode hex="007B"/>
  <outline>
    <contour>
      <point x="273" y="580" type="curve" smooth="yes"/>
      <point x="253" y="580" type="line" smooth="yes"/>
      <point x="176" y="580"/>
      <point x="118" y="544"/>
      <point x="118" y="495" type="curve" smooth="yes"/>
      <point x="118" y="430"/>
      <point x="185" y="395"/>
      <point x="185" y="337" type="curve" smooth="yes"/>
      <point x="185" y="294"/>
      <point x="153" y="256"/>
      <point x="63" y="243" type="curve"/>
      <point x="83" y="266" type="line"/>
      <point x="83" y="260" type="line"/>
      <point x="63" y="283" type="line"/>
      <point x="153" y="270"/>
      <point x="185" y="232"/>
      <point x="185" y="189" type="curve" smooth="yes"/>
      <point x="185" y="131"/>
      <point x="118" y="96"/>
      <point x="118" y="31" type="curve" smooth="yes"/>
      <point x="118" y="-18"/>
      <point x="176" y="-54"/>
      <point x="253" y="-54" type="curve" smooth="yes"/>
      <point x="273" y="-54" type="line" smooth="yes"/>
      <point x="285" y="-54"/>
      <point x="296" y="-65"/>
      <point x="296" y="-77" type="curve" smooth="yes"/>
      <point x="296" y="-89"/>
      <point x="285" y="-100"/>
      <point x="273" y="-100" type="curve" smooth="yes"/>
      <point x="253" y="-100" type="line" smooth="yes"/>
      <point x="134" y="-100"/>
      <point x="72" y="-34"/>
      <point x="72" y="31" type="curve" smooth="yes"/>
      <point x="72" y="96"/>
      <point x="139" y="131"/>
      <point x="139" y="189" type="curve" smooth="yes"/>
      <point x="139" y="218"/>
      <point x="103" y="230"/>
      <point x="57" y="237" type="curve" smooth="yes"/>
      <point x="46" y="239"/>
      <point x="37" y="249"/>
      <point x="37" y="260" type="curve" smooth="yes"/>
      <point x="37" y="266" type="line" smooth="yes"/>
      <point x="37" y="277"/>
      <point x="46" y="287"/>
      <point x="57" y="289" type="curve" smooth="yes"/>
      <point x="103" y="296"/>
      <point x="139" y="308"/>
      <point x="139" y="337" type="curve" smooth="yes"/>
      <point x="139" y="395"/>
      <point x="72" y="430"/>
      <point x="72" y="495" type="curve" smooth="yes"/>
      <point x="72" y="560"/>
      <point x="134" y="626"/>
      <point x="253" y="626" type="curve" smooth="yes"/>
      <point x="273" y="626" type="line" smooth="yes"/>
      <point x="285" y="626"/>
      <point x="296" y="615"/>
      <point x="296" y="603" type="curve" smooth="yes"/>
      <point x="296" y="591"/>
      <point x="285" y="580"/>
    </contour>
  </outline>
</glyph>
<glyph name="bar" format="1">
  <advance width="300"/>
  <unicode hex="007C"/>
  <outline>
    <contour>
      <point x="173" y="614" type="curve" smooth="yes"/>
      <point x="173" y="-68" type="line" smooth="yes"/>
      <point x="173" y="-80"/>
      <point x="162" y="-91"/>
      <point x="150" y="-91" type="curve" smooth="yes"/>
      <point x="138" y="-91"/>
      <point x="127" y="-80"/>
      <point x="127" y="-68" type="curve" smooth="yes"/>
      <point x="127" y="614" type="line" smooth="yes"/>
      <point x="127" y="626"/>
      <point x="138" y="637"/>
      <point x="150" y="637" type="curve" smooth="yes"/>
      <point x="162" y="637"/>
      <point x="173" y="626"/>
    </contour>
  </outline>
</glyph>
<glyph name="asciitilde" format="1">
  <advance width="612"/>
  <unicode hex="007E"/>
  <outline>
    <contour>
      <point x="92" y="218" type="curve" smooth="yes"/>
      <point x="134" y="303"/>
      <point x="173" y="339"/>
      <point x="222" y="339" type="curve" smooth="yes"/>
      <point x="264" y="339"/>
      <point x="291" y="312"/>
      <point x="326" y="273" type="curve" smooth="yes"/>
      <point x="351" y="244"/>
      <point x="372" y="223"/>
      <point x="400" y="223" type="curve" smooth="yes"/>
      <point x="442" y="223"/>
      <point x="463" y="263"/>
      <point x="495" y="330" type="curve" smooth="yes"/>
      <point x="501" y="341"/>
      <point x="515" y="346"/>
      <point x="526" y="341" type="curve" smooth="yes"/>
      <point x="537" y="335"/>
      <point x="542" y="321"/>
      <point x="537" y="310" type="curve" smooth="yes"/>
      <point x="491" y="213"/>
      <point x="454" y="177"/>
      <point x="400" y="177" type="curve" smooth="yes"/>
      <point x="360" y="177"/>
      <point x="329" y="200"/>
      <point x="292" y="243" type="curve" smooth="yes"/>
      <point x="269" y="268"/>
      <point x="252" y="293"/>
      <point x="222" y="293" type="curve" smooth="yes"/>
      <point x="185" y="293"/>
      <point x="162" y="255"/>
      <point x="134" y="198" type="curve" smooth="yes"/>
      <point x="128" y="187"/>
      <point x="114" y="182"/>
      <point x="103" y="187" type="curve" smooth="yes"/>
      <point x="92" y="193"/>
      <point x="87" y="207"/>
    </contour>
  </outline>
</glyph>
<glyph name="cent" format="1">
  <advance width="433"/>
  <unicode hex="00A2"/>
  <outline>
    <contour>
      <point x="262" y="507" type="curve" smooth="yes"/>
      <point x="262" y="23" type="line" smooth="yes"/>
      <point x="262" y="11"/>
      <point x="251" y="0"/>
      <point x="239" y="0" type="curve" smooth="yes"/>
      <point x="227" y="0"/>
      <point x="216" y="11"/>
      <point x="216" y="23" type="curve" smooth="yes"/>
      <point x="216" y="507" type="line" smooth="yes"/>
      <point x="216" y="519"/>
      <point x="227" y="530"/>
      <point x="239" y="530" type="curve" smooth="yes"/>
      <point x="251" y="530"/>
      <point x="262" y="519"/>
    </contour>
    <contour>
      <point x="342" y="390" type="curve" smooth="yes"/>
      <point x="317" y="397"/>
      <point x="287" y="403"/>
      <point x="260" y="403" type="curve" smooth="yes"/>
      <point x="158" y="403"/>
      <point x="97" y="342"/>
      <point x="97" y="255" type="curve" smooth="yes"/>
      <point x="97" y="179"/>
      <point x="158" y="123"/>
      <point x="259" y="123" type="curve" smooth="yes"/>
      <point x="297" y="123"/>
      <point x="327" y="130"/>
      <point x="353" y="140" type="curve" smooth="yes"/>
      <point x="365" y="144"/>
      <point x="378" y="137"/>
      <point x="383" y="126" type="curve" smooth="yes"/>
      <point x="387" y="114"/>
      <point x="380" y="101"/>
      <point x="369" y="96" type="curve" smooth="yes"/>
      <point x="339" y="86"/>
      <point x="303" y="77"/>
      <point x="259" y="77" type="curve" smooth="yes"/>
      <point x="122" y="77"/>
      <point x="51" y="157"/>
      <point x="51" y="255" type="curve"/>
      <point x="51" y="366"/>
      <point x="126" y="449"/>
      <point x="260" y="449" type="curve" smooth="yes"/>
      <point x="291" y="449"/>
      <point x="327" y="443"/>
      <point x="356" y="434" type="curve" smooth="yes"/>
      <point x="367" y="431"/>
      <point x="375" y="417"/>
      <point x="371" y="405" type="curve" smooth="yes"/>
      <point x="368" y="394"/>
      <point x="354" y="386"/>
    </contour>
  </outline>
</glyph>
<glyph name="sterling" format="1">
  <advance width="456"/>
  <unicode hex="00A3"/>
  <outline>
    <contour>
      <point x="51" y="59" type="curve" smooth="yes"/>
      <point x="128" y="129" type="line" smooth="yes"/>
      <point x="151" y="150"/>
      <point x="170" y="176"/>
      <point x="170" y="200" type="curve" smooth="yes"/>
      <point x="170" y="222"/>
      <point x="156" y="249"/>
      <point x="137" y="272" type="curve" smooth="yes"/>
      <point x="94" y="322"/>
      <point x="69" y="361"/>
      <point x="69" y="414" type="curve" smooth="yes"/>
      <point x="69" y="482"/>
      <point x="119" y="550"/>
      <point x="214" y="550" type="curve" smooth="yes"/>
      <point x="265" y="550"/>
      <point x="311" y="535"/>
      <point x="349" y="510" type="curve" smooth="yes"/>
      <point x="360" y="504"/>
      <point x="363" y="489"/>
      <point x="356" y="479" type="curve" smooth="yes"/>
      <point x="350" y="468"/>
      <point x="335" y="465"/>
      <point x="325" y="472" type="curve" smooth="yes"/>
      <point x="293" y="491"/>
      <point x="255" y="504"/>
      <point x="214" y="504" type="curve" smooth="yes"/>
      <point x="151" y="504"/>
      <point x="115" y="460"/>
      <point x="115" y="414" type="curve" smooth="yes"/>
      <point x="115" y="371"/>
      <point x="138" y="342"/>
      <point x="171" y="302" type="curve" smooth="yes"/>
      <point x="200" y="269"/>
      <point x="216" y="230"/>
      <point x="216" y="200" type="curve" smooth="yes"/>
      <point x="216" y="166"/>
      <point x="193" y="126"/>
      <point x="158" y="95" type="curve" smooth="yes"/>
      <point x="81" y="25" type="line" smooth="yes"/>
      <point x="72" y="17"/>
      <point x="57" y="17"/>
      <point x="49" y="27" type="curve" smooth="yes"/>
      <point x="41" y="36"/>
      <point x="41" y="51"/>
    </contour>
    <contour>
      <point x="370" y="10" type="curve" smooth="yes"/>
      <point x="56" y="10" type="line" smooth="yes"/>
      <point x="44" y="10"/>
      <point x="33" y="21"/>
      <point x="33" y="33" type="curve" smooth="yes"/>
      <point x="33" y="45"/>
      <point x="44" y="56"/>
      <point x="56" y="56" type="curve" smooth="yes"/>
      <point x="370" y="56" type="line" smooth="yes"/>
      <point x="382" y="56"/>
      <point x="393" y="45"/>
      <point x="393" y="33" type="curve" smooth="yes"/>
      <point x="393" y="21"/>
      <point x="382" y="10"/>
    </contour>
    <contour>
      <point x="62" y="281" type="curve" smooth="yes"/>
      <point x="361" y="281" type="line" smooth="yes"/>
      <point x="373" y="281"/>
      <point x="384" y="270"/>
      <point x="384" y="258" type="curve" smooth="yes"/>
      <point x="384" y="246"/>
      <point x="373" y="235"/>
      <point x="361" y="235" type="curve" smooth="yes"/>
      <point x="62" y="235" type="line" smooth="yes"/>
      <point x="50" y="235"/>
      <point x="39" y="246"/>
      <point x="39" y="258" type="curve" smooth="yes"/>
      <point x="39" y="270"/>
      <point x="50" y="281"/>
    </contour>
  </outline>
</glyph>
<glyph name="currency" format="1">
  <advance width="521"/>
  <unicode hex="00A4"/>
  <outline>
    <contour>
      <point x="260" y="409" type="curve" smooth="yes"/>
      <point x="371" y="409"/>
      <point x="441" y="325"/>
      <point x="441" y="222" type="curve" smooth="yes"/>
      <point x="441" y="122"/>
      <point x="370" y="45"/>
      <point x="260" y="45" type="curve" smooth="yes"/>
      <point x="150" y="45"/>
      <point x="79" y="123"/>
      <point x="79" y="224" type="curve" smooth="yes"/>
      <point x="79" y="325"/>
      <point x="148" y="409"/>
    </contour>
    <contour>
      <point x="260" y="363" type="curve" smooth="yes"/>
      <point x="176" y="363"/>
      <point x="125" y="299"/>
      <point x="125" y="224" type="curve" smooth="yes"/>
      <point x="125" y="149"/>
      <point x="178" y="91"/>
      <point x="260" y="91" type="curve" smooth="yes"/>
      <point x="342" y="91"/>
      <point x="395" y="148"/>
      <point x="395" y="222" type="curve" smooth="yes"/>
      <point x="395" y="299"/>
      <point x="343" y="363"/>
    </contour>
    <contour>
      <point x="427" y="9" type="curve" smooth="yes"/>
      <point x="356" y="87" type="line" smooth="yes"/>
      <point x="348" y="96"/>
      <point x="348" y="111"/>
      <point x="358" y="119" type="curve" smooth="yes"/>
      <point x="367" y="127"/>
      <point x="382" y="127"/>
      <point x="390" y="117" type="curve" smooth="yes"/>
      <point x="461" y="39" type="line" smooth="yes"/>
      <point x="469" y="30"/>
      <point x="469" y="15"/>
      <point x="459" y="7" type="curve" smooth="yes"/>
      <point x="450" y="-1"/>
      <point x="435" y="-1"/>
    </contour>
    <contour>
      <point x="130" y="333" type="curve" smooth="yes"/>
      <point x="65" y="404" type="line" smooth="yes"/>
      <point x="57" y="414"/>
      <point x="57" y="429"/>
      <point x="66" y="437" type="curve" smooth="yes"/>
      <point x="76" y="445"/>
      <point x="91" y="445"/>
      <point x="99" y="436" type="curve" smooth="yes"/>
      <point x="164" y="365" type="line" smooth="yes"/>
      <point x="172" y="355"/>
      <point x="172" y="340"/>
      <point x="163" y="332" type="curve" smooth="yes"/>
      <point x="153" y="324"/>
      <point x="138" y="324"/>
    </contour>
    <contour>
      <point x="356" y="365" type="curve" smooth="yes"/>
      <point x="421" y="437" type="line" smooth="yes"/>
      <point x="429" y="447"/>
      <point x="444" y="447"/>
      <point x="453" y="439" type="curve" smooth="yes"/>
      <point x="463" y="431"/>
      <point x="463" y="416"/>
      <point x="455" y="407" type="curve" smooth="yes"/>
      <point x="390" y="335" type="line" smooth="yes"/>
      <point x="382" y="325"/>
      <point x="367" y="325"/>
      <point x="358" y="333" type="curve" smooth="yes"/>
      <point x="348" y="341"/>
      <point x="348" y="356"/>
    </contour>
    <contour>
      <point x="60" y="39" type="curve" smooth="yes"/>
      <point x="128" y="114" type="line" smooth="yes"/>
      <point x="136" y="124"/>
      <point x="151" y="124"/>
      <point x="160" y="116" type="curve" smooth="yes"/>
      <point x="170" y="108"/>
      <point x="170" y="93"/>
      <point x="162" y="84" type="curve" smooth="yes"/>
      <point x="94" y="9" type="line" smooth="yes"/>
      <point x="86" y="-1"/>
      <point x="71" y="-1"/>
      <point x="62" y="7" type="curve" smooth="yes"/>
      <point x="52" y="15"/>
      <point x="52" y="30"/>
    </contour>
  </outline>
</glyph>
<glyph name="yen" format="1">
  <advance width="560"/>
  <unicode hex="00A5"/>
  <outline>
    <contour>
      <point x="311" y="275" type="curve" smooth="yes"/>
      <point x="311" y="33" type="line" smooth="yes"/>
      <point x="311" y="21"/>
      <point x="300" y="10"/>
      <point x="288" y="10" type="curve" smooth="yes"/>
      <point x="276" y="10"/>
      <point x="265" y="21"/>
      <point x="265" y="33" type="curve" smooth="yes"/>
      <point x="265" y="275" type="line" smooth="yes"/>
      <point x="265" y="287"/>
      <point x="276" y="298"/>
      <point x="288" y="298" type="curve" smooth="yes"/>
      <point x="300" y="298"/>
      <point x="311" y="287"/>
    </contour>
    <contour>
      <point x="112" y="531" type="curve" smooth="yes"/>
      <point x="160" y="462"/>
      <point x="264" y="344"/>
      <point x="301" y="307" type="curve" smooth="yes"/>
      <point x="310" y="299"/>
      <point x="310" y="284"/>
      <point x="301" y="275" type="curve" smooth="yes"/>
      <point x="293" y="266"/>
      <point x="278" y="266"/>
      <point x="269" y="275" type="curve" smooth="yes"/>
      <point x="230" y="312"/>
      <point x="124" y="434"/>
      <point x="74" y="505" type="curve" smooth="yes"/>
      <point x="67" y="515"/>
      <point x="70" y="530"/>
      <point x="80" y="537" type="curve" smooth="yes"/>
      <point x="90" y="544"/>
      <point x="105" y="541"/>
    </contour>
    <contour>
      <point x="272" y="297" type="curve" smooth="yes"/>
      <point x="321" y="347"/>
      <point x="412" y="463"/>
      <point x="460" y="531" type="curve" smooth="yes"/>
      <point x="467" y="541"/>
      <point x="482" y="544"/>
      <point x="492" y="537" type="curve" smooth="yes"/>
      <point x="502" y="530"/>
      <point x="505" y="515"/>
      <point x="498" y="505" type="curve" smooth="yes"/>
      <point x="448" y="435"/>
      <point x="355" y="315"/>
      <point x="304" y="265" type="curve" smooth="yes"/>
      <point x="295" y="256"/>
      <point x="281" y="256"/>
      <point x="272" y="265" type="curve" smooth="yes"/>
      <point x="263" y="274"/>
      <point x="263" y="288"/>
    </contour>
    <contour>
      <point x="113" y="300" type="curve" smooth="yes"/>
      <point x="461" y="300" type="line" smooth="yes"/>
      <point x="473" y="300"/>
      <point x="484" y="289"/>
      <point x="484" y="277" type="curve" smooth="yes"/>
      <point x="484" y="265"/>
      <point x="473" y="254"/>
      <point x="461" y="254" type="curve" smooth="yes"/>
      <point x="113" y="254" type="line" smooth="yes"/>
      <point x="101" y="254"/>
      <point x="90" y="265"/>
      <point x="90" y="277" type="curve" smooth="yes"/>
      <point x="90" y="289"/>
      <point x="101" y="300"/>
    </contour>
    <contour>
      <point x="113" y="158" type="curve" smooth="yes"/>
      <point x="461" y="158" type="line" smooth="yes"/>
      <point x="473" y="158"/>
      <point x="484" y="147"/>
      <point x="484" y="135" type="curve" smooth="yes"/>
      <point x="484" y="123"/>
      <point x="473" y="112"/>
      <point x="461" y="112" type="curve" smooth="yes"/>
      <point x="113" y="112" type="line" smooth="yes"/>
      <point x="101" y="112"/>
      <point x="90" y="123"/>
      <point x="90" y="135" type="curve" smooth="yes"/>
      <point x="90" y="147"/>
      <point x="101" y="158"/>
    </contour>
  </outline>
</glyph>
<glyph name="brokenbar" format="1">
  <advance width="300"/>
  <unicode hex="00A6"/>
  <outline>
    <contour>
      <point x="173" y="159" type="curve" smooth="yes"/>
      <point x="173" y="-68" type="line" smooth="yes"/>
      <point x="173" y="-80"/>
      <point x="162" y="-91"/>
      <point x="150" y="-91" type="curve" smooth="yes"/>
      <point x="138" y="-91"/>
      <point x="127" y="-80"/>
      <point x="127" y="-68" type="curve" smooth="yes"/>
      <point x="127" y="159" type="line" smooth="yes"/>
      <point x="127" y="171"/>
      <point x="138" y="182"/>
      <point x="150" y="182" type="curve" smooth="yes"/>
      <point x="162" y="182"/>
      <point x="173" y="171"/>
    </contour>
    <contour>
      <point x="173" y="545" type="curve" smooth="yes"/>
      <point x="173" y="318" type="line" smooth="yes"/>
      <point x="173" y="306"/>
      <point x="162" y="295"/>
      <point x="150" y="295" type="curve" smooth="yes"/>
      <point x="138" y="295"/>
      <point x="127" y="306"/>
      <point x="127" y="318" type="curve" smooth="yes"/>
      <point x="127" y="545" type="line" smooth="yes"/>
      <point x="127" y="557"/>
      <point x="138" y="568"/>
      <point x="150" y="568" type="curve" smooth="yes"/>
      <point x="162" y="568"/>
      <point x="173" y="557"/>
    </contour>
  </outline>
</glyph>
<glyph name="section" format="1">
  <advance width="525"/>
  <unicode hex="00A7"/>
  <outline>
    <contour>
      <point x="386" y="478" type="curve" smooth="yes"/>
      <point x="341" y="492"/>
      <point x="309" y="501"/>
      <point x="243" y="501" type="curve" smooth="yes"/>
      <point x="181" y="501"/>
      <point x="130" y="475"/>
      <point x="130" y="438" type="curve" smooth="yes"/>
      <point x="130" y="402"/>
      <point x="162" y="369"/>
      <point x="267" y="353" type="curve" smooth="yes"/>
      <point x="414" y="324"/>
      <point x="450" y="271"/>
      <point x="450" y="211" type="curve" smooth="yes"/>
      <point x="450" y="151"/>
      <point x="404" y="92"/>
      <point x="263" y="92" type="curve" smooth="yes"/>
      <point x="251" y="92"/>
      <point x="240" y="103"/>
      <point x="240" y="115" type="curve" smooth="yes"/>
      <point x="240" y="127"/>
      <point x="251" y="138"/>
      <point x="263" y="138" type="curve" smooth="yes"/>
      <point x="350" y="138"/>
      <point x="404" y="165"/>
      <point x="404" y="211" type="curve" smooth="yes"/>
      <point x="404" y="257"/>
      <point x="358" y="288"/>
      <point x="261" y="307" type="curve" smooth="yes"/>
      <point x="98" y="331"/>
      <point x="84" y="392"/>
      <point x="84" y="438" type="curve" smooth="yes"/>
      <point x="84" y="489"/>
      <point x="135" y="547"/>
      <point x="243" y="547" type="curve" smooth="yes"/>
      <point x="315" y="547"/>
      <point x="351" y="538"/>
      <point x="400" y="522" type="curve" smooth="yes"/>
      <point x="412" y="518"/>
      <point x="419" y="505"/>
      <point x="415" y="493" type="curve" smooth="yes"/>
      <point x="411" y="481"/>
      <point x="398" y="474"/>
    </contour>
    <contour>
      <point x="233" y="308" type="curve" smooth="yes"/>
      <point x="168" y="308"/>
      <point x="120" y="282"/>
      <point x="120" y="231" type="curve" smooth="yes"/>
      <point x="120" y="193"/>
      <point x="150" y="156"/>
      <point x="258" y="138" type="curve" smooth="yes"/>
      <point x="406" y="112"/>
      <point x="440" y="72"/>
      <point x="440" y="11" type="curve" smooth="yes"/>
      <point x="440" y="-49"/>
      <point x="393" y="-113"/>
      <point x="253" y="-113" type="curve" smooth="yes"/>
      <point x="190" y="-113"/>
      <point x="129" y="-101"/>
      <point x="74" y="-76" type="curve" smooth="yes"/>
      <point x="63" y="-71"/>
      <point x="58" y="-57"/>
      <point x="63" y="-45" type="curve" smooth="yes"/>
      <point x="68" y="-34"/>
      <point x="82" y="-29"/>
      <point x="94" y="-34" type="curve" smooth="yes"/>
      <point x="143" y="-57"/>
      <point x="196" y="-67"/>
      <point x="253" y="-67" type="curve" smooth="yes"/>
      <point x="341" y="-67"/>
      <point x="394" y="-35"/>
      <point x="394" y="11" type="curve" smooth="yes"/>
      <point x="394" y="58"/>
      <point x="346" y="76"/>
      <point x="250" y="92" type="curve" smooth="yes"/>
      <point x="90" y="120"/>
      <point x="74" y="181"/>
      <point x="74" y="231" type="curve" smooth="yes"/>
      <point x="74" y="302"/>
      <point x="128" y="354"/>
      <point x="233" y="354" type="curve" smooth="yes"/>
      <point x="245" y="354"/>
      <point x="256" y="343"/>
      <point x="256" y="331" type="curve" smooth="yes"/>
      <point x="256" y="319"/>
      <point x="245" y="308"/>
    </contour>
  </outline>
</glyph>
<glyph name="dieresis" format="1">
  <advance width="490"/>
  <unicode hex="00A8"/>
  <outline>
    <contour>
      <point x="150" y="590" type="curve" smooth="yes"/>
      <point x="169" y="590"/>
      <point x="189" y="573"/>
      <point x="189" y="541" type="curve" smooth="yes"/>
      <point x="189" y="509"/>
      <point x="170" y="494"/>
      <point x="150" y="494" type="curve" smooth="yes"/>
      <point x="128" y="494"/>
      <point x="110" y="510"/>
      <point x="110" y="541" type="curve" smooth="yes"/>
      <point x="110" y="572"/>
      <point x="129" y="590"/>
    </contour>
    <contour>
      <point x="328" y="590" type="curve" smooth="yes"/>
      <point x="347" y="590"/>
      <point x="367" y="573"/>
      <point x="367" y="541" type="curve" smooth="yes"/>
      <point x="367" y="509"/>
      <point x="348" y="494"/>
      <point x="328" y="494" type="curve" smooth="yes"/>
      <point x="306" y="494"/>
      <point x="288" y="510"/>
      <point x="288" y="541" type="curve" smooth="yes"/>
      <point x="288" y="572"/>
      <point x="307" y="590"/>
    </contour>
    <contour>
      <point x="150" y="544" type="curve" smooth="yes"/>
      <point x="149" y="544"/>
      <point x="156" y="536"/>
      <point x="156" y="541" type="curve" smooth="yes"/>
      <point x="156" y="546"/>
      <point x="150" y="540"/>
      <point x="150" y="540" type="curve" smooth="yes"/>
      <point x="150" y="540"/>
      <point x="143" y="547"/>
      <point x="143" y="541" type="curve" smooth="yes"/>
      <point x="143" y="535"/>
      <point x="151" y="544"/>
    </contour>
    <contour>
      <point x="328" y="544" type="curve" smooth="yes"/>
      <point x="327" y="544"/>
      <point x="334" y="536"/>
      <point x="334" y="541" type="curve" smooth="yes"/>
      <point x="334" y="546"/>
      <point x="328" y="540"/>
      <point x="328" y="540" type="curve" smooth="yes"/>
      <point x="328" y="540"/>
      <point x="321" y="547"/>
      <point x="321" y="541" type="curve" smooth="yes"/>
      <point x="321" y="535"/>
      <point x="329" y="544"/>
    </contour>
  </outline>
</glyph>
<glyph name="copyright" format="1">
  <advance width="653"/>
  <unicode hex="00A9"/>
  <outline>
    <contour>
      <point x="329" y="550" type="curve" smooth="yes"/>
      <point x="481" y="550"/>
      <point x="602" y="437"/>
      <point x="602" y="275" type="curve" smooth="yes"/>
      <point x="602" y="121"/>
      <point x="501" y="1"/>
      <point x="329" y="1" type="curve" smooth="yes"/>
      <point x="165" y="1"/>
      <point x="51" y="122"/>
      <point x="51" y="272" type="curve"/>
      <point x="51" y="437"/>
      <point x="162" y="550"/>
    </contour>
    <contour>
      <point x="394" y="370" type="curve" smooth="yes"/>
      <point x="380" y="377"/>
      <point x="359" y="383"/>
      <point x="335" y="383" type="curve" smooth="yes"/>
      <point x="279" y="383"/>
      <point x="229" y="338"/>
      <point x="229" y="274" type="curve" smooth="yes"/>
      <point x="229" y="214"/>
      <point x="270" y="168"/>
      <point x="338" y="168" type="curve" smooth="yes"/>
      <point x="361" y="168"/>
      <point x="381" y="173"/>
      <point x="397" y="181" type="curve" smooth="yes"/>
      <point x="408" y="187"/>
      <point x="423" y="183"/>
      <point x="428" y="172" type="curve" smooth="yes"/>
      <point x="434" y="161"/>
      <point x="430" y="146"/>
      <point x="419" y="141" type="curve" smooth="yes"/>
      <point x="397" y="129"/>
      <point x="369" y="122"/>
      <point x="338" y="122" type="curve" smooth="yes"/>
      <point x="240" y="122"/>
      <point x="183" y="188"/>
      <point x="183" y="274" type="curve" smooth="yes"/>
      <point x="183" y="366"/>
      <point x="255" y="429"/>
      <point x="335" y="429" type="curve" smooth="yes"/>
      <point x="367" y="429"/>
      <point x="396" y="421"/>
      <point x="416" y="410" type="curve" smooth="yes"/>
      <point x="427" y="405"/>
      <point x="431" y="390"/>
      <point x="425" y="379" type="curve" smooth="yes"/>
      <point x="420" y="368"/>
      <point x="405" y="364"/>
    </contour>
    <contour>
      <point x="329" y="504" type="curve" smooth="yes"/>
      <point x="190" y="504"/>
      <point x="97" y="409"/>
      <point x="97" y="272" type="curve" smooth="yes"/>
      <point x="97" y="146"/>
      <point x="193" y="47"/>
      <point x="329" y="47" type="curve" smooth="yes"/>
      <point x="473" y="47"/>
      <point x="556" y="147"/>
      <point x="556" y="275" type="curve" smooth="yes"/>
      <point x="556" y="409"/>
      <point x="455" y="504"/>
    </contour>
  </outline>
</glyph>
<glyph name="ordfeminine" format="1">
  <advance width="444"/>
  <unicode hex="00AA"/>
  <outline>
    <contour>
      <point x="98" y="184" type="curve" smooth="yes"/>
      <point x="356" y="184" type="line" smooth="yes"/>
      <point x="367" y="184"/>
      <point x="376" y="175"/>
      <point x="376" y="164" type="curve" smooth="yes"/>
      <point x="376" y="153"/>
      <point x="367" y="144"/>
      <point x="356" y="144" type="curve" smooth="yes"/>
      <point x="98" y="144" type="line" smooth="yes"/>
      <point x="87" y="144"/>
      <point x="78" y="153"/>
      <point x="78" y="164" type="curve" smooth="yes"/>
      <point x="78" y="175"/>
      <point x="87" y="184"/>
    </contour>
    <contour>
      <point x="140" y="515" type="curve" smooth="yes"/>
      <point x="156" y="520"/>
      <point x="184" y="527"/>
      <point x="209" y="527" type="curve" smooth="yes"/>
      <point x="286" y="527"/>
      <point x="321" y="481"/>
      <point x="321" y="414" type="curve" smooth="yes"/>
      <point x="321" y="354" type="line" smooth="yes"/>
      <point x="321" y="325"/>
      <point x="327" y="306"/>
      <point x="340" y="291" type="curve" smooth="yes"/>
      <point x="347" y="283"/>
      <point x="346" y="270"/>
      <point x="338" y="263" type="curve" smooth="yes"/>
      <point x="330" y="256"/>
      <point x="317" y="257"/>
      <point x="310" y="265" type="curve" smooth="yes"/>
      <point x="291" y="286"/>
      <point x="281" y="311"/>
      <point x="281" y="354" type="curve" smooth="yes"/>
      <point x="281" y="414" type="line" smooth="yes"/>
      <point x="281" y="457"/>
      <point x="258" y="487"/>
      <point x="209" y="487" type="curve" smooth="yes"/>
      <point x="188" y="487"/>
      <point x="166" y="482"/>
      <point x="152" y="477" type="curve" smooth="yes"/>
      <point x="142" y="474"/>
      <point x="130" y="479"/>
      <point x="127" y="490" type="curve" smooth="yes"/>
      <point x="124" y="500"/>
      <point x="129" y="512"/>
    </contour>
    <contour>
      <point x="298" y="387" type="curve" smooth="yes"/>
      <point x="275" y="388"/>
      <point x="256" y="390"/>
      <point x="236" y="390" type="curve" smooth="yes"/>
      <point x="193" y="390"/>
      <point x="164" y="379"/>
      <point x="145" y="363" type="curve"/>
      <point x="146" y="364" type="line"/>
      <point x="136" y="354"/>
      <point x="134" y="344"/>
      <point x="134" y="332" type="curve" smooth="yes"/>
      <point x="134" y="315"/>
      <point x="149" y="298"/>
      <point x="179" y="298" type="curve" smooth="yes"/>
      <point x="224" y="298"/>
      <point x="256" y="315"/>
      <point x="285" y="354" type="curve" smooth="yes"/>
      <point x="291" y="363"/>
      <point x="304" y="365"/>
      <point x="313" y="358" type="curve" smooth="yes"/>
      <point x="322" y="352"/>
      <point x="324" y="339"/>
      <point x="317" y="330" type="curve" smooth="yes"/>
      <point x="280" y="279"/>
      <point x="238" y="258"/>
      <point x="179" y="258" type="curve" smooth="yes"/>
      <point x="115" y="258"/>
      <point x="94" y="301"/>
      <point x="94" y="332" type="curve" smooth="yes"/>
      <point x="94" y="356"/>
      <point x="100" y="374"/>
      <point x="118" y="392" type="curve" smooth="yes"/>
      <point x="118" y="392"/>
      <point x="119" y="393"/>
      <point x="119" y="393" type="curve" smooth="yes"/>
      <point x="144" y="415"/>
      <point x="179" y="430"/>
      <point x="236" y="430" type="curve" smooth="yes"/>
      <point x="256" y="430"/>
      <point x="277" y="428"/>
      <point x="300" y="427" type="curve" smooth="yes"/>
      <point x="311" y="427"/>
      <point x="319" y="417"/>
      <point x="319" y="406" type="curve" smooth="yes"/>
      <point x="319" y="395"/>
      <point x="309" y="387"/>
    </contour>
  </outline>
</glyph>
<glyph name="guillemotleft" format="1">
  <advance width="438"/>
  <unicode hex="00AB"/>
  <outline>
    <contour>
      <point x="259" y="213" type="curve" smooth="yes"/>
      <point x="370" y="63" type="line" smooth="yes"/>
      <point x="378" y="53"/>
      <point x="376" y="38"/>
      <point x="366" y="31" type="curve" smooth="yes"/>
      <point x="356" y="23"/>
      <point x="341" y="25"/>
      <point x="334" y="35" type="curve" smooth="yes"/>
      <point x="223" y="185" type="line" smooth="yes"/>
      <point x="215" y="195"/>
      <point x="217" y="210"/>
      <point x="227" y="217" type="curve" smooth="yes"/>
      <point x="237" y="225"/>
      <point x="252" y="223"/>
    </contour>
    <contour>
      <point x="370" y="340" type="curve" smooth="yes"/>
      <point x="259" y="190" type="line" smooth="yes"/>
      <point x="252" y="180"/>
      <point x="237" y="178"/>
      <point x="227" y="186" type="curve" smooth="yes"/>
      <point x="217" y="193"/>
      <point x="215" y="208"/>
      <point x="223" y="218" type="curve" smooth="yes"/>
      <point x="334" y="368" type="line" smooth="yes"/>
      <point x="341" y="378"/>
      <point x="356" y="380"/>
      <point x="366" y="372" type="curve" smooth="yes"/>
      <point x="376" y="365"/>
      <point x="378" y="350"/>
    </contour>
    <contour>
      <point x="89" y="213" type="curve" smooth="yes"/>
      <point x="200" y="63" type="line" smooth="yes"/>
      <point x="208" y="53"/>
      <point x="206" y="38"/>
      <point x="196" y="31" type="curve" smooth="yes"/>
      <point x="186" y="23"/>
      <point x="171" y="25"/>
      <point x="164" y="35" type="curve" smooth="yes"/>
      <point x="53" y="185" type="line" smooth="yes"/>
      <point x="45" y="195"/>
      <point x="47" y="210"/>
      <point x="57" y="217" type="curve" smooth="yes"/>
      <point x="67" y="225"/>
      <point x="82" y="223"/>
    </contour>
    <contour>
      <point x="200" y="340" type="curve" smooth="yes"/>
      <point x="89" y="190" type="line" smooth="yes"/>
      <point x="82" y="180"/>
      <point x="67" y="178"/>
      <point x="57" y="186" type="curve" smooth="yes"/>
      <point x="47" y="193"/>
      <point x="45" y="208"/>
      <point x="53" y="218" type="curve" smooth="yes"/>
      <point x="164" y="368" type="line" smooth="yes"/>
      <point x="171" y="378"/>
      <point x="186" y="380"/>
      <point x="196" y="372" type="curve" smooth="yes"/>
      <point x="206" y="365"/>
      <point x="208" y="350"/>
    </contour>
  </outline>
</glyph>
<glyph name="logicalnot" format="1">
  <advance width="481"/>
  <unicode hex="00AC"/>
  <outline>
    <contour>
      <point x="109" y="282" type="curve" smooth="yes"/>
      <point x="372" y="282" type="line" smooth="yes"/>
      <point x="384" y="282"/>
      <point x="395" y="271"/>
      <point x="395" y="259" type="curve" smooth="yes"/>
      <point x="395" y="247"/>
      <point x="384" y="236"/>
      <point x="372" y="236" type="curve" smooth="yes"/>
      <point x="109" y="236" type="line" smooth="yes"/>
      <point x="97" y="236"/>
      <point x="86" y="247"/>
      <point x="86" y="259" type="curve" smooth="yes"/>
      <point x="86" y="271"/>
      <point x="97" y="282"/>
    </contour>
    <contour>
      <point x="395" y="253" type="curve" smooth="yes"/>
      <point x="395" y="152" type="line" smooth="yes"/>
      <point x="395" y="140"/>
      <point x="384" y="129"/>
      <point x="372" y="129" type="curve" smooth="yes"/>
      <point x="360" y="129"/>
      <point x="349" y="140"/>
      <point x="349" y="152" type="curve" smooth="yes"/>
      <point x="349" y="253" type="line" smooth="yes"/>
      <point x="349" y="265"/>
      <point x="360" y="276"/>
      <point x="372" y="276" type="curve" smooth="yes"/>
      <point x="384" y="276"/>
      <point x="395" y="265"/>
    </contour>
  </outline>
</glyph>
<glyph name="registered" format="1">
  <advance width="560"/>
  <unicode hex="00AE"/>
  <outline>
    <contour>
      <point x="277" y="589" type="curve" smooth="yes"/>
      <point x="175" y="589"/>
      <point x="105" y="518"/>
      <point x="105" y="416" type="curve" smooth="yes"/>
      <point x="105" y="319"/>
      <point x="175" y="236"/>
      <point x="284" y="236" type="curve" smooth="yes"/>
      <point x="386" y="236"/>
      <point x="461" y="311"/>
      <point x="461" y="413" type="curve" smooth="yes"/>
      <point x="461" y="514"/>
      <point x="386" y="589"/>
    </contour>
    <contour>
      <point x="235" y="407" type="curve" smooth="yes"/>
      <point x="282" y="407" type="line" smooth="yes"/>
      <point x="310" y="407"/>
      <point x="325" y="424"/>
      <point x="325" y="446" type="curve" smooth="yes"/>
      <point x="325" y="470"/>
      <point x="306" y="482"/>
      <point x="282" y="482" type="curve" smooth="yes"/>
      <point x="225" y="482" type="line"/>
      <point x="245" y="502" type="line"/>
      <point x="245" y="326" type="line" smooth="yes"/>
      <point x="245" y="315"/>
      <point x="236" y="306"/>
      <point x="225" y="306" type="curve" smooth="yes"/>
      <point x="214" y="306"/>
      <point x="205" y="315"/>
      <point x="205" y="326" type="curve" smooth="yes"/>
      <point x="205" y="502" type="line" smooth="yes"/>
      <point x="205" y="513"/>
      <point x="214" y="522"/>
      <point x="225" y="522" type="curve" smooth="yes"/>
      <point x="282" y="522" type="line" smooth="yes"/>
      <point x="334" y="522"/>
      <point x="365" y="492"/>
      <point x="365" y="446" type="curve" smooth="yes"/>
      <point x="365" y="404"/>
      <point x="340" y="367"/>
      <point x="282" y="367" type="curve" smooth="yes"/>
      <point x="235" y="367" type="line" smooth="yes"/>
      <point x="224" y="367"/>
      <point x="215" y="376"/>
      <point x="215" y="387" type="curve" smooth="yes"/>
      <point x="215" y="398"/>
      <point x="224" y="407"/>
    </contour>
    <contour>
      <point x="324" y="394" type="curve" smooth="yes"/>
      <point x="371" y="339" type="line" smooth="yes"/>
      <point x="378" y="331"/>
      <point x="377" y="318"/>
      <point x="369" y="311" type="curve" smooth="yes"/>
      <point x="361" y="304"/>
      <point x="348" y="305"/>
      <point x="341" y="313" type="curve" smooth="yes"/>
      <point x="294" y="368" type="line" smooth="yes"/>
      <point x="287" y="376"/>
      <point x="288" y="389"/>
      <point x="296" y="396" type="curve" smooth="yes"/>
      <point x="304" y="403"/>
      <point x="317" y="402"/>
    </contour>
    <contour>
      <point x="277" y="629" type="curve" smooth="yes"/>
      <point x="410" y="629"/>
      <point x="501" y="536"/>
      <point x="501" y="413" type="curve" smooth="yes"/>
      <point x="501" y="289"/>
      <point x="408" y="196"/>
      <point x="284" y="196" type="curve" smooth="yes"/>
      <point x="151" y="196"/>
      <point x="65" y="297"/>
      <point x="65" y="416" type="curve" smooth="yes"/>
      <point x="65" y="542"/>
      <point x="151" y="629"/>
    </contour>
  </outline>
</glyph>
<glyph name="macron" format="1">
  <advance width="490"/>
  <unicode hex="00AF"/>
  <outline>
    <contour>
      <point x="346" y="524" type="curve" smooth="yes"/>
      <point x="145" y="524" type="line" smooth="yes"/>
      <point x="133" y="524"/>
      <point x="122" y="535"/>
      <point x="122" y="547" type="curve" smooth="yes"/>
      <point x="122" y="559"/>
      <point x="133" y="570"/>
      <point x="145" y="570" type="curve" smooth="yes"/>
      <point x="346" y="570" type="line" smooth="yes"/>
      <point x="358" y="570"/>
      <point x="369" y="559"/>
      <point x="369" y="547" type="curve" smooth="yes"/>
      <point x="369" y="535"/>
      <point x="358" y="524"/>
    </contour>
  </outline>
</glyph>
<glyph name="degree" format="1">
  <advance width="440"/>
  <unicode hex="00B0"/>
  <outline>
    <contour>
      <point x="219" y="546" type="curve" smooth="yes"/>
      <point x="316" y="546"/>
      <point x="383" y="475"/>
      <point x="383" y="383" type="curve" smooth="yes"/>
      <point x="383" y="296"/>
      <point x="316" y="226"/>
      <point x="220" y="226" type="curve" smooth="yes"/>
      <point x="123" y="226"/>
      <point x="57" y="297"/>
      <point x="57" y="383" type="curve"/>
      <point x="57" y="472"/>
      <point x="121" y="546"/>
    </contour>
    <contour>
      <point x="219" y="500" type="curve" smooth="yes"/>
      <point x="149" y="500"/>
      <point x="103" y="446"/>
      <point x="103" y="383" type="curve" smooth="yes"/>
      <point x="103" y="321"/>
      <point x="151" y="272"/>
      <point x="220" y="272" type="curve" smooth="yes"/>
      <point x="288" y="272"/>
      <point x="337" y="320"/>
      <point x="337" y="383" type="curve" smooth="yes"/>
      <point x="337" y="449"/>
      <point x="288" y="500"/>
    </contour>
  </outline>
</glyph>
<glyph name="plusminus" format="1">
  <advance width="530"/>
  <unicode hex="00B1"/>
  <outline>
    <contour>
      <point x="96" y="361" type="curve" smooth="yes"/>
      <point x="433" y="361" type="line" smooth="yes"/>
      <point x="445" y="361"/>
      <point x="456" y="350"/>
      <point x="456" y="338" type="curve" smooth="yes"/>
      <point x="456" y="326"/>
      <point x="445" y="315"/>
      <point x="433" y="315" type="curve" smooth="yes"/>
      <point x="96" y="315" type="line" smooth="yes"/>
      <point x="84" y="315"/>
      <point x="73" y="326"/>
      <point x="73" y="338" type="curve" smooth="yes"/>
      <point x="73" y="350"/>
      <point x="84" y="361"/>
    </contour>
    <contour>
      <point x="242" y="219" type="curve" smooth="yes"/>
      <point x="242" y="457" type="line" smooth="yes"/>
      <point x="242" y="469"/>
      <point x="253" y="480"/>
      <point x="265" y="480" type="curve" smooth="yes"/>
      <point x="277" y="480"/>
      <point x="288" y="469"/>
      <point x="288" y="457" type="curve" smooth="yes"/>
      <point x="288" y="219" type="line" smooth="yes"/>
      <point x="288" y="207"/>
      <point x="277" y="196"/>
      <point x="265" y="196" type="curve" smooth="yes"/>
      <point x="253" y="196"/>
      <point x="242" y="207"/>
    </contour>
    <contour>
      <point x="96" y="115" type="curve" smooth="yes"/>
      <point x="433" y="115" type="line" smooth="yes"/>
      <point x="445" y="115"/>
      <point x="456" y="104"/>
      <point x="456" y="92" type="curve" smooth="yes"/>
      <point x="456" y="80"/>
      <point x="445" y="69"/>
      <point x="433" y="69" type="curve" smooth="yes"/>
      <point x="96" y="69" type="line" smooth="yes"/>
      <point x="84" y="69"/>
      <point x="73" y="80"/>
      <point x="73" y="92" type="curve" smooth="yes"/>
      <point x="73" y="104"/>
      <point x="84" y="115"/>
    </contour>
  </outline>
</glyph>
<glyph name="acute" format="1">
  <advance width="490"/>
  <unicode hex="00B4"/>
  <outline>
    <contour>
      <point x="302" y="584" type="curve" smooth="yes"/>
      <point x="274" y="553"/>
      <point x="247" y="521"/>
      <point x="221" y="490" type="curve" smooth="yes"/>
      <point x="214" y="482"/>
      <point x="201" y="481"/>
      <point x="193" y="488" type="curve" smooth="yes"/>
      <point x="185" y="495"/>
      <point x="184" y="508"/>
      <point x="191" y="516" type="curve" smooth="yes"/>
      <point x="217" y="547"/>
      <point x="244" y="579"/>
      <point x="272" y="610" type="curve" smooth="yes"/>
      <point x="279" y="618"/>
      <point x="292" y="619"/>
      <point x="300" y="612" type="curve" smooth="yes"/>
      <point x="308" y="605"/>
      <point x="309" y="592"/>
    </contour>
  </outline>
</glyph>
<glyph name="paragraph" format="1">
  <advance width="556"/>
  <unicode hex="00B6"/>
  <outline>
    <contour>
      <point x="410" y="23" type="curve" smooth="yes"/>
      <point x="410" y="508" type="line"/>
      <point x="433" y="485" type="line"/>
      <point x="245" y="485" type="line" smooth="yes"/>
      <point x="159" y="485"/>
      <point x="100" y="432"/>
      <point x="100" y="354" type="curve" smooth="yes"/>
      <point x="100" y="281"/>
      <point x="149" y="222"/>
      <point x="245" y="222" type="curve" smooth="yes"/>
      <point x="301" y="222" type="line" smooth="yes"/>
      <point x="313" y="222"/>
      <point x="324" y="211"/>
      <point x="324" y="199" type="curve" smooth="yes"/>
      <point x="324" y="187"/>
      <point x="313" y="176"/>
      <point x="301" y="176" type="curve" smooth="yes"/>
      <point x="245" y="176" type="line" smooth="yes"/>
      <point x="115" y="176"/>
      <point x="54" y="257"/>
      <point x="54" y="354" type="curve"/>
      <point x="54" y="456"/>
      <point x="129" y="531"/>
      <point x="245" y="531" type="curve" smooth="yes"/>
      <point x="433" y="531" type="line" smooth="yes"/>
      <point x="446" y="531"/>
      <point x="456" y="521"/>
      <point x="456" y="508" type="curve" smooth="yes"/>
      <point x="456" y="23" type="line" smooth="yes"/>
      <point x="456" y="11"/>
      <point x="445" y="0"/>
      <point x="433" y="0" type="curve" smooth="yes"/>
      <point x="421" y="0"/>
      <point x="410" y="11"/>
    </contour>
    <contour>
      <point x="278" y="23" type="curve" smooth="yes"/>
      <point x="278" y="506" type="line" smooth="yes"/>
      <point x="278" y="518"/>
      <point x="289" y="529"/>
      <point x="301" y="529" type="curve" smooth="yes"/>
      <point x="313" y="529"/>
      <point x="324" y="518"/>
      <point x="324" y="506" type="curve" smooth="yes"/>
      <point x="324" y="23" type="line" smooth="yes"/>
      <point x="324" y="11"/>
      <point x="313" y="0"/>
      <point x="301" y="0" type="curve" smooth="yes"/>
      <point x="289" y="0"/>
      <point x="278" y="11"/>
    </contour>
  </outline>
</glyph>
<glyph name="cedilla" format="1">
  <advance width="490"/>
  <unicode hex="00B8"/>
  <outline>
    <contour>
      <point x="310" y="-100" type="curve" smooth="yes"/>
      <point x="283" y="-125"/>
      <point x="232" y="-176"/>
      <point x="209" y="-199" type="curve" smooth="yes"/>
      <point x="200" y="-208"/>
      <point x="186" y="-208"/>
      <point x="177" y="-199" type="curve" smooth="yes"/>
      <point x="168" y="-190"/>
      <point x="168" y="-176"/>
      <point x="177" y="-167" type="curve" smooth="yes"/>
      <point x="200" y="-144"/>
      <point x="251" y="-93"/>
      <point x="278" y="-66" type="curve" smooth="yes"/>
      <point x="287" y="-58"/>
      <point x="302" y="-58"/>
      <point x="311" y="-67" type="curve" smooth="yes"/>
      <point x="319" y="-76"/>
      <point x="319" y="-91"/>
    </contour>
  </outline>
</glyph>
<glyph name="ordmasculine" format="1">
  <advance width="438"/>
  <unicode hex="00BA"/>
  <outline>
    <contour>
      <point x="219" y="527" type="curve" smooth="yes"/>
      <point x="300" y="527"/>
      <point x="352" y="465"/>
      <point x="352" y="391" type="curve" smooth="yes"/>
      <point x="352" y="316"/>
      <point x="300" y="259"/>
      <point x="219" y="259" type="curve" smooth="yes"/>
      <point x="138" y="259"/>
      <point x="85" y="316"/>
      <point x="85" y="391" type="curve" smooth="yes"/>
      <point x="85" y="465"/>
      <point x="136" y="527"/>
    </contour>
    <contour>
      <point x="219" y="487" type="curve" smooth="yes"/>
      <point x="160" y="487"/>
      <point x="125" y="443"/>
      <point x="125" y="391" type="curve" smooth="yes"/>
      <point x="125" y="338"/>
      <point x="162" y="299"/>
      <point x="219" y="299" type="curve" smooth="yes"/>
      <point x="276" y="299"/>
      <point x="312" y="338"/>
      <point x="312" y="391" type="curve" smooth="yes"/>
      <point x="312" y="443"/>
      <point x="276" y="487"/>
    </contour>
    <contour>
      <point x="98" y="184" type="curve" smooth="yes"/>
      <point x="347" y="184" type="line" smooth="yes"/>
      <point x="358" y="184"/>
      <point x="367" y="175"/>
      <point x="367" y="164" type="curve" smooth="yes"/>
      <point x="367" y="153"/>
      <point x="358" y="144"/>
      <point x="347" y="144" type="curve" smooth="yes"/>
      <point x="98" y="144" type="line" smooth="yes"/>
      <point x="87" y="144"/>
      <point x="78" y="153"/>
      <point x="78" y="164" type="curve" smooth="yes"/>
      <point x="78" y="175"/>
      <point x="87" y="184"/>
    </contour>
  </outline>
</glyph>
<glyph name="guillemotright" format="1">
  <advance width="438"/>
  <unicode hex="00BB"/>
  <outline>
    <contour>
      <point x="68" y="53" type="curve" smooth="yes"/>
      <point x="179" y="203" type="line" smooth="yes"/>
      <point x="186" y="213"/>
      <point x="201" y="215"/>
      <point x="211" y="207" type="curve" smooth="yes"/>
      <point x="221" y="200"/>
      <point x="223" y="185"/>
      <point x="215" y="175" type="curve" smooth="yes"/>
      <point x="104" y="25" type="line" smooth="yes"/>
      <point x="97" y="15"/>
      <point x="82" y="13"/>
      <point x="72" y="21" type="curve" smooth="yes"/>
      <point x="62" y="28"/>
      <point x="60" y="43"/>
    </contour>
    <contour>
      <point x="179" y="180" type="curve" smooth="yes"/>
      <point x="68" y="330" type="line" smooth="yes"/>
      <point x="60" y="340"/>
      <point x="62" y="355"/>
      <point x="72" y="362" type="curve" smooth="yes"/>
      <point x="82" y="370"/>
      <point x="97" y="368"/>
      <point x="104" y="358" type="curve" smooth="yes"/>
      <point x="215" y="208" type="line" smooth="yes"/>
      <point x="223" y="198"/>
      <point x="221" y="183"/>
      <point x="211" y="176" type="curve" smooth="yes"/>
      <point x="201" y="168"/>
      <point x="186" y="170"/>
    </contour>
    <contour>
      <point x="238" y="53" type="curve" smooth="yes"/>
      <point x="349" y="203" type="line" smooth="yes"/>
      <point x="356" y="213"/>
      <point x="371" y="215"/>
      <point x="381" y="207" type="curve" smooth="yes"/>
      <point x="391" y="200"/>
      <point x="393" y="185"/>
      <point x="385" y="175" type="curve" smooth="yes"/>
      <point x="274" y="25" type="line" smooth="yes"/>
      <point x="267" y="15"/>
      <point x="252" y="13"/>
      <point x="242" y="21" type="curve" smooth="yes"/>
      <point x="232" y="28"/>
      <point x="230" y="43"/>
    </contour>
    <contour>
      <point x="349" y="180" type="curve" smooth="yes"/>
      <point x="238" y="330" type="line" smooth="yes"/>
      <point x="230" y="340"/>
      <point x="232" y="355"/>
      <point x="242" y="362" type="curve" smooth="yes"/>
      <point x="252" y="370"/>
      <point x="267" y="368"/>
      <point x="274" y="358" type="curve" smooth="yes"/>
      <point x="385" y="208" type="line" smooth="yes"/>
      <point x="393" y="198"/>
      <point x="391" y="183"/>
      <point x="381" y="176" type="curve" smooth="yes"/>
      <point x="371" y="168"/>
      <point x="356" y="170"/>
    </contour>
  </outline>
</glyph>
